SplineFontDB: 3.2
FontName: InconsolataLGC-BoldItalic
FullName: Inconsolata LGC Bold Italic
FamilyName: Inconsolata LGC
Weight: Bold
Copyright: Original Roman version created by Raph Levien using his own tools and FontForge. Copyright 2006 Raph Levien. Hellenisation of the Roman font, by Dimosthenis Kaponis, using FontForge. Hellenic glyphs Copyright 2010-2012 Dimosthenis Kaponis. Released under the SIL Open Font License, http://scripts.sil.org/OFL.\n\nCyrillic glyphs added by MihailJP, using FontForge. Cyrillic glyphs Copyright 2012 MihailJP. Released under the SIL Open Font License, http://scripts.sil.org/OFL.\n\nEmboldened and italicized by MihailJP.\n\nSome glyphs modified by Greg Omelaenko, using FontForge.
UComments: "2005-8-26: Created."
Version: 1.5.2
ItalicAngle: -10
UnderlinePosition: -100
UnderlineWidth: 50
Ascent: 840
Descent: 184
InvalidEm: 0
LayerCount: 2
Layer: 0 0 "Back" 1
Layer: 1 0 "Fore" 0
XUID: [1021 77 1780377399 11264577]
FSType: 8
OS2Version: 0
OS2_WeightWidthSlopeOnly: 0
OS2_UseTypoMetrics: 0
CreationTime: 1161020814
ModificationTime: 1713586042
PfmFamily: 17
TTFWeight: 700
TTFWidth: 5
LineGap: 205
VLineGap: 0
Panose: 2 11 8 9 3 0 3 0 0 0
OS2TypoAscent: 840
OS2TypoAOffset: 0
OS2TypoDescent: -184
OS2TypoDOffset: 0
OS2TypoLinegap: 0
OS2WinAscent: 1098
OS2WinAOffset: 0
OS2WinDescent: 210
OS2WinDOffset: 0
HheadAscent: 1098
HheadAOffset: 0
HheadDescent: -210
HheadDOffset: 0
OS2Vendor: 'PfEd'
Lookup: 1 0 0 "Polish kreska forms" { "Polish kreska forms-1" ("pl") } ['locl' ('latn' <'PLK ' > ) ]
Lookup: 1 0 0 "Romanian comma accent" { "Romanian comma accent-1"  } ['locl' ('latn' <'MOL ' 'ROM ' > ) ]
Lookup: 1 0 0 "Livonian comma accent" { "Livonian comma accent-1"  } ['locl' ('latn' <'LIV ' 'LVI ' > ) ]
Lookup: 1 0 0 "Macedonian-Serbian Italic" { "Macedonian-Serbian Italic subtable" ("mkd") } ['locl' ('cyrl' <'BOS ' 'MKD ' 'SRB ' > ) ]
Lookup: 1 0 0 "Bulgarian variant forms" { "Bulgarian variant forms-1" ("bg") } ['locl' ('cyrl' <'BGR ' > ) ]

StartChar: a
Encoding: 97 97 0
Width: 613
Flags: W
TeX: 99 0
LayerCount: 2
Fore
SplineSet
74 157 m 0
 120 404 352 554 465 554 c 0
 619 554 583 525 659 506 c 17
 644 488 631 473 624 434 c 2
 575 164 l 2
 556 59 580 0 580 0 c 9
 460 -6 l 1
 460 -6 448 52 454 125 c 1
 376 -5 279 -12 208 -12 c 0
 142 -12 47 12 74 157 c 0
190 167 m 0
 180 98 225 94 226 94 c 0
 318 94 414 169 463 263 c 0
 475 286 498 348 511 417 c 2
 517 450 l 1
 512 454 499 460 469 460 c 0
 400 460 214 332 190 167 c 0
EndSplineSet
Substitution2: "Pinyin variant forms-1" ascript
EndChar

StartChar: c
Encoding: 99 99 1
Width: 613
Flags: W
TeX: 101 0
LayerCount: 2
Fore
SplineSet
110 274 m 0
 140 435 280 553 447 553 c 0
 580 553 623 481 651 434 c 1
 559 346 l 1
 545 358 549 374 542 389 c 0
 537 399 508 450 429 450 c 0
 338 450 250 385 229 277 c 0
 210 184 253 95 362 95 c 0
 387 95 476 100 551 169 c 1
 608 86 l 1
 519 6 408 -13 341 -13 c 0
 179 -13 79 110 110 274 c 0
EndSplineSet
EndChar

StartChar: m
Encoding: 109 109 2
Width: 613
Flags: W
TeX: 112 0
LayerCount: 2
Fore
SplineSet
37 0 m 1
 107 377 l 2
 125 476 107 511 92 539 c 1
 219 556 l 1
 225 538 227 530 227 503 c 1
 258 532 295 555 342 555 c 0
 385 555 418 532 432 497 c 1
 466 533 513 555 560 555 c 0
 593 555 632 543 650 506 c 1
 668 472 662 431 655 395 c 0
 654 389 652 383 651 377 c 2
 612 164 l 2
 595 75 619 27 632 1 c 1
 490 -6 l 1
 486 56 489 112 499 168 c 2
 533 374 l 2
 535 384 537 393 539 403 c 0
 542 419 542 436 540 446 c 1
 536 460 528 464 517 464 c 0
 494 464 470 447 457 432 c 0
 443 414 435 398 430 371 c 2
 364 0 l 1
 253 0 l 1
 323 370 l 2
 325 378 326 386 327 394 c 0
 330 408 332 422 330 433 c 0
 327 454 315 459 302 459 c 0
 287 459 264 449 240 418 c 0
 221 393 216 374 212 351 c 2
 146 0 l 1
 37 0 l 1
EndSplineSet
EndChar

StartChar: s
Encoding: 115 115 3
Width: 613
Flags: W
TeX: 118 0
LayerCount: 2
Fore
SplineSet
71 88 m 1
 150 194 l 1
 166 186 179 180 173 160 c 0
 173 159 173 158 174 157 c 16
 187 139 232 90 322 90 c 0
 420 90 479 124 486 159 c 0
 488 172 487 191 452 208 c 0
 420 224 331 238 286 254 c 0
 261 263 150 299 169 401 c 0
 185 486 288 555 419 555 c 0
 451 555 555 555 626 454 c 1
 548 363 l 1
 539 365 523 368 523 386 c 0
 523 390 527 390 524 394 c 0
 510 417 469 460 400 460 c 0
 342 460 294 432 288 402 c 0
 286 391 286 374 322 356 c 0
 363 336 481 323 541 288 c 0
 604 251 615 198 606 158 c 0
 580 49 490 -12 353 -12 c 0
 167 -12 111 43 71 88 c 1
EndSplineSet
EndChar

StartChar: I
Encoding: 73 73 4
Width: 613
Flags: W
TeX: 75 0
LayerCount: 2
Fore
SplineSet
229 739 m 1
 627 739 l 1
 610 639 l 1
 463 639 l 1
 367 98 l 1
 521 98 l 1
 504 -1 l 1
 91 -1 l 1
 108 99 l 1
 254 99 l 1
 350 639 l 1
 212 639 l 1
 229 739 l 1
EndSplineSet
EndChar

StartChar: o
Encoding: 111 111 5
Width: 613
Flags: W
TeX: 114 0
LayerCount: 2
Fore
SplineSet
619 269 m 0
 588 92 448 -14 310 -14 c 0
 164 -14 61 103 90 267 c 0
 119 433 265 554 413 554 c 0
 545 554 652 453 619 269 c 0
388 451 m 0
 315 451 233 391 212 274 c 0
 191 156 253 90 329 90 c 0
 398 90 481 145 502 265 c 0
 525 397 456 451 388 451 c 0
EndSplineSet
EndChar

StartChar: n
Encoding: 110 110 6
Width: 613
Flags: W
TeX: 113 0
LayerCount: 2
Fore
SplineSet
73 0 m 1
 143 377 l 2
 161 476 143 511 128 539 c 1
 263 555 l 1
 269 536 274 523 271 469 c 1
 319 515 382 554 456 555 c 0
 524 556 581 518 599 454 c 0
 612 409 602 364 595 324 c 2
 566 164 l 2
 560 133 550 74 586 1 c 1
 441 -6 l 1
 437 54 440 105 450 157 c 2
 481 323 l 2
 488 360 494 398 475 424 c 0
 463 441 443 450 420 450 c 0
 370 450 312 408 288 384 c 0
 262 358 254 337 248 304 c 0
 191 0 l 1
 73 0 l 1
EndSplineSet
EndChar

StartChar: l
Encoding: 108 108 7
Width: 613
Flags: W
TeX: 111 0
LayerCount: 2
Fore
SplineSet
219 689 m 1
 237 788 l 1
 508 788 l 1
 394 174 l 1
 384 116 392 105 415 105 c 0
 449 105 480 110 511 113 c 1
 489 0 l 13
 481 0 476 0 468 0 c 24
 450 0 439 0 421 0 c 16
 383 0 343 1 315 20 c 0
 270 50 265 105 277 169 c 0
 277 171 278 172 278 174 c 0
 373 689 l 1
 219 689 l 1
EndSplineSet
EndChar

StartChar: t
Encoding: 116 116 8
Width: 613
Flags: W
TeX: 119 0
LayerCount: 2
Fore
SplineSet
340 685 m 1
 459 704 l 1
 463 694 463 694 463 681 c 0
 460 665 451 657 450 653 c 0
 442 630 426 571 419 543 c 1
 594 543 l 1
 577 441 l 1
 397 441 l 1
 380 380 367 321 356 261 c 0
 344 191 344 173 343 166 c 1
 342 114 374 99 407 99 c 0
 451 99 488 122 546 157 c 1
 567 60 l 1
 533 39 457 -10 363 -10 c 0
 304 -10 259 12 237 50 c 0
 210 97 220 151 228 196 c 0
 242 277 261 361 281 441 c 1
 155 441 l 1
 175 542 l 1
 304 542 l 1
 340 685 l 1
EndSplineSet
EndChar

StartChar: e
Encoding: 101 101 9
Width: 613
Flags: W
TeX: 103 0
LayerCount: 2
Fore
SplineSet
99 269 m 0
 135 462 277 555 395 555 c 0
 505 555 540 539 570 513 c 0
 606 482 620 436 612 390 c 0
 600 325 548 290 456 259 c 0
 384 235 305 234 230 234 c 8
 226 234 225 234 221 234 c 18
 212 234 l 1
 189 97 284 87 345 87 c 0
 383 87 463 95 528 155 c 1
 586 86 l 1
 495 6 410 -12 326 -12 c 0
 149 -12 69 107 99 269 c 0
228 331 m 1
 243 331 l 2
 257 331 271 330 286 330 c 0
 326 330 368 332 399 338 c 0
 470 352 490 364 495 391 c 0
 500 411 493 459 413 459 c 0
 348 459 256 425 228 331 c 1
EndSplineSet
EndChar

StartChar: b
Encoding: 98 98 11
Width: 613
Flags: W
TeX: 100 0
LayerCount: 2
Fore
SplineSet
66 23 m 1
 207 790 l 1
 334 790 l 1
 337 771 338 764 330 756 c 0
 324 749 319 751 318 745 c 18
 273 492 l 1
 318 532 376 555 433 555 c 0
 545 555 652 465 617 275 c 0
 587 114 457 -14 311 -14 c 8
 214 -14 157 8 66 23 c 1
198 100 m 1
 201 96 215 80 277 80 c 0
 361 80 470 148 495 264 c 0
 501 292 528 451 390 451 c 0
 342 451 292 426 266 385 c 0
 250 360 243 330 234 285 c 2
 198 100 l 1
EndSplineSet
EndChar

StartChar: H
Encoding: 72 72 12
Width: 613
Flags: W
TeX: 74 0
LayerCount: 2
Fore
SplineSet
189 739 m 1
 306 739 l 1
 310 729 312 726 311 719 c 0
 307 699 300 701 299 697 c 0
 253 438 l 1
 512 438 l 1
 565 739 l 1
 679 739 l 1
 684 731 685 728 684 720 c 0
 680 698 672 701 672 699 c 0
 549 -1 l 1
 434 -1 l 1
 493 337 l 1
 235 337 l 1
 176 0 l 1
 59 0 l 1
 189 739 l 1
EndSplineSet
EndChar

StartChar: g
Encoding: 103 103 13
Width: 613
Flags: W
TeX: 105 0
LayerCount: 2
Fore
SplineSet
25 -114 m 1
 112 -20 l 1
 130 -38 123 -45 133 -57 c 0
 142 -68 190 -109 247 -109 c 0
 338 -109 337 -108 378 -87 c 0
 416 -68 423 -46 427 -26 c 0
 441 53 l 1
 395 12 338 -12 281 -12 c 0
 170 -12 57 78 94 278 c 0
 136 502 391 554 465 554 c 0
 546 554 556 529 663 506 c 1
 647 487 636 474 628 434 c 2
 543 -26 l 2
 528 -107 440 -204 277 -204 c 0
 93 -204 57 -167 25 -114 c 1
213 303 m 0
 189 176 229 94 310 94 c 0
 360 94 421 128 451 188 c 0
 464 214 474 243 481 283 c 2
 508 447 l 1
 508 447 472 463 429 463 c 0
 359 463 230 392 213 303 c 0
EndSplineSet
EndChar

StartChar: h
Encoding: 104 104 14
Width: 613
Flags: W
TeX: 106 0
LayerCount: 2
Fore
SplineSet
75 0 m 1
 219 788 l 1
 344 788 l 9
 345 783 345 781 346 776 c 8
 348 763 344 756 331 745 c 0
 330 744 330 744 330 743 c 10
 283 478 l 1
 333 523 394 555 458 555 c 0
 526 555 583 518 601 454 c 0
 614 409 604 364 597 324 c 0
 568 164 l 2
 548 52 588 1 588 1 c 1
 443 -6 l 1
 443 -6 435 68 452 157 c 2
 483 323 l 0
 490 359 496 397 477 424 c 0
 465 441 445 450 422 450 c 0
 372 450 314 408 290 384 c 0
 264 358 256 337 250 304 c 0
 193 0 l 1
 75 0 l 1
EndSplineSet
EndChar

StartChar: u
Encoding: 117 117 15
Width: 613
Flags: W
TeX: 120 0
LayerCount: 2
Fore
SplineSet
108 102 m 0
 94 150 103 199 111 243 c 2
 142 405 l 2
 156 475 139 507 122 539 c 1
 257 555 l 1
 264 534 276 498 265 438 c 2
 228 242 l 2
 221 207 216 171 227 140 c 0
 239 105 267 87 304 87 c 0
 350 87 400 117 430 156 c 0
 453 185 461 212 468 251 c 2
 523 542 l 1
 640 542 l 1
 570 164 l 2
 550 58 601 1 601 1 c 1
 456 -6 l 1
 456 -6 448 18 447 61 c 1
 396 18 329 -13 272 -13 c 0
 196 -13 129 27 108 102 c 0
EndSplineSet
EndChar

StartChar: r
Encoding: 114 114 16
Width: 613
Flags: W
TeX: 117 0
LayerCount: 2
Fore
SplineSet
110 0 m 1
 180 377 l 2
 198 476 180 511 165 539 c 1
 300 555 l 1
 307 533 311 522 311 487 c 1
 362 533 426 554 492 555 c 0
 569 556 618 535 660 481 c 1
 589 373 l 1
 573 390 568 396 559 418 c 0
 553 433 532 451 458 451 c 0
 389 451 351 410 325 384 c 0
 299 358 291 337 285 304 c 2
 228 0 l 1
 110 0 l 1
EndSplineSet
Substitution2: "r with serif-1" r.serif
EndChar

StartChar: i
Encoding: 105 105 17
Width: 613
Flags: W
TeX: 108 0
LayerCount: 2
Fore
SplineSet
201 442 m 1
 219 543 l 1
 467 543 l 1
 397 172 l 2
 388 124 390 105 418 105 c 0
 452 105 476 109 514 113 c 1
 492 0 l 9
 481 0 474 0 463 0 c 24
 448 0 439 0 424 0 c 16
 386 0 346 1 318 20 c 0
 273 50 268 103 280 165 c 0
 280 167 281 168 281 170 c 2
 332 442 l 1
 201 442 l 1
362 704 m 0
 369 745 408 778 450 778 c 0
 494 778 523 741 515 699 c 0
 508 658 470 626 428 626 c 0
 381 626 355 664 362 704 c 0
EndSplineSet
EndChar

StartChar: f
Encoding: 102 102 18
Width: 613
Flags: W
TeX: 104 0
LayerCount: 2
Fore
SplineSet
145 417 m 1
 162 512 l 1
 280 512 l 1
 287 551 l 2
 296 599 306 648 344 696 c 0
 396 762 478 796 558 796 c 0
 613 796 689 778 729 706 c 1
 666 612 l 1
 635 612 634 631 635 639 c 8
 635 641 637 641 635 645 c 0
 621 674 589 698 542 698 c 0
 502 698 461 680 434 644 c 0
 412 615 405 581 399 545 c 0
 398 541 398 538 397 534 c 2
 393 511 l 1
 570 511 l 1
 553 417 l 1
 376 417 l 1
 267 -172 l 1
 154 -172 l 1
 262 417 l 1
 145 417 l 1
EndSplineSet
EndChar

StartChar: v
Encoding: 118 118 19
Width: 613
Flags: W
TeX: 121 0
LayerCount: 2
Fore
SplineSet
130 543 m 1
 268 543 l 1
 268 523 265 513 262 507 c 0
 261 505 261 503 261 502 c 0
 340 141 l 1
 442 308 l 2
 481 372 512 424 558 543 c 1
 667 543 l 1
 629 446 588 378 538 298 c 2
 348 -4 l 1
 261 -4 l 1
 130 543 l 1
EndSplineSet
EndChar

StartChar: d
Encoding: 100 100 20
Width: 613
Flags: W
TeX: 102 0
LayerCount: 2
Fore
SplineSet
97 278 m 0
 139 501 391 554 447 554 c 0
 483 554 512 546 530 540 c 1
 577 790 l 1
 698 790 l 1
 694 756 683 762 679 738 c 2
 575 168 l 2
 555 57 580 0 580 0 c 1
 458 -6 l 1
 457 5 456 24 456 73 c 1
 407 25 339 -12 277 -12 c 0
 166 -12 59 77 97 278 c 0
213 303 m 0
 189 176 229 94 310 94 c 0
 360 94 421 128 451 188 c 0
 464 214 474 243 481 283 c 2
 512 446 l 1
 497 452 465 463 429 463 c 0
 359 462 230 392 213 303 c 0
EndSplineSet
EndChar

StartChar: p
Encoding: 112 112 21
Width: 613
Flags: W
TeX: 115 0
LayerCount: 2
Fore
SplineSet
29 -198 m 1
 138 403 l 2
 151 477 134 511 119 539 c 1
 246 556 l 1
 251 539 257 520 257 475 c 1
 302 519 360 554 437 554 c 0
 554 554 658 464 623 275 c 0
 587 81 448 -14 352 -14 c 0
 273 -14 227 -6 182 3 c 1
 147 -198 l 1
 29 -198 l 1
199 106 m 1
 223 96 276 78 313 78 c 0
 362 78 475 113 501 262 c 0
 529 422 448 451 393 451 c 0
 343 451 293 425 266 385 c 0
 250 362 243 334 235 292 c 2
 199 106 l 1
EndSplineSet
EndChar

StartChar: q
Encoding: 113 113 22
Width: 613
Flags: W
TeX: 116 0
LayerCount: 2
Fore
SplineSet
94 279 m 0
 136 503 391 554 465 554 c 4
 546 554 556 529 663 506 c 5
 647 487 636 474 628 434 c 6
 543 -24 l 2
 521 -146 564 -197 564 -197 c 1
 419 -203 l 1
 419 -203 408 -124 425 -34 c 2
 441 53 l 1
 395 12 338 -12 281 -12 c 0
 168 -12 57 80 94 279 c 0
213 303 m 0
 189 176 229 94 310 94 c 0
 360 94 421 128 451 188 c 0
 464 214 475 243 481 283 c 2
 508 447 l 5
 493 453 465 463 429 463 c 4
 359 462 230 392 213 303 c 0
EndSplineSet
EndChar

StartChar: y
Encoding: 121 121 23
Width: 613
Flags: W
TeX: 124 0
LayerCount: 2
Fore
SplineSet
25 -114 m 1
 112 -20 l 1
 133 -41 123 -45 133 -57 c 0
 142 -68 190 -109 247 -109 c 0
 338 -109 327 -108 368 -87 c 0
 406 -68 413 -46 417 -26 c 2
 434 50 l 1
 385 12 324 -13 272 -13 c 0
 196 -13 129 27 108 102 c 0
 94 150 103 199 111 243 c 2
 142 405 l 2
 156 475 139 507 122 539 c 1
 257 555 l 1
 264 534 276 498 265 438 c 2
 228 242 l 2
 221 207 216 171 227 140 c 0
 239 105 267 87 304 87 c 0
 350 87 400 117 430 156 c 0
 453 185 461 212 468 251 c 2
 523 542 l 1
 640 542 l 1
 534 -26 l 2
 520 -107 440 -204 277 -204 c 0
 93 -204 57 -167 25 -114 c 1
EndSplineSet
EndChar

StartChar: period
Encoding: 46 46 24
Width: 613
Flags: W
TeX: 115 0
LayerCount: 2
Fore
SplineSet
386 39 m 0
 378 -7 332 -44 285 -44 c 0
 238 -44 207 -7 215 39 c 0
 223 85 268 123 315 123 c 0
 362 123 394 85 386 39 c 0
EndSplineSet
EndChar

StartChar: comma
Encoding: 44 44 25
Width: 613
Flags: W
TeX: 101 0
LayerCount: 2
Fore
SplineSet
389 8 m 0
 376 -65 332 -103 212 -205 c 1
 155 -157 l 1
 194 -129 212 -116 237 -87 c 0
 244 -79 257 -64 259 -52 c 0
 261 -39 252 -33 242 -27 c 0
 233 -20 207 -2 214 39 c 0
 222 83 264 122 312 122 c 0
 364 122 401 76 389 8 c 0
EndSplineSet
EndChar

StartChar: plus
Encoding: 43 43 28
Width: 613
Flags: W
TeX: 115 0
LayerCount: 2
Fore
SplineSet
367 621 m 1
 473 621 l 1
 440 433 l 1
 642 433 l 1
 624 330 l 1
 422 330 l 1
 383 108 l 1
 277 108 l 1
 316 330 l 1
 106 330 l 1
 124 433 l 1
 334 433 l 1
 367 621 l 1
EndSplineSet
EndChar

StartChar: minus
Encoding: 8722 8722 29
Width: 613
Flags: W
TeX: 106 0
LayerCount: 2
Fore
SplineSet
125 438 m 1
 643 438 l 1
 625 335 l 1
 107 335 l 1
 125 438 l 1
EndSplineSet
EndChar

StartChar: underscore
Encoding: 95 95 31
Width: 613
Flags: W
TeX: 120 0
LayerCount: 2
Fore
SplineSet
32 -23 m 1
 575 -23 l 1
 557 -126 l 1
 14 -126 l 1
 32 -23 l 1
EndSplineSet
EndChar

StartChar: less
Encoding: 60 60 32
Width: 613
Flags: W
TeX: 111 0
LayerCount: 2
Fore
SplineSet
669 566 m 1
 242 378 l 1
 602 168 l 1
 580 43 l 1
 96 342 l 1
 110 418 l 1
 690 685 l 1
 669 566 l 1
EndSplineSet
EndChar

StartChar: greater
Encoding: 62 62 33
Width: 613
Flags: W
TeX: 105 0
LayerCount: 2
Fore
SplineSet
145 566 m 1
 166 685 l 1
 653 418 l 1
 639 342 l 1
 50 43 l 1
 72 168 l 1
 507 378 l 1
 145 566 l 1
EndSplineSet
EndChar

StartChar: quotesingle
Encoding: 39 39 34
Width: 613
Flags: W
TeX: 116 0
LayerCount: 2
Fore
SplineSet
521 708 m 6
 501 595 l 1
 482 473 l 1
 351 473 l 1
 359 529 364 563 373 613 c 1
 381 625 375 635 380 663 c 2
 389 716 l 2
 398 766 443 791 474 791 c 0
 507 791 531 767 521 708 c 6
EndSplineSet
EndChar

StartChar: grave
Encoding: 96 96 35
Width: 613
Flags: W
TeX: 105 0
LayerCount: 2
Fore
SplineSet
351 361 m 2
 306 474 l 1
 261 580 l 1
 298 805 l 1
 324 755 340 719 363 670 c 1
 370 643 373 642 386 617 c 2
 411 566 l 0
 431 513 428 424 420 378 c 0
 410 324 372 309 351 361 c 2
EndSplineSet
EndChar

StartChar: slash
Encoding: 47 47 36
Width: 613
Flags: W
TeX: 118 0
LayerCount: 2
Fore
SplineSet
65 -7 m 1
 590 794 l 1
 681 746 l 1
 153 -56 l 1
 65 -7 l 1
EndSplineSet
EndChar

StartChar: backslash
Encoding: 92 92 37
Width: 613
Flags: W
TeX: 100 0
LayerCount: 2
Fore
SplineSet
548 -7 m 1
 441 -56 l 1
 198 746 l 1
 304 794 l 1
 548 -7 l 1
EndSplineSet
EndChar

StartChar: micro
Encoding: 181 181 38
Width: 613
Flags: W
TeX: 120 0
LayerCount: 2
Fore
SplineSet
-12 -198 m 1
 13 -59 59 66 89 237 c 2
 143 542 l 1
 252 542 l 1
 196 226 l 2
 190 192 185 163 195 136 c 0
 208 100 238 82 269 82 c 0
 305 82 346 105 372 146 c 0
 389 172 395 199 401 233 c 2
 456 542 l 1
 563 542 l 1
 492 144 l 2
 489 126 488 106 492 97 c 0
 499 84 504 82 513 82 c 0
 552 82 590 155 590 155 c 1
 625 64 l 1
 595 26 545 -12 490 -12 c 0
 443 -12 409 18 399 57 c 1
 357 13 302 -13 247 -13 c 0
 201 -13 161 7 136 38 c 1
 126 -20 109 -105 93 -198 c 1
 -12 -198 l 1
EndSplineSet
EndChar

StartChar: braceleft
Encoding: 123 123 39
Width: 613
Flags: W
TeX: 100 0
LayerCount: 2
Fore
SplineSet
119 352 m 1
 158 352 l 0
 180 352 207 352 231 373 c 0
 260 397 268 433 273 460 c 0
 278 487 279 513 284 542 c 0
 292 586 310 655 376 706 c 1
 438 753 508 756 565 756 c 8
 579 756 586 756 600 756 c 16
 643 756 l 1
 626 657 l 1
 570 657 l 0
 552 657 537 658 523 658 c 0
 495 658 476 656 456 645 c 1
 414 622 402 575 398 551 c 0
 394 526 393 500 388 471 c 0
 383 443 374 407 350 373 c 0
 331 345 304 320 274 303 c 1
 312 277 341 223 323 120 c 0
 316 82 307 49 302 20 c 0
 295 -20 293 -65 325 -90 c 0
 344 -105 370 -106 408 -106 c 8
 419 -106 425 -106 436 -106 c 16
 490 -106 l 1
 473 -204 l 1
 420 -204 l 8
 404 -204 394 -204 378 -204 c 16
 321 -204 267 -201 227 -165 c 0
 167 -112 179 -24 187 19 c 0
 195 66 207 103 213 138 c 0
 222 188 219 218 203 236 c 0
 187 255 163 255 142 255 c 0
 102 255 l 1
 119 352 l 1
EndSplineSet
EndChar

StartChar: braceright
Encoding: 125 125 40
Width: 613
Flags: W
TeX: 100 0
LayerCount: 2
Fore
SplineSet
619 352 m 1
 602 255 l 1
 562 255 l 0
 541 255 518 255 495 236 c 0
 473 218 459 188 450 138 c 0
 444 103 443 66 435 19 c 0
 427 -24 408 -112 330 -165 c 0
 277 -201 222 -204 165 -204 c 8
 148 -204 138 -204 121 -204 c 16
 70 -204 l 1
 87 -106 l 1
 142 -106 l 8
 153 -106 158 -106 169 -106 c 16
 207 -106 233 -105 258 -90 c 0
 298 -65 313 -20 320 20 c 0
 325 49 326 82 333 120 c 0
 351 224 401 278 447 303 c 1
 422 321 405 345 396 373 c 0
 384 407 387 443 392 471 c 0
 397 500 406 526 410 551 c 0
 414 575 420 622 386 645 c 0
 370 656 352 658 324 658 c 0
 310 658 295 657 277 657 c 0
 220 657 l 1
 238 756 l 1
 282 756 l 8
 295 756 303 756 316 756 c 16
 373 756 442 753 487 706 c 0
 535 655 529 586 521 542 c 0
 516 513 509 487 504 460 c 0
 499 433 496 396 515 373 c 0
 533 351 558 352 580 352 c 0
 619 352 l 1
EndSplineSet
EndChar

StartChar: asterisk
Encoding: 42 42 41
Width: 613
Flags: W
TeX: 99 0
LayerCount: 2
Fore
SplineSet
354 615 m 1
 485 615 l 1
 482 600 474 596 470 581 c 2
 426 417 l 1
 618 498 l 1
 644 394 l 1
 439 349 l 1
 553 176 l 1
 452 116 l 1
 359 296 l 1
 197 115 l 1
 119 176 l 1
 299 349 l 1
 108 394 l 1
 171 503 l 1
 338 417 l 1
 354 615 l 1
EndSplineSet
EndChar

StartChar: O
Encoding: 79 79 42
Width: 613
Flags: W
TeX: 81 0
LayerCount: 2
Fore
SplineSet
650 368 m 0
 639 305 618 214 563 134 c 0
 495 35 396 -11 310 -11 c 0
 187 -11 45 86 95 371 c 0
 145 657 324 748 443 748 c 0
 529 748 611 702 645 606 c 0
 673 526 662 435 650 368 c 0
421 639 m 0
 354 639 245 585 209 381 c 0
 170 162 258 100 330 100 c 0
 374 100 430 124 473 187 c 0
 511 244 526 313 534 358 c 0
 544 417 552 482 538 538 c 0
 519 614 467 639 421 639 c 0
EndSplineSet
EndChar

StartChar: zero
Encoding: 48 48 43
Width: 613
Flags: W
TeX: 125 0
LayerCount: 2
Fore
SplineSet
439 744 m 0
 566 744 665 603 622 357 c 0
 578 109 427 -13 308 -13 c 0
 178 -13 77 131 118 364 c 0
 159 595 308 744 439 744 c 0
505 562 m 1
 485 619 451 641 420 641 c 0
 361 641 260 550 227 363 c 0
 220 325 216 289 217 258 c 1
 505 562 l 1
527 476 m 1
 240 177 l 1
 261 119 296 93 329 93 c 0
 381 93 480 159 516 363 c 0
 523 405 526 443 527 476 c 1
EndSplineSet
Substitution2: "Old style numerals-1" zero.oldstyle
Substitution2: "Non-slashed zero-1" zero.noslash
EndChar

StartChar: one
Encoding: 49 49 44
Width: 613
Flags: W
TeX: 114 0
LayerCount: 2
Fore
SplineSet
511 740 m 1
 381 -1 l 1
 267 -1 l 1
 374 607 l 1
 225 566 l 1
 207 635 l 1
 434 740 l 1
 511 740 l 1
EndSplineSet
Substitution2: "Old style numerals-1" one.oldstyle
EndChar

StartChar: two
Encoding: 50 50 45
Width: 613
Flags: W
TeX: 119 0
LayerCount: 2
Fore
SplineSet
189 606 m 1
 220 644 301 744 440 744 c 0
 569 744 654 650 633 532 c 0
 614 423 519 346 457 298 c 0
 399 254 311 190 238 103 c 1
 521 103 l 2
 522 103 523 104 524 105 c 0
 540 119 551 115 566 109 c 1
 547 0 l 1
 82 0 l 1
 94 68 l 1
 195 198 254 258 362 338 c 0
 425 385 504 444 518 521 c 0
 530 589 484 640 413 640 c 0
 355 640 308 604 288 580 c 0
 277 566 275 554 261 539 c 1
 189 606 l 1
EndSplineSet
Substitution2: "Old style numerals-1" two.oldstyle
EndChar

StartChar: N
Encoding: 78 78 46
Width: 613
Flags: W
TeX: 80 0
LayerCount: 2
Fore
SplineSet
54 0 m 1
 184 739 l 1
 289 739 l 1
 486 234 l 1
 575 740 l 1
 692 740 l 1
 692 717 692 717 683 704 c 0
 679 698 680 700 679 695 c 0
 556 -1 l 1
 466 -1 l 1
 260 538 l 1
 165 0 l 1
 54 0 l 1
EndSplineSet
EndChar

StartChar: four
Encoding: 52 52 47
Width: 613
Flags: W
TeX: 104 0
LayerCount: 2
Fore
SplineSet
504 740 m 1
 597 740 l 1
 519 293 l 1
 614 293 l 1
 595 188 l 1
 500 188 l 1
 467 0 l 1
 350 0 l 1
 383 189 l 1
 85 189 l 1
 99 269 l 1
 504 740 l 1
449 557 m 1
 230 293 l 1
 403 293 l 1
 449 557 l 1
EndSplineSet
Substitution2: "Old style numerals-1" four.oldstyle
EndChar

StartChar: eight
Encoding: 56 56 48
Width: 613
Flags: W
TeX: 103 0
LayerCount: 2
Fore
SplineSet
449 749 m 0
 565 749 642 669 624 566 c 0
 612 499 561 434 493 395 c 1
 561 353 598 280 584 198 c 0
 563 80 441 -12 304 -12 c 0
 170 -12 80 78 100 193 c 0
 114 274 181 349 267 393 c 1
 215 432 188 492 200 559 c 0
 219 664 328 749 449 749 c 0
356 358 m 1
 287 330 230 272 219 212 c 0
 208 147 253 93 326 93 c 0
 398 93 459 145 470 207 c 0
 481 269 439 328 356 358 c 1
424 648 m 0
 367 648 319 607 310 558 c 0
 297 486 376 439 401 427 c 1
 458 457 503 506 511 553 c 0
 520 606 482 648 424 648 c 0
EndSplineSet
Substitution2: "Old style numerals-1" eight.oldstyle
EndChar

StartChar: five
Encoding: 53 53 49
Width: 613
Flags: W
TeX: 104 0
LayerCount: 2
Fore
SplineSet
252 739 m 1
 656 739 l 1
 638 634 l 1
 332 634 l 1
 295 476 l 1
 332 489 367 496 402 496 c 0
 534 496 624 402 596 241 c 0
 567 78 439 -13 303 -13 c 0
 192 -13 124 41 86 119 c 1
 194 190 l 1
 204 183 205 156 208 150 c 0
 212 141 252 90 320 90 c 0
 390 90 463 141 481 243 c 0
 500 348 441 396 372 396 c 0
 355 396 296 396 226 323 c 1
 157 353 l 1
 252 739 l 1
EndSplineSet
Substitution2: "Old style numerals-1" five.oldstyle
EndChar

StartChar: S
Encoding: 83 83 50
Width: 613
Flags: W
TeX: 85 0
LayerCount: 2
Fore
SplineSet
658 637 m 1
 576 547 l 1
 558 554 551 558 554 574 c 0
 554 576 554 578 554 578 c 1
 534 616 493 644 429 644 c 0
 351 644 303 600 295 555 c 0
 291 531 294 495 346 463 c 0
 404 427 506 407 564 345 c 0
 606 300 609 246 602 206 c 0
 585 110 491 -12 302 -12 c 0
 219 -12 129 12 70 96 c 1
 151 204 l 1
 163 197 163 191 165 184 c 0
 166 179 168 175 172 169 c 0
 195 131 246 93 322 93 c 0
 422 93 479 154 488 207 c 0
 493 234 488 266 449 292 c 0
 402 323 298 347 235 398 c 0
 177 444 170 503 178 548 c 0
 197 654 312 743 452 743 c 0
 493 743 583 743 658 637 c 1
EndSplineSet
EndChar

StartChar: M
Encoding: 77 77 51
Width: 613
Flags: W
TeX: 79 0
LayerCount: 2
Fore
SplineSet
173 739 m 1
 263 739 l 1
 377 396 l 1
 614 740 l 1
 701 740 l 1
 571 -1 l 1
 462 -1 l 1
 552 512 l 1
 373 260 l 1
 322 260 l 1
 241 505 l 1
 152 -1 l 1
 43 -1 l 1
 173 739 l 1
EndSplineSet
EndChar

StartChar: L
Encoding: 76 76 52
Width: 613
Flags: W
TeX: 78 0
LayerCount: 2
Fore
SplineSet
204 739 m 1
 329 739 l 1
 329 721 328 711 318 699 c 0
 313 692 312 694 311 686 c 0
 208 101 l 1
 565 101 l 1
 547 -1 l 1
 74 -1 l 1
 204 739 l 1
EndSplineSet
EndChar

StartChar: ampersand
Encoding: 38 38 53
Width: 613
Flags: W
TeX: 80 0
LayerCount: 2
Fore
SplineSet
414 747 m 0
 511 747 575 676 558 580 c 0
 545 504 483 430 403 386 c 1
 488 236 l 1
 511 261 527 287 538 308 c 0
 539 310 540 311 540 312 c 0
 540 313 539 318 540 326 c 0
 543 341 550 345 566 357 c 5
 652 291 l 1
 563 182 563 182 537 154 c 1
 603 48 l 1
 496 -21 l 1
 450 80 l 1
 390 26 314 -12 236 -12 c 0
 121 -12 51 72 70 181 c 0
 86 270 158 358 252 409 c 1
 220 459 195 519 206 582 c 0
 223 676 316 747 414 747 c 0
317 574 m 0
 313 549 317 513 355 447 c 1
 405 476 439 524 447 568 c 0
 456 617 428 646 394 646 c 0
 361 646 325 618 317 574 c 0
301 345 m 1
 242 306 202 248 193 197 c 0
 182 136 216 95 268 95 c 0
 322 95 381 142 405 163 c 1
 301 345 l 1
EndSplineSet
EndChar

StartChar: F
Encoding: 70 70 54
Width: 613
Flags: W
TeX: 80 0
LayerCount: 2
Fore
SplineSet
217 740 m 1
 674 740 l 1
 656 637 l 1
 314 637 l 1
 282 451 l 1
 558 451 l 1
 539 348 l 1
 263 348 l 1
 202 0 l 1
 87 0 l 1
 217 740 l 1
EndSplineSet
EndChar

StartChar: w
Encoding: 119 119 55
Width: 613
Flags: W
TeX: 122 0
LayerCount: 2
Fore
SplineSet
106 543 m 1
 222 543 l 1
 225 527 225 518 216 499 c 0
 212 491 213 493 213 486 c 1
 221 162 l 1
 359 492 l 1
 435 492 l 1
 475 162 l 1
 548 385 566 450 576 504 c 0
 577 512 579 523 581 542 c 1
 694 542 l 1
 638 366 579 190 503 -1 c 1
 399 -1 l 1
 365 308 l 1
 227 -1 l 1
 125 -1 l 1
 106 543 l 1
EndSplineSet
EndChar

StartChar: quotedbl
Encoding: 34 34 58
Width: 613
Flags: W
TeX: 116 0
LayerCount: 2
Fore
SplineSet
607 708 m 2
 587 595 l 1
 567 473 l 1
 455 473 l 1
 463 528 469 563 477 613 c 1
 485 625 480 637 485 663 c 2
 494 716 l 6
 502 763 539 791 569 791 c 0
 600 791 617 764 607 708 c 2
400 708 m 2
 380 595 l 1
 360 473 l 1
 248 473 l 1
 256 528 262 563 270 613 c 1
 278 625 273 637 278 663 c 2
 287 716 l 2
 295 763 332 791 362 791 c 0
 393 791 410 764 400 708 c 2
EndSplineSet
EndChar

StartChar: T
Encoding: 84 84 59
Width: 613
Flags: W
TeX: 86 0
LayerCount: 2
Fore
SplineSet
162 740 m 1
 704 740 l 1
 686 635 l 1
 468 635 l 1
 356 -1 l 1
 242 -1 l 1
 354 635 l 1
 144 635 l 1
 162 740 l 1
EndSplineSet
EndChar

StartChar: hyphen
Encoding: 45 45 60
Width: 613
Flags: W
TeX: 106 0
LayerCount: 2
Fore
SplineSet
157 443 m 1
 615 443 l 1
 596 334 l 1
 138 334 l 1
 157 443 l 1
EndSplineSet
EndChar

StartChar: exclam
Encoding: 33 33 61
Width: 613
Flags: W
TeX: 103 0
LayerCount: 2
Fore
SplineSet
393 72 m 0
 385 25 339 -13 292 -13 c 0
 245 -13 214 25 222 72 c 0
 230 119 275 158 322 158 c 0
 369 158 401 119 393 72 c 0
436 793 m 0
 466 793 492 772 496 730 c 0
 497 722 497 707 492 678 c 0
 484 631 468 586 457 542 c 0
 383 247 l 1
 295 247 l 1
 328 542 l 0
 338 619 335 647 342 688 c 0
 346 711 351 729 361 745 c 0
 379 776 409 793 436 793 c 0
EndSplineSet
EndChar

StartChar: U
Encoding: 85 85 63
Width: 613
Flags: W
TeX: 87 0
LayerCount: 2
Fore
SplineSet
184 739 m 1
 303 739 l 1
 307 725 307 725 306 719 c 0
 304 706 293 696 291 694 c 0
 288 691 289 692 288 688 c 0
 213 261 l 0
 207 226 202 194 212 163 c 0
 227 114 273 88 326 88 c 0
 378 88 432 113 466 162 c 0
 488 195 496 228 502 264 c 0
 585 739 l 1
 694 739 l 1
 610 263 l 0
 601 211 591 158 552 105 c 0
 493 25 397 -13 307 -13 c 0
 215 -13 134 26 104 105 c 0
 84 157 91 209 100 259 c 0
 184 739 l 1
EndSplineSet
EndChar

StartChar: numbersign
Encoding: 35 35 64
Width: 613
Flags: W
TeX: 113 0
LayerCount: 2
Fore
SplineSet
332 740 m 1
 436 744 l 1
 375 540 l 1
 475 541 l 1
 532 734 l 1
 638 738 l 1
 580 543 l 1
 688 544 l 1
 662 456 l 1
 553 455 l 1
 503 286 l 1
 621 288 l 1
 597 202 l 1
 477 200 l 1
 414 -14 l 1
 310 -19 l 1
 374 198 l 1
 274 197 l 1
 211 -14 l 1
 110 -18 l 1
 172 195 l 1
 57 193 l 1
 80 278 l 1
 197 280 l 1
 248 452 l 1
 119 450 l 1
 141 537 l 1
 274 539 l 1
 332 740 l 1
350 452 m 1
 299 282 l 1
 399 283 l 1
 450 453 l 1
 350 452 l 1
EndSplineSet
EndChar

StartChar: j
Encoding: 106 106 65
Width: 613
Flags: W
TeX: 109 0
LayerCount: 2
Fore
SplineSet
240 543 m 1
 559 543 l 1
 471 47 l 0
 463 2 454 -43 421 -90 c 0
 367 -168 279 -207 197 -207 c 0
 89 -207 47 -145 28 -116 c 1
 117 -20 l 1
 135 -38 131 -44 137 -56 c 0
 139 -60 163 -102 221 -102 c 0
 261 -102 301 -81 326 -43 c 0
 342 -19 347 5 352 32 c 0
 424 441 l 1
 222 441 l 1
 240 543 l 1
543 778 m 0
 585 778 613 744 606 702 c 0
 599 660 558 626 516 626 c 0
 474 626 445 660 452 702 c 0
 459 744 501 778 543 778 c 0
EndSplineSet
EndChar

StartChar: x
Encoding: 120 120 66
Width: 613
Flags: W
TeX: 123 0
LayerCount: 2
Fore
SplineSet
528 543 m 1
 652 543 l 1
 419 279 l 1
 581 0 l 1
 446 0 l 1
 340 199 l 1
 171 0 l 1
 37 0 l 1
 287 275 l 1
 136 543 l 1
 266 543 l 1
 367 354 l 1
 528 543 l 1
EndSplineSet
EndChar

StartChar: G
Encoding: 71 71 67
Width: 613
Flags: W
TeX: 73 0
LayerCount: 2
Fore
SplineSet
471 747 m 0
 511 747 620 747 680 605 c 1
 591 528 l 1
 573 541 574 541 566 565 c 0
 554 609 512 643 452 643 c 0
 395 643 330 614 283 551 c 0
 248 503 229 442 218 378 c 0
 205 305 197 211 243 149 c 0
 273 109 318 92 362 92 c 0
 400 92 446 105 486 127 c 1
 511 267 l 1
 377 267 l 1
 395 370 l 1
 636 370 l 1
 583 70 l 1
 553 48 450 -11 337 -11 c 0
 199 -11 53 85 102 361 c 0
 158 681 366 747 471 747 c 0
EndSplineSet
EndChar

StartChar: k
Encoding: 107 107 68
Width: 613
Flags: W
TeX: 110 0
LayerCount: 2
Fore
SplineSet
213 788 m 1
 338 788 l 1
 338 768 338 761 324 747 c 8
 322 745 322 745 321 742 c 2
 246 313 l 1
 538 546 l 1
 561 540 566 539 605 539 c 2
 674 539 l 1
 390 319 l 1
 611 -1 l 9
 598 -1 591 -1 578 -1 c 16
 561 -1 497 -1 460 -6 c 1
 292 264 l 1
 228 213 l 1
 190 -1 l 1
 74 -1 l 1
 213 788 l 1
EndSplineSet
EndChar

StartChar: z
Encoding: 122 122 69
Width: 613
Flags: W
TeX: 125 0
LayerCount: 2
Fore
SplineSet
175 543 m 1
 627 543 l 1
 614 469 l 1
 236 103 l 1
 526 103 l 2
 543 103 542 109 565 109 c 8
 570 109 573 109 578 109 c 17
 559 -1 l 1
 54 -1 l 1
 67 73 l 1
 450 437 l 1
 156 437 l 1
 175 543 l 1
EndSplineSet
EndChar

StartChar: dollar
Encoding: 36 36 70
Width: 613
Flags: W
TeX: 102 0
LayerCount: 2
Fore
SplineSet
409 772 m 1
 512 772 l 1
 515 761 516 759 515 753 c 0
 512 738 503 735 503 733 c 2
 498 702 l 1
 533 697 600 687 660 602 c 1
 581 523 l 1
 569 526 556 528 558 546 c 0
 559 549 559 550 559 551 c 1
 557 553 558 554 557 555 c 0
 542 578 517 595 481 604 c 1
 447 412 l 1
 471 404 491 396 511 387 c 0
 534 377 630 335 610 220 c 0
 595 133 512 41 377 19 c 1
 364 -55 l 1
 263 -55 l 1
 276 16 l 1
 233 20 157 28 82 119 c 1
 164 207 l 1
 179 200 187 197 182 180 c 8
 182 178 182 178 184 175 c 0
 207 146 245 121 293 112 c 1
 332 336 l 1
 314 342 297 349 280 358 c 0
 183 406 173 476 181 523 c 0
 197 612 288 683 397 701 c 1
 409 772 l 1
427 303 m 1
 393 108 l 1
 455 126 493 169 500 210 c 0
 504 230 503 263 463 287 c 0
 454 293 441 298 427 303 c 1
353 451 m 1
 381 615 l 1
 323 602 298 569 293 539 c 0
 289 519 293 489 336 461 c 0
 340 458 348 453 353 451 c 1
EndSplineSet
EndChar

StartChar: A
Encoding: 65 65 71
Width: 613
Flags: W
TeX: 67 0
LayerCount: 2
Fore
SplineSet
6 -1 m 1
 411 753 l 1
 442 753 l 1
 606 0 l 1
 487 0 l 1
 440 201 l 1
 227 201 l 1
 121 -1 l 1
 6 -1 l 1
427 296 m 1
 385 516 l 1
 271 296 l 1
 427 296 l 1
EndSplineSet
EndChar

StartChar: C
Encoding: 67 67 72
Width: 613
Flags: W
TeX: 69 0
LayerCount: 2
Fore
SplineSet
471 745 m 0
 529 745 650 726 688 576 c 1
 579 527 l 1
 568 536 562 541 565 556 c 0
 566 561 567 564 567 565 c 0
 567 567 567 566 566 570 c 0
 547 617 503 648 451 648 c 0
 359 648 253 556 221 373 c 0
 188 187 264 90 360 90 c 0
 440 90 490 148 523 186 c 1
 600 130 l 1
 518 26 426 -12 337 -12 c 0
 206 -12 57 84 107 365 c 0
 158 656 348 745 471 745 c 0
EndSplineSet
EndChar

StartChar: B
Encoding: 66 66 73
Width: 613
Flags: W
TeX: 68 0
LayerCount: 2
Fore
SplineSet
182 739 m 1
 408 739 l 0
 453 739 503 739 549 718 c 0
 619 687 648 621 636 551 c 0
 625 488 580 430 520 397 c 1
 586 361 618 289 604 211 c 0
 590 132 530 58 439 23 c 1
 379 0 327 0 276 0 c 0
 52 0 l 1
 182 739 l 1
277 638 m 1
 244 449 l 1
 344 449 l 0
 377 449 410 449 442 461 c 0
 486 478 514 510 520 543 c 0
 526 576 511 611 470 627 c 0
 443 638 410 638 378 638 c 0
 277 638 l 1
226 348 m 1
 183 103 l 1
 309 103 l 0
 341 103 369 104 400 116 c 0
 448 135 481 176 489 221 c 0
 497 266 479 310 434 332 c 0
 404 347 368 348 331 348 c 0
 226 348 l 1
EndSplineSet
EndChar

StartChar: bracketleft
Encoding: 91 91 74
Width: 613
Flags: W
TeX: 100 0
LayerCount: 2
Fore
SplineSet
291 795 m 1
 660 795 l 1
 642 693 l 1
 379 693 l 1
 256 -7 l 1
 520 -7 l 1
 502 -105 l 1
 132 -105 l 1
 291 795 l 1
EndSplineSet
EndChar

StartChar: bracketright
Encoding: 93 93 75
Width: 613
Flags: W
TeX: 100 0
LayerCount: 2
Fore
SplineSet
604 795 m 1
 445 -105 l 1
 74 -105 l 1
 92 -7 l 1
 356 -7 l 1
 479 693 l 1
 216 693 l 1
 234 795 l 1
 604 795 l 1
EndSplineSet
EndChar

StartChar: parenleft
Encoding: 40 40 76
Width: 613
Flags: W
TeX: 115 0
LayerCount: 2
Fore
SplineSet
622 795 m 1
 654 699 l 1
 634 689 633 688 622 688 c 0
 614 688 611 689 610 689 c 0
 610 689 609 689 607 688 c 0
 460 612 356 470 328 310 c 0
 303 168 336 -18 514 -124 c 1
 445 -210 l 1
 311 -130 163 24 213 306 c 0
 242 468 338 674 622 795 c 1
EndSplineSet
EndChar

StartChar: parenright
Encoding: 41 41 77
Width: 613
Flags: W
TeX: 115 0
LayerCount: 2
Fore
SplineSet
207 696 m 1
 255 795 l 1
 476 683 544 487 510 297 c 0
 480 129 375 -73 71 -213 c 1
 58 -115 l 1
 290 0 371 160 395 294 c 0
 417 416 399 580 207 696 c 1
EndSplineSet
EndChar

StartChar: three
Encoding: 51 51 78
Width: 613
Flags: W
TeX: 119 0
LayerCount: 2
Fore
SplineSet
609 547 m 0
 598 483 551 424 492 393 c 1
 552 357 580 288 566 210 c 0
 545 92 434 -12 284 -12 c 0
 249 -12 159 -12 87 87 c 5
 187 185 l 1
 223 141 196 153 205 138 c 0
 208 133 240 93 302 93 c 0
 380 93 446 152 458 221 c 0
 471 294 416 339 321 339 c 0
 311 339 288 336 267 334 c 17
 283 428 l 1
 338 428 388 435 412 445 c 0
 460 464 493 505 500 542 c 0
 509 593 471 637 402 637 c 0
 334 637 287 594 264 573 c 1
 210 647 l 1
 245 682 320 742 425 742 c 0
 550 742 628 653 609 547 c 0
EndSplineSet
Substitution2: "Old style numerals-1" three.oldstyle
EndChar

StartChar: D
Encoding: 68 68 79
Width: 613
Flags: W
TeX: 70 0
LayerCount: 2
Fore
SplineSet
188 739 m 1
 377 739 l 0
 443 739 499 735 550 699 c 0
 641 636 662 510 637 371 c 0
 609 213 527 85 404 29 c 0
 344 2 291 -1 232 -1 c 0
 58 -1 l 1
 188 739 l 1
280 638 m 1
 185 95 l 1
 245 95 l 0
 291 95 333 97 380 124 c 0
 440 158 497 230 520 360 c 0
 537 459 531 554 477 603 c 0
 441 636 400 638 354 638 c 0
 280 638 l 1
EndSplineSet
EndChar

StartChar: E
Encoding: 69 69 80
Width: 613
Flags: W
TeX: 71 0
LayerCount: 2
Fore
SplineSet
195 740 m 1
 679 740 l 1
 661 636 l 1
 286 636 l 1
 251 439 l 1
 560 439 l 1
 542 333 l 1
 233 333 l 1
 192 104 l 1
 564 104 l 1
 546 0 l 1
 65 0 l 1
 195 740 l 1
EndSplineSet
EndChar

StartChar: V
Encoding: 86 86 81
Width: 613
Flags: W
TeX: 88 0
LayerCount: 2
Fore
SplineSet
149 740 m 1
 268 740 l 1
 352 206 l 1
 614 739 l 1
 729 739 l 1
 340 -5 l 1
 280 -5 l 1
 149 740 l 1
EndSplineSet
EndChar

StartChar: percent
Encoding: 37 37 82
Width: 613
Flags: W
TeX: 115 0
LayerCount: 2
Fore
SplineSet
595 739 m 1
 710 739 l 1
 149 0 l 1
 38 0 l 1
 595 739 l 1
309 753 m 0
 391 753 445 682 429 589 c 0
 413 498 334 427 252 427 c 0
 169 427 117 499 133 590 c 0
 150 684 228 753 309 753 c 0
290 659 m 0
 276 659 246 651 236 593 c 0
 224 526 256 521 268 521 c 0
 282 521 312 530 322 586 c 0
 334 656 301 659 290 659 c 0
624 150 m 0
 608 59 530 -12 448 -12 c 0
 366 -12 312 58 328 149 c 0
 344 240 423 311 505 311 c 0
 587 311 640 241 624 150 c 0
489 219 m 0
 473 219 440 209 429 149 c 0
 419 91 447 79 465 79 c 0
 481 79 513 88 523 147 c 0
 534 210 504 219 489 219 c 0
EndSplineSet
EndChar

StartChar: J
Encoding: 74 74 83
Width: 613
Flags: W
TeX: 76 0
LayerCount: 2
Fore
SplineSet
329 739 m 1
 697 739 l 1
 680 639 l 1
 567 639 l 1
 498 251 l 0
 489 200 480 143 439 88 c 1
 389 22 315 -13 239 -13 c 0
 183 -13 113 6 64 84 c 1
 153 173 l 1
 166 161 162 147 169 139 c 0
 176 130 209 91 259 91 c 0
 289 91 319 105 340 129 c 1
 366 159 374 197 382 235 c 0
 384 244 l 0
 454 639 l 1
 312 639 l 1
 329 739 l 1
EndSplineSet
EndChar

StartChar: K
Encoding: 75 75 84
Width: 613
Flags: W
TeX: 77 0
LayerCount: 2
Fore
SplineSet
175 740 m 1
 303 740 l 1
 302 719 303 716 293 704 c 0
 287 696 286 696 286 694 c 2
 239 423 l 1
 584 747 l 1
 612 740 618 739 649 739 c 2
 714 739 l 1
 364 417 l 1
 599 -1 l 1
 515 -1 484 -3 455 -6 c 1
 268 360 l 1
 220 316 l 1
 164 0 l 1
 45 0 l 1
 175 740 l 1
EndSplineSet
EndChar

StartChar: P
Encoding: 80 80 85
Width: 613
Flags: W
TeX: 82 0
LayerCount: 2
Fore
SplineSet
292 631 m 1
 253 415 l 1
 387 415 l 0
 415 415 442 416 469 428 c 0
 509 445 536 480 543 520 c 0
 550 560 535 599 498 617 c 1
 473 630 447 631 416 631 c 0
 292 631 l 1
195 739 m 1
 435 739 l 0
 483 739 532 738 579 713 c 1
 647 676 672 601 658 524 c 0
 644 447 594 373 512 336 c 1
 459 312 412 311 366 311 c 0
 236 311 l 1
 181 0 l 1
 65 0 l 1
 195 739 l 1
EndSplineSet
EndChar

StartChar: question
Encoding: 63 63 86
Width: 613
Flags: W
TeX: 116 0
LayerCount: 2
Fore
SplineSet
418 68 m 0
 410 22 364 -15 317 -15 c 0
 270 -15 238 22 246 68 c 0
 254 114 300 152 347 152 c 0
 394 152 426 114 418 68 c 0
180 648 m 1
 225 703 317 790 454 790 c 0
 597 790 662 683 641 565 c 0
 620 445 525 395 482 362 c 0
 430 322 424 294 417 253 c 0
 415 242 l 1
 306 242 l 1
 308 253 l 0
 318 307 330 355 396 416 c 0
 441 458 505 502 517 571 c 0
 528 633 489 681 427 681 c 0
 339 681 277 603 251 570 c 1
 180 648 l 1
EndSplineSet
EndChar

StartChar: at
Encoding: 64 64 87
Width: 613
Flags: W
TeX: 99 0
LayerCount: 2
Fore
SplineSet
555 46 m 1
 497 11 434 -13 358 -13 c 16
 201 -13 50 101 98 373 c 0
 145 638 326 751 464 751 c 0
 556 751 633 701 658 614 c 0
 675 555 666 497 656 442 c 0
 612 192 l 1
 509 192 l 1
 513 216 l 1
 479 194 442 182 404 182 c 0
 310 182 248 258 265 352 c 0
 277 422 332 491 417 523 c 0
 472 543 521 543 566 543 c 0
 567 543 l 1
 570 608 520 656 445 656 c 0
 354 656 232 574 197 376 c 0
 159 163 276 85 382 85 c 0
 409 85 451 85 523 131 c 1
 555 46 l 1
555 453 m 1
 551 453 l 0
 509 453 462 452 423 428 c 0
 391 408 374 380 370 355 c 0
 363 313 391 279 435 279 c 0
 463 279 495 294 516 324 c 1
 535 352 544 389 551 431 c 8
 551 434 552 435 552 438 c 17
 555 453 l 1
EndSplineSet
EndChar

StartChar: bar
Encoding: 124 124 88
Width: 613
Flags: W
TeX: 100 0
LayerCount: 2
Fore
SplineSet
388 774 m 1
 499 774 l 1
 325 -210 l 1
 215 -210 l 1
 388 774 l 1
EndSplineSet
EndChar

StartChar: asciitilde
Encoding: 126 126 89
Width: 613
Flags: W
TeX: 99 0
LayerCount: 2
Fore
SplineSet
194 399 m 1
 119 455 l 1
 120 457 193 551 320 551 c 0
 428 551 453 493 506 493 c 0
 534 493 582 510 614 545 c 1
 685 512 l 1
 671 493 584 384 478 384 c 0
 370 384 353 448 296 448 c 0
 290 448 231 447 194 399 c 1
EndSplineSet
EndChar

StartChar: asciicircum
Encoding: 94 94 90
Width: 613
Flags: W
TeX: 99 0
LayerCount: 2
Fore
SplineSet
177 444 m 1
 423 739 l 1
 467 739 l 1
 588 445 l 1
 489 402 l 1
 415 599 l 1
 257 402 l 1
 177 444 l 1
EndSplineSet
EndChar

StartChar: cent
Encoding: 162 162 91
Width: 613
Flags: W
TeX: 101 0
LayerCount: 2
Fore
SplineSet
466 742 m 1
 571 731 l 1
 570 707 564 700 560 695 c 0
 557 691 556 688 554 684 c 2
 528 603 l 1
 579 589 632 558 654 502 c 1
 571 418 l 1
 555 429 550 435 552 449 c 0
 553 454 554 455 553 458 c 16
 544 471 524 490 497 502 c 1
 382 138 l 1
 382 138 l 1
 437 145 481 160 535 209 c 1
 583 130 l 1
 513 70 434 35 354 34 c 0
 353 34 351 34 350 34 c 1
 310 -95 l 1
 213 -83 l 1
 254 49 l 1
 144 86 86 191 109 324 c 0
 137 481 265 598 426 611 c 1
 466 742 l 1
286 151 m 1
 397 521 l 1
 315 508 245 443 226 334 c 0
 210 245 236 182 286 151 c 1
EndSplineSet
EndChar

StartChar: euro
Encoding: 8364 8364 92
Width: 613
Flags: W
TeX: 80 0
LayerCount: 2
Fore
SplineSet
697 669 m 1
 637 559 l 1
 615 581 627 585 615 599 c 0
 613 602 580 646 510 646 c 0
 445 646 360 614 309 510 c 0
 309 509 307 508 307 507 c 1
 603 507 l 1
 549 408 l 1
 275 408 l 1
 271 391 267 373 263 353 c 0
 262 350 261 345 261 343 c 1
 513 343 l 1
 457 244 l 1
 255 244 l 1
 258 208 266 180 282 156 c 0
 313 108 363 89 414 89 c 0
 484 89 526 122 555 146 c 1
 589 59 l 1
 545 28 487 -13 391 -13 c 0
 291 -13 149 40 148 244 c 1
 73 244 l 1
 112 343 l 1
 157 343 l 1
 157 345 158 346 158 347 c 0
 162 367 166 388 171 408 c 1
 102 408 l 1
 141 507 l 1
 202 507 l 1
 218 544 237 578 261 609 c 0
 344 714 454 745 532 745 c 0
 563 745 634 745 697 669 c 1
EndSplineSet
EndChar

StartChar: sterling
Encoding: 163 163 93
Width: 613
Flags: W
TeX: 118 0
LayerCount: 2
Fore
SplineSet
644 665 m 1
 558 577 l 1
 526 608 545 599 534 612 c 0
 532 615 507 641 463 641 c 0
 408 641 345 604 330 520 c 0
 327 502 326 483 327 464 c 1
 448 464 l 1
 431 366 l 1
 333 366 l 1
 334 334 334 305 328 271 c 0
 320 223 300 177 273 137 c 1
 276 137 275 137 277 137 c 0
 363 137 405 91 465 91 c 0
 512 91 541 115 564 133 c 1
 596 43 l 1
 567 23 509 -18 442 -18 c 0
 358 -18 318 35 239 35 c 0
 206 35 148 21 77 -15 c 1
 50 78 l 1
 120 106 137 115 156 136 c 0
 188 173 208 218 217 267 c 0
 223 300 224 335 221 366 c 1
 140 366 l 1
 157 464 l 1
 215 464 l 1
 215 483 216 501 220 521 c 0
 244 655 364 739 482 739 c 0
 515 739 576 739 644 665 c 1
EndSplineSet
EndChar

StartChar: Y
Encoding: 89 89 94
Width: 613
Flags: W
TeX: 91 0
LayerCount: 2
Fore
SplineSet
149 740 m 1
 278 740 l 1
 390 401 l 1
 603 739 l 1
 726 739 l 1
 428 292 l 1
 377 0 l 1
 256 0 l 1
 307 291 l 1
 149 740 l 1
EndSplineSet
EndChar

StartChar: yen
Encoding: 165 165 95
Width: 613
Flags: W
TeX: 124 0
LayerCount: 2
Fore
SplineSet
157 740 m 1
 284 740 l 1
 396 448 l 1
 596 739 l 1
 719 739 l 1
 433 346 l 1
 432 341 l 1
 591 341 l 1
 574 243 l 1
 415 243 l 1
 407 199 l 1
 566 199 l 1
 549 101 l 1
 390 101 l 1
 372 0 l 1
 260 0 l 1
 278 101 l 1
 112 101 l 1
 129 199 l 1
 295 199 l 1
 303 243 l 1
 137 243 l 1
 154 341 l 1
 320 341 l 1
 321 346 l 1
 157 740 l 1
EndSplineSet
EndChar

StartChar: Z
Encoding: 90 90 96
Width: 613
Flags: W
TeX: 92 0
LayerCount: 2
Fore
SplineSet
199 739 m 1
 686 739 l 1
 672 665 l 1
 219 103 l 1
 541 103 l 0
 549 103 556 111 575 111 c 8
 582 111 587 111 594 111 c 17
 574 -1 l 1
 54 -1 l 1
 67 73 l 1
 527 634 l 1
 181 634 l 1
 199 739 l 1
EndSplineSet
EndChar

StartChar: Q
Encoding: 81 81 97
Width: 613
Flags: W
TeX: 83 0
LayerCount: 2
Fore
SplineSet
420 641 m 0
 351 641 243 583 208 382 c 0
 169 163 255 96 329 96 c 0
 382 96 497 130 537 357 c 0
 547 416 555 482 541 539 c 1
 521 616 466 641 420 641 c 0
650 367 m 0
 639 303 618 213 563 134 c 0
 509 56 436 11 366 -5 c 1
 363 -39 369 -67 426 -67 c 0
 461 -67 487 -60 539 -60 c 1
 517 -172 l 1
 517 -172 493 -172 478 -172 c 24
 461 -172 452 -172 435 -172 c 16
 387 -172 348 -170 315 -152 c 1
 265 -125 253 -74 261 -14 c 0
 262 -11 261 -9 262 -6 c 1
 152 17 51 123 95 371 c 0
 145 657 323 748 443 748 c 0
 530 748 612 701 646 604 c 1
 673 525 662 435 650 367 c 0
EndSplineSet
EndChar

StartChar: thorn
Encoding: 254 254 98
Width: 613
Flags: W
TeX: 119 0
LayerCount: 2
Fore
SplineSet
206 788 m 1
 330 788 l 1
 329 780 l 2
 324 750 317 762 312 734 c 2
 269 488 l 1
 319 531 378 554 437 554 c 0
 553 554 656 465 623 277 c 0
 589 82 450 -14 330 -14 c 0
 274 -14 223 8 192 45 c 1
 149 -198 l 1
 32 -198 l 1
 206 788 l 1
388 451 m 0
 338 451 290 426 264 386 c 0
 249 364 242 336 235 294 c 0
 222 221 216 182 224 152 c 1
 235 113 277 92 323 92 c 0
 369 92 475 112 501 260 c 0
 532 434 429 451 388 451 c 0
EndSplineSet
EndChar

StartChar: plusminus
Encoding: 177 177 100
Width: 613
Flags: W
TeX: 115 0
LayerCount: 2
Fore
SplineSet
69 111 m 1
 588 111 l 1
 569 5 l 1
 50 5 l 1
 69 111 l 1
EndSplineSet
Refer: 28 43 N 1 0 0 1 11 61 2
EndChar

StartChar: R
Encoding: 82 82 101
Width: 613
Flags: W
TeX: 84 0
LayerCount: 2
Fore
SplineSet
191 739 m 1
 425 739 l 0
 473 739 523 739 569 714 c 0
 637 678 662 606 649 530 c 0
 632 436 560 354 469 323 c 1
 586 0 l 1
 458 0 l 1
 350 311 l 1
 231 311 l 1
 176 0 l 1
 61 0 l 1
 191 739 l 1
287 631 m 1
 249 415 l 1
 377 415 l 0
 406 415 431 415 458 427 c 0
 498 444 525 481 532 520 c 0
 539 560 525 598 488 617 c 0
 463 629 437 631 406 631 c 0
 287 631 l 1
EndSplineSet
EndChar

StartChar: X
Encoding: 88 88 102
Width: 613
Flags: W
TeX: 90 0
LayerCount: 2
Fore
SplineSet
581 740 m 1
 698 740 l 1
 440 379 l 1
 591 0 l 1
 463 0 l 1
 357 277 l 1
 159 0 l 1
 33 0 l 1
 309 377 l 1
 167 740 l 1
 291 740 l 1
 391 476 l 1
 581 740 l 1
EndSplineSet
EndChar

StartChar: six
Encoding: 54 54 103
Width: 613
Flags: W
TeX: 118 0
LayerCount: 2
Fore
SplineSet
483 748 m 0
 511 748 583 748 651 665 c 1
 560 581 l 1
 545 593 545 606 536 617 c 0
 534 620 508 643 464 643 c 0
 421 643 317 623 267 436 c 1
 309 472 363 493 416 493 c 0
 530 493 618 399 590 243 c 0
 563 88 441 -12 319 -12 c 0
 248 -12 183 22 149 89 c 0
 112 162 120 254 135 338 c 0
 147 407 166 491 206 562 c 0
 277 691 388 748 483 748 c 0
390 389 m 0
 344 389 286 357 245 305 c 1
 243 297 241 291 240 283 c 0
 220 169 269 92 340 92 c 0
 393 92 459 135 477 238 c 0
 497 353 440 389 390 389 c 0
EndSplineSet
Substitution2: "Old style numerals-1" six.oldstyle
EndChar

StartChar: nine
Encoding: 57 57 104
Width: 613
Flags: W
TeX: 113 0
LayerCount: 2
Fore
SplineSet
266 -12 m 0
 171 -12 128 35 95 70 c 1
 186 154 l 1
 198 145 203 125 212 118 c 0
 215 115 242 94 287 94 c 0
 335 94 394 116 434 178 c 1
 442 192 463 228 483 305 c 1
 440 271 390 253 339 253 c 0
 222 253 137 349 163 494 c 0
 189 640 309 746 435 746 c 0
 518 746 600 697 621 582 c 1
 630 532 628 468 612 378 c 0
 591 260 560 197 541 163 c 1
 473 44 363 -12 266 -12 c 0
365 356 m 0
 411 356 465 385 503 432 c 1
 506 444 508 452 510 461 c 0
 531 578 479 642 414 642 c 0
 357 642 292 594 275 497 c 0
 258 399 309 356 365 356 c 0
EndSplineSet
Substitution2: "Old style numerals-1" nine.oldstyle
EndChar

StartChar: seven
Encoding: 55 55 105
Width: 613
Flags: W
TeX: 118 0
LayerCount: 2
Fore
SplineSet
218 739 m 1
 668 739 l 1
 657 677 l 9
 579 546 530 474 456 342 c 24
 382 210 346 133 276 0 c 17
 150 0 l 9
 235 155 278 244 368 397 c 16
 414 475 461 554 508 630 c 1
 199 630 l 1
 218 739 l 1
EndSplineSet
Substitution2: "Old style numerals-1" seven.oldstyle
EndChar

StartChar: W
Encoding: 87 87 106
Width: 613
Flags: W
TeX: 89 0
LayerCount: 2
Fore
SplineSet
143 739 m 1
 251 739 l 1
 244 298 l 1
 415 685 l 1
 465 685 l 1
 500 300 l 1
 636 739 l 1
 737 739 l 1
 484 -5 l 1
 426 -5 l 1
 389 438 l 1
 194 -5 l 1
 135 -5 l 1
 143 739 l 1
EndSplineSet
EndChar

StartChar: acute
Encoding: 180 180 107
Width: 613
Flags: W
TeX: 80 0
LayerCount: 2
Fore
SplineSet
498 836 m 1
 588 768 l 1
 418 584 l 1
 343 635 l 1
 498 836 l 1
EndSplineSet
EndChar

StartChar: oslash
Encoding: 248 248 123
Width: 613
Flags: W
TeX: 114 0
LayerCount: 2
Fore
SplineSet
389 451 m 0
 316 451 232 386 210 259 c 0
 202 214 205 176 214 147 c 1
 427 444 l 1
 414 449 403 451 389 451 c 0
619 269 m 0
 588 91 448 -14 310 -14 c 0
 274 -14 238 -6 210 7 c 1
 147 -81 l 1
 66 -35 l 1
 138 60 l 1
 95 111 75 182 90 266 c 0
 119 432 265 554 413 554 c 0
 442 554 471 548 496 538 c 1
 554 621 l 1
 637 573 l 1
 573 487 l 1
 616 438 636 365 619 269 c 0
498 405 m 1
 279 102 l 1
 296 94 311 90 329 90 c 0
 398 90 481 150 504 280 c 0
 513 333 509 374 498 405 c 1
EndSplineSet
EndChar

StartChar: gravemodifier
Encoding: 715 715 130
Width: 613
Flags: W
TeX: 80 0
LayerCount: 2
Fore
SplineSet
451 836 m 1
 537 635 l 1
 443 584 l 1
 337 768 l 1
 451 836 l 1
EndSplineSet
EndChar

StartChar: dotlessi
Encoding: 305 305 136
Width: 613
Flags: W
TeX: 80 0
LayerCount: 2
Fore
SplineSet
201 442 m 1
 219 543 l 1
 467 543 l 1
 397 172 l 2
 390 137 384 105 418 105 c 0
 452 105 478 111 514 113 c 1
 492 0 l 9
 481 0 475 0 464 0 c 24
 448 0 440 0 424 0 c 16
 395 0 355 0 323 17 c 0
 287 36 263 77 280 165 c 0
 280 167 281 168 281 170 c 2
 332 442 l 1
 201 442 l 1
EndSplineSet
EndChar

StartChar: circumflex
Encoding: 710 710 137
Width: 613
Flags: W
TeX: 80 0
LayerCount: 2
Fore
SplineSet
259 629 m 1
 437 813 l 1
 477 813 l 1
 591 627 l 1
 499 567 l 1
 431 686 l 1
 316 567 l 1
 259 629 l 1
EndSplineSet
EndChar

StartChar: tilde
Encoding: 732 732 138
Width: 613
Flags: W
TeX: 80 0
LayerCount: 2
Fore
SplineSet
290 655 m 1
 222 711 l 1
 246 740 315 802 393 802 c 0
 449 802 480 776 493 766 c 0
 511 753 523 744 537 744 c 0
 560 744 591 762 612 785 c 1
 670 745 l 1
 616 690 573 645 516 645 c 0
 434 645 409 704 373 704 c 0
 355 704 319 691 290 655 c 1
EndSplineSet
EndChar

StartChar: dieresis
Encoding: 168 168 139
Width: 613
Flags: W
TeX: 80 0
LayerCount: 2
Fore
SplineSet
394 712 m 0
 387 670 345 636 303 636 c 0
 261 636 234 670 241 712 c 0
 248 754 288 788 330 788 c 0
 372 788 401 754 394 712 c 0
625 712 m 0
 618 670 577 636 535 636 c 0
 493 636 466 670 473 712 c 0
 480 754 520 789 562 789 c 0
 604 789 632 754 625 712 c 0
EndSplineSet
EndChar

StartChar: germandbls
Encoding: 223 223 144
Width: 613
Flags: W
TeX: 105 0
LayerCount: 2
Fore
SplineSet
60 0 m 1
 147 494 l 0
 156 546 167 600 203 656 c 0
 258 744 347 794 434 794 c 0
 561 794 647 691 625 569 c 0
 614 509 576 456 523 422 c 1
 596 385 631 307 615 218 c 0
 592 88 471 -12 341 -12 c 0
 273 -12 241 10 205 35 c 1
 281 129 l 1
 311 105 324 94 359 94 c 0
 425 94 493 149 506 222 c 0
 515 275 493 321 457 345 c 0
 430 363 403 366 365 366 c 0
 314 366 l 1
 330 458 l 1
 379 458 l 0
 397 458 410 458 428 465 c 0
 469 481 506 525 514 572 c 0
 526 642 482 694 421 694 c 0
 387 694 348 678 317 642 c 0
 280 600 268 545 259 495 c 0
 172 0 l 1
 60 0 l 1
EndSplineSet
EndChar

StartChar: paragraph
Encoding: 182 182 145
Width: 613
Flags: W
TeX: 115 0
LayerCount: 2
Fore
SplineSet
692 790 m 1
 539 -81 l 1
 440 -81 l 1
 576 691 l 1
 496 691 l 1
 360 -81 l 1
 258 -81 l 1
 337 367 l 1
 218 381 143 472 162 580 c 0
 175 656 236 728 326 763 c 0
 392 789 453 790 508 790 c 0
 692 790 l 1
EndSplineSet
EndChar

StartChar: section
Encoding: 167 167 146
Width: 613
Flags: W
TeX: 118 0
LayerCount: 2
Fore
SplineSet
638 674 m 1
 539 598 l 1
 518 611 523 625 521 637 c 0
 517 659 494 696 439 696 c 0
 383 696 340 661 333 623 c 0
 330 605 332 576 375 552 c 0
 403 536 447 526 493 503 c 0
 572 463 593 409 585 361 c 0
 577 313 538 273 491 248 c 1
 528 212 539 164 531 118 c 0
 514 20 409 -65 282 -65 c 0
 204 -65 133 -38 76 53 c 1
 170 143 l 1
 182 138 190 126 193 110 c 16
 195 102 222 45 301 45 c 0
 367 45 408 83 415 120 c 0
 419 141 412 167 380 188 c 0
 339 213 274 218 217 254 c 0
 167 286 147 332 155 377 c 0
 164 428 206 471 257 495 c 1
 218 531 207 577 215 620 c 0
 232 716 338 797 456 797 c 0
 489 797 586 797 638 674 c 1
324 456 m 1
 299 446 281 425 276 399 c 0
 272 378 277 347 318 325 c 0
 346 310 385 304 424 288 c 1
 444 300 458 319 462 342 c 0
 466 364 462 396 416 421 c 0
 391 434 358 442 324 456 c 1
EndSplineSet
EndChar

StartChar: copyright
Encoding: 169 169 147
Width: 613
Flags: W
TeX: 101 0
LayerCount: 2
Fore
SplineSet
412 518 m 0
 513 518 551 451 555 384 c 1
 465 351 l 1
 450 371 458 376 457 390 c 0
 457 394 449 428 399 428 c 0
 349 428 298 399 287 335 c 0
 276 270 312 222 364 222 c 0
 415 222 441 258 458 282 c 1
 528 230 l 1
 491 184 429 129 343 129 c 0
 237 129 170 220 189 327 c 0
 208 437 308 518 412 518 c 0
313 -8 m 0
 147 -8 35 133 66 310 c 0
 97 488 259 629 425 629 c 0
 591 629 702 488 671 311 c 0
 640 133 479 -8 313 -8 c 0
151 310 m 0
 127 176 209 74 328 74 c 0
 446 74 566 176 590 311 c 0
 614 445 531 548 413 548 c 0
 295 548 175 445 151 310 c 0
EndSplineSet
EndChar

StartChar: registered
Encoding: 174 174 148
Width: 613
Flags: W
TeX: 117 0
LayerCount: 2
Fore
SplineSet
313 -8 m 0
 147 -8 35 133 66 310 c 0
 97 488 259 629 425 629 c 0
 591 629 702 488 671 311 c 0
 640 133 479 -8 313 -8 c 0
151 310 m 0
 127 176 209 74 328 74 c 0
 446 74 566 176 590 311 c 0
 614 445 531 548 413 548 c 0
 295 548 175 445 151 310 c 0
204 142 m 1
 268 504 l 1
 395 504 l 2
 419 504 452 504 481 491 c 0
 523 471 540 430 533 388 c 0
 525 345 493 307 453 289 c 1
 499 151 l 1
 417 139 l 1
 368 289 l 1
 315 289 l 1
 289 142 l 1
 204 142 l 1
342 440 m 1
 329 367 l 1
 375 367 l 2
 392 367 409 367 430 377 c 16
 442 383 449 392 451 403 c 0
 453 413 450 424 437 432 c 0
 424 440 405 440 385 440 c 2
 342 440 l 1
EndSplineSet
EndChar

StartChar: onesuperior
Encoding: 185 185 149
Width: 613
Flags: W
TeX: 120 0
LayerCount: 2
Fore
SplineSet
512 751 m 1
 433 300 l 1
 326 300 l 1
 385 637 l 1
 273 609 l 1
 252 670 l 1
 441 751 l 1
 512 751 l 1
EndSplineSet
EndChar

StartChar: guilsinglleft
Encoding: 8249 8249 150
Width: 613
Flags: W
TeX: 80 0
LayerCount: 2
Fore
SplineSet
221 307 m 1
 449 486 l 1
 503 415 l 1
 337 285 l 1
 461 130 l 1
 380 61 l 1
 214 266 l 1
 221 307 l 1
EndSplineSet
EndChar

StartChar: guilsinglright
Encoding: 8250 8250 152
Width: 613
Flags: W
TeX: 80 0
LayerCount: 2
Fore
SplineSet
486 307 m 1
 479 266 l 1
 241 61 l 1
 184 130 l 1
 362 285 l 1
 242 415 l 1
 322 486 l 1
 486 307 l 1
EndSplineSet
EndChar

StartChar: guillemotright
Encoding: 187 187 153
Width: 613
Flags: W
TeX: 105 0
LayerCount: 2
Fore
SplineSet
394 307 m 1
 387 266 l 1
 148 61 l 1
 92 130 l 1
 271 285 l 1
 150 415 l 1
 230 486 l 1
 394 307 l 1
609 307 m 1
 602 266 l 1
 363 61 l 1
 307 130 l 1
 486 285 l 1
 365 415 l 1
 445 486 l 1
 609 307 l 1
EndSplineSet
EndChar

StartChar: logicalnot
Encoding: 172 172 154
Width: 613
Flags: W
TeX: 111 0
LayerCount: 2
Fore
SplineSet
178 427 m 1
 592 427 l 1
 547 171 l 1
 441 171 l 1
 468 322 l 1
 160 322 l 1
 178 427 l 1
EndSplineSet
EndChar

StartChar: degree
Encoding: 176 176 156
Width: 613
Flags: W
TeX: 102 0
LayerCount: 2
Fore
SplineSet
447 758 m 0
 544 758 610 686 595 598 c 0
 580 510 488 439 391 439 c 0
 294 439 229 511 244 599 c 0
 259 687 350 758 447 758 c 0
494 600 m 0
 501 637 471 665 432 665 c 0
 393 665 354 637 347 600 c 0
 340 563 370 535 409 535 c 0
 448 535 487 563 494 600 c 0
EndSplineSet
EndChar

StartChar: twosuperior
Encoding: 178 178 157
Width: 613
Flags: W
TeX: 120 0
LayerCount: 2
Fore
SplineSet
234 637 m 1
 271 688 340 756 450 756 c 0
 551 756 613 698 600 625 c 0
 590 569 540 531 521 517 c 0
 471 477 413 449 347 395 c 1
 527 395 l 2
 528 395 528 395 529 396 c 0
 538 404 549 410 572 401 c 1
 554 300 l 1
 191 300 l 1
 204 373 l 1
 264 441 368 501 428 540 c 0
 466 565 492 588 496 613 c 0
 500 638 481 664 431 664 c 0
 391 664 352 643 330 620 c 8
 318 607 319 600 306 583 c 1
 234 637 l 1
EndSplineSet
EndChar

StartChar: eth
Encoding: 240 240 158
Width: 613
Flags: W
TeX: 103 0
LayerCount: 2
Fore
SplineSet
393 451 m 0
 322 451 234 397 212 275 c 0
 190 153 254 90 329 90 c 0
 387 90 477 129 503 275 c 0
 529 420 447 451 393 451 c 0
564 653 m 1
 618 572 653 458 625 301 c 0
 614 239 593 164 541 99 c 0
 482 25 396 -14 312 -14 c 0
 166 -14 61 103 90 265 c 0
 118 426 261 554 403 554 c 0
 439 554 473 545 500 528 c 1
 487 563 471 594 451 622 c 1
 287 578 l 1
 270 664 l 1
 385 694 l 1
 354 720 311 747 260 768 c 1
 415 799 l 1
 470 762 489 744 507 725 c 1
 646 762 l 1
 664 680 l 1
 564 653 l 1
EndSplineSet
EndChar

StartChar: Eth
Encoding: 208 208 159
Width: 613
Flags: W
TeX: 71 0
LayerCount: 2
Fore
SplineSet
218 739 m 1
 399 739 l 2
 464 739 519 733 567 694 c 1
 650 627 667 497 645 374 c 0
 618 220 532 77 400 22 c 0
 351 2 308 -1 255 -1 c 2
 88 -1 l 1
 148 342 l 1
 91 342 l 1
 109 441 l 1
 166 441 l 1
 218 739 l 1
256 342 m 1
 213 98 l 1
 268 98 l 2
 310 98 346 100 388 125 c 0
 459 167 513 256 532 364 c 0
 546 441 542 524 510 578 c 0
 475 638 423 639 377 639 c 2
 309 639 l 1
 274 441 l 1
 397 441 l 1
 379 342 l 1
 256 342 l 1
EndSplineSet
EndChar

StartChar: Thorn
Encoding: 222 222 160
Width: 613
Flags: W
TeX: 86 0
LayerCount: 2
Fore
SplineSet
195 739 m 1
 314 739 l 1
 316 733 317 727 316 719 c 4
 314 706 304 699 303 697 c 0
 301 695 302 696 301 692 c 0
 286 604 l 1
 412 604 l 0
 460 604 508 602 554 577 c 0
 623 539 648 463 634 386 c 0
 620 308 570 234 489 197 c 0
 436 173 387 172 341 172 c 0
 209 172 l 1
 179 0 l 1
 65 0 l 1
 195 739 l 1
268 507 m 1
 227 275 l 1
 362 275 l 0
 391 275 417 276 444 289 c 0
 484 308 512 346 519 388 c 0
 527 431 512 473 476 493 c 0
 451 506 425 507 394 507 c 0
 268 507 l 1
EndSplineSet
EndChar

StartChar: ring
Encoding: 730 730 161
Width: 613
Flags: W
TeX: 80 0
LayerCount: 2
Fore
SplineSet
555 715 m 0
 545 656 485 607 421 607 c 0
 357 607 316 656 326 715 c 0
 336 774 395 822 459 822 c 0
 523 822 565 774 555 715 c 0
398 716 m 0
 393 690 410 671 433 671 c 0
 456 671 479 690 484 716 c 0
 489 742 472 761 449 761 c 0
 426 761 403 742 398 716 c 0
EndSplineSet
EndChar

StartChar: circumflex.cap
Encoding: 65536 -1 190
Width: 613
Flags: W
TeX: 80 0
LayerCount: 2
Fore
SplineSet
240 662 m 1
 436 793 l 1
 472 793 l 1
 612 664 l 1
 542 596 l 1
 431 682 l 1
 282 600 l 1
 240 662 l 1
EndSplineSet
EndChar

StartChar: ae
Encoding: 230 230 192
Width: 613
Flags: W
TeX: 99 0
LayerCount: 2
Fore
SplineSet
33 154 m 0
 45 217 93 282 179 315 c 0
 229 334 274 338 303 338 c 2
 318 338 l 1
 321 355 l 2
 325 375 327 393 324 408 c 0
 318 439 294 457 264 457 c 0
 218 457 186 420 164 395 c 1
 114 475 l 1
 149 515 211 554 282 554 c 0
 335 554 379 531 403 494 c 1
 441 532 490 554 541 554 c 0
 636 554 687 479 670 387 c 0
 659 328 644 290 568 269 c 0
 517 255 450 253 421 253 c 2
 404 253 l 1
 397 212 l 2
 392 185 389 166 395 145 c 0
 405 108 438 87 478 87 c 0
 526 87 551 114 574 139 c 1
 626 64 l 1
 588 27 528 -13 459 -13 c 0
 402 -13 352 12 322 56 c 1
 283 12 231 -13 176 -13 c 0
 73 -13 17 69 33 154 c 0
140 149 m 0
 134 119 149 75 197 75 c 0
 224 75 255 90 272 122 c 0
 280 137 284 154 288 176 c 8
 290 186 291 192 293 202 c 18
 300 244 l 1
 293 244 l 2
 262 244 234 242 204 228 c 0
 167 211 145 178 140 149 c 0
422 347 m 1
 429 347 l 2
 511 347 515 351 535 357 c 0
 549 361 574 378 577 392 c 0
 583 423 566 466 520 466 c 0
 493 466 462 451 445 419 c 0
 436 403 430 386 426 365 c 0
 425 359 423 352 422 347 c 1
EndSplineSet
EndChar

StartChar: oe
Encoding: 339 339 193
Width: 613
Flags: W
TeX: 114 0
LayerCount: 2
Fore
SplineSet
50 88 m 0
 30 149 41 223 52 283 c 0
 62 335 77 399 119 454 c 0
 168 520 237 553 299 553 c 0
 341 553 379 536 403 506 c 1
 440 536 485 553 530 553 c 0
 591 553 655 521 670 443 c 0
 673 425 673 398 670 384 c 0
 657 324 635 286 580 267 c 0
 530 250 481 247 451 247 c 0
 381 247 l 1
 370 183 368 156 375 134 c 1
 385 96 417 80 457 80 c 0
 515 80 547 107 576 132 c 1
 626 58 l 1
 573 14 513 -14 443 -14 c 0
 395 -14 350 2 316 30 c 1
 279 3 233 -13 190 -13 c 0
 138 -13 75 12 50 88 c 0
148 158 m 0
 156 104 186 90 213 90 c 0
 239 90 264 104 267 121 c 0
 269 130 264 186 282 282 c 0
 298 364 317 407 319 420 c 0
 323 438 311 451 286 451 c 0
 259 451 223 433 196 394 c 0
 171 359 162 319 156 288 c 0
 149 252 142 198 148 158 c 0
399 331 m 1
 471 334 509 335 526 340 c 0
 539 344 570 367 572 380 c 0
 579 409 556 458 509 458 c 0
 483 458 447 445 423 402 c 1
 419 395 410 376 401 340 c 0
 400 337 400 334 399 331 c 1
EndSplineSet
EndChar

StartChar: acute.cap
Encoding: 65538 -1 194
Width: 613
Flags: W
TeX: 80 0
LayerCount: 2
Fore
SplineSet
544 803 m 1
 593 722 l 1
 349 639 l 1
 320 712 l 1
 544 803 l 1
EndSplineSet
EndChar

StartChar: grave.cap
Encoding: 65539 -1 195
Width: 613
Flags: W
TeX: 80 0
LayerCount: 2
Fore
SplineSet
392 803 m 1
 584 712 l 1
 530 639 l 1
 314 722 l 1
 392 803 l 1
EndSplineSet
EndChar

StartChar: ordfeminine
Encoding: 170 170 196
Width: 613
Flags: W
TeX: 114 0
LayerCount: 2
Fore
SplineSet
131 260 m 1
 576 260 l 1
 559 165 l 1
 114 165 l 1
 131 260 l 1
199 432 m 0
 236 634 385 738 467 738 c 0
 547 738 565 728 580 715 c 0
 591 706 591 706 621 698 c 1
 613 681 l 2
 610 672 602 648 599 632 c 2
 563 435 l 2
 553 382 563 338 591 300 c 1
 464 294 l 1
 460 315 459 327 458 341 c 0
 457 356 457 365 458 385 c 1
 406 298 366 289 309 289 c 0
 258 289 176 308 199 432 c 0
298 438 m 0
 291 400 312 381 324 381 c 0
 349 381 428 439 466 517 c 0
 476 537 487 567 500 623 c 2
 506 648 l 1
 501 651 491 655 471 655 c 0
 437 655 324 573 298 438 c 0
EndSplineSet
EndChar

StartChar: ordmasculine
Encoding: 186 186 197
Width: 613
Flags: W
TeX: 114 0
LayerCount: 2
Fore
SplineSet
439 738 m 0
 534 738 614 663 589 519 c 0
 562 364 449 289 353 289 c 0
 249 289 174 373 197 505 c 0
 221 643 330 738 439 738 c 0
301 511 m 0
 285 423 330 388 372 388 c 0
 413 388 469 420 485 511 c 0
 501 602 459 641 416 641 c 0
 373 641 317 603 301 511 c 0
131 260 m 1
 576 260 l 1
 559 165 l 1
 114 165 l 1
 131 260 l 1
EndSplineSet
EndChar

StartChar: macronmodifier
Encoding: 713 713 198
Width: 613
Flags: W
TeX: 80 0
LayerCount: 2
Fore
SplineSet
271 737 m 1
 603 737 l 1
 586 640 l 1
 254 640 l 1
 271 737 l 1
EndSplineSet
EndChar

StartChar: cedilla
Encoding: 184 184 201
Width: 613
Flags: W
TeX: 80 0
LayerCount: 2
Fore
SplineSet
315 0 m 1
 379 0 l 1
 362 -54 l 1
 375 -54 l 2
 390 -54 407 -56 423 -63 c 0
 446 -74 455 -97 451 -121 c 0
 443 -165 389 -210 300 -210 c 0
 247 -210 198 -194 160 -161 c 1
 207 -101 l 1
 228 -126 274 -146 318 -146 c 0
 362 -146 368 -134 369 -130 c 0
 370 -126 367 -122 361 -119 c 0
 352 -114 335 -114 322 -114 c 0
 280 -114 l 1
 315 0 l 1
EndSplineSet
EndChar

StartChar: threesuperior
Encoding: 179 179 204
Width: 613
Flags: W
TeX: 120 0
LayerCount: 2
Fore
SplineSet
449 757 m 0
 544 757 611 702 599 633 c 0
 593 601 570 573 541 555 c 1
 577 534 594 495 586 450 c 0
 570 360 464 298 365 298 c 0
 290 298 238 328 192 390 c 1
 282 474 l 1
 308 442 295 438 302 430 c 0
 306 425 333 395 383 395 c 0
 437 395 479 427 484 457 c 0
 486 470 487 507 403 507 c 0
 386 507 371 505 352 503 c 1
 368 596 l 9
 383 595 392 594 407 594 c 16
 480 594 494 614 496 626 c 0
 499 643 476 664 429 664 c 0
 395 664 356 650 309 600 c 1
 256 667 l 1
 300 712 373 757 449 757 c 0
EndSplineSet
EndChar

StartChar: divide
Encoding: 247 247 205
Width: 613
Flags: W
TeX: 102 0
LayerCount: 2
Fore
SplineSet
154 428 m 1
 612 428 l 1
 593 318 l 1
 135 318 l 1
 154 428 l 1
477 539 m 0
 470 501 434 470 396 470 c 0
 358 470 333 501 340 539 c 0
 347 577 382 607 420 607 c 0
 458 607 484 577 477 539 c 0
415 188 m 0
 408 150 372 120 334 120 c 0
 296 120 271 150 278 188 c 0
 285 226 320 257 358 257 c 0
 396 257 422 226 415 188 c 0
EndSplineSet
EndChar

StartChar: Oslash
Encoding: 216 216 206
Width: 613
Flags: W
TeX: 81 0
LayerCount: 2
Fore
SplineSet
421 639 m 0
 354 639 245 582 207 366 c 0
 194 292 194 234 203 192 c 1
 497 608 l 1
 473 631 447 639 421 639 c 0
650 368 m 0
 639 305 618 214 563 134 c 0
 494 34 396 -11 310 -11 c 0
 268 -11 223 1 184 29 c 1
 107 -80 l 1
 26 -34 l 1
 121 96 l 1
 87 158 73 246 95 370 c 0
 145 656 324 748 443 748 c 0
 488 748 532 735 568 708 c 1
 638 808 l 1
 721 760 l 1
 631 637 l 1
 637 626 641 617 645 606 c 0
 673 526 662 435 650 368 c 0
547 538 m 1
 256 129 l 1
 278 109 304 100 330 100 c 0
 374 100 430 125 474 192 c 0
 513 252 529 325 537 373 c 0
 546 425 555 480 548 531 c 2
 547 538 l 1
EndSplineSet
EndChar

StartChar: multiply
Encoding: 215 215 207
Width: 613
Flags: W
TeX: 112 0
LayerCount: 2
Fore
SplineSet
570 607 m 1
 636 534 l 1
 456 386 l 1
 579 226 l 1
 487 150 l 1
 366 308 l 1
 191 155 l 1
 129 229 l 1
 307 385 l 1
 183 532 l 1
 274 608 l 1
 394 453 l 1
 570 607 l 1
EndSplineSet
EndChar

StartChar: AE
Encoding: 198 198 208
Width: 613
Flags: W
TeX: 67 0
LayerCount: 2
Fore
SplineSet
367 740 m 1
 730 740 l 1
 712 636 l 1
 506 636 l 1
 473 439 l 1
 646 439 l 1
 628 333 l 1
 456 333 l 1
 417 104 l 1
 615 104 l 1
 597 0 l 1
 294 0 l 1
 327 185 l 1
 199 185 l 1
 102 0 l 1
 -6 0 l 1
 367 740 l 1
406 636 m 5
 415 636 l 1
 243 285 l 1
 344 285 l 1
 406 636 l 5
EndSplineSet
EndChar

StartChar: OE
Encoding: 338 338 209
Width: 613
Flags: W
TeX: 81 0
LayerCount: 2
Fore
SplineSet
423 724 m 1
 425 740 l 1
 730 740 l 1
 712 636 l 1
 511 636 l 1
 476 439 l 1
 646 439 l 1
 628 333 l 1
 458 333 l 1
 417 104 l 1
 615 104 l 1
 597 0 l 1
 294 0 l 1
 297 17 l 1
 270 0 241 -8 211 -8 c 0
 145 -8 71 35 59 147 c 0
 58 162 47 236 71 371 c 0
 88 467 111 551 157 626 c 0
 214 718 291 750 345 750 c 0
 375 750 402 740 423 724 c 1
181 384 m 0
 175 352 155 237 173 164 c 0
 188 106 219 95 239 95 c 0
 271 95 304 123 323 167 c 1
 393 563 l 1
 387 603 367 650 328 650 c 0
 303 650 269 629 236 571 c 0
 226 552 202 501 181 384 c 0
EndSplineSet
EndChar

StartChar: currency
Encoding: 164 164 210
Width: 613
Flags: W
TeX: 80 0
LayerCount: 2
Fore
SplineSet
396 498 m 0
 339 498 284 455 275 402 c 0
 266 349 305 306 362 306 c 0
 419 306 474 349 483 402 c 0
 492 455 453 498 396 498 c 0
169 568 m 1
 244 632 l 1
 301 563 l 1
 337 583 374 594 413 594 c 0
 451 594 484 583 512 564 c 1
 591 632 l 1
 644 568 l 1
 566 504 l 1
 581 473 586 438 579 401 c 0
 572 364 554 329 530 300 c 1
 585 235 l 1
 511 173 l 1
 455 239 l 1
 421 220 383 210 345 210 c 0
 305 210 271 222 244 240 c 1
 164 173 l 1
 110 235 l 1
 191 301 l 1
 177 331 173 364 180 401 c 0
 187 438 204 473 227 502 c 1
 169 568 l 1
EndSplineSet
EndChar

StartChar: brokenbar
Encoding: 166 166 211
Width: 613
Flags: W
TeX: 80 0
LayerCount: 2
Fore
SplineSet
388 774 m 1
 498 774 l 1
 418 319 l 1
 308 319 l 1
 388 774 l 1
328 -195 m 5
 218 -195 l 1
 296 248 l 1
 406 248 l 1
 328 -195 l 5
EndSplineSet
EndChar

StartChar: ogonek
Encoding: 731 731 214
Width: 613
Flags: W
TeX: 80 0
LayerCount: 2
Fore
SplineSet
430 0 m 1
 527 0 l 9
 486 -32 459 -47 421 -83 c 16
 411 -92 399 -103 397 -117 c 0
 395 -131 403 -142 421 -142 c 0
 421 -142 439 -141 459 -133 c 0
 473 -127 477 -124 500 -108 c 1
 488 -178 l 5
 470 -194 431 -209 394 -209 c 4
 330 -209 301 -176 308 -135 c 0
 316 -89 372 -43 430 0 c 1
EndSplineSet
EndChar

StartChar: dotaccent
Encoding: 729 729 222
Width: 613
Flags: W
TeX: 80 0
LayerCount: 2
Fore
SplineSet
449 778 m 0
 491 778 519 744 512 702 c 0
 505 660 464 626 422 626 c 0
 380 626 352 660 359 702 c 0
 366 744 407 778 449 778 c 0
EndSplineSet
EndChar

StartChar: breve
Encoding: 728 728 241
Width: 613
Flags: W
LayerCount: 2
Fore
SplineSet
311 778 m 1
 334 732 370 698 430 698 c 0
 473 698 536 725 585 777 c 1
 625 707 l 1
 563 638 473 606 414 606 c 0
 337 606 274 648 234 704 c 1
 311 778 l 1
EndSplineSet
EndChar

StartChar: eng
Encoding: 331 331 242
Width: 613
Flags: W
LayerCount: 2
Fore
SplineSet
73 0 m 1
 143 377 l 2
 161 476 143 511 128 539 c 1
 263 555 l 1
 268 540 274 521 273 471 c 1
 322 518 389 555 456 555 c 0
 524 555 581 518 599 453 c 0
 612 407 602 362 595 322 c 0
 549 72 l 0
 540 25 531 -25 500 -76 c 0
 450 -161 366 -209 285 -209 c 0
 239 -209 192 -192 156 -156 c 1
 224 -56 l 1
 256 -64 241 -72 253 -82 c 0
 259 -87 276 -98 301 -98 c 0
 329 -98 361 -84 387 -53 c 0
 417 -19 426 24 433 64 c 0
 481 322 l 0
 488 359 494 397 475 424 c 0
 463 441 443 450 420 450 c 0
 370 450 312 408 288 384 c 0
 262 358 254 337 248 304 c 0
 191 0 l 1
 73 0 l 1
EndSplineSet
EndChar

StartChar: dcaron
Encoding: 271 271 245
Width: 613
Flags: W
LayerCount: 2
Fore
SplineSet
45 278 m 0
 84 501 316 554 373 554 c 0
 402 554 439 543 459 537 c 1
 503 790 l 1
 625 790 l 1
 622 768 617 759 609 747 c 0
 605 742 606 743 605 738 c 0
 564 518 542 390 501 168 c 16
 477 36 507 0 507 0 c 1
 385 -6 l 1
 385 -6 382 27 382 73 c 1
 333 25 265 -12 203 -12 c 0
 104 -12 7 60 45 278 c 0
161 302 m 0
 133 144 174 94 236 94 c 0
 286 94 344 128 374 188 c 0
 388 215 401 244 408 283 c 2
 438 453 l 1
 418 459 382 470 357 470 c 0
 305 470 181 413 161 302 c 0
EndSplineSet
Refer: 56 8217 N 0.8 0 0 0.8 348 191 2
EndChar

StartChar: eogonek
Encoding: 281 281 246
Width: 613
Flags: W
LayerCount: 2
Fore
SplineSet
99 269 m 4
 135 462 277 555 395 555 c 0
 505 555 540 539 570 513 c 0
 606 482 620 436 612 390 c 0
 600 325 548 290 456 259 c 0
 394 238 327 235 262 234 c 0
 251 234 241 234 230 234 c 2
 212 234 l 1
 189 97 284 87 345 87 c 0
 383 87 463 95 528 155 c 1
 586 86 l 1
 520 19 l 2
 470 -32 428 -69 423 -100 c 0
 419 -124 432 -140 456 -140 c 0
 478 -140 500 -128 528 -113 c 1
 513 -186 l 1
 503 -193 465 -210 425 -210 c 0
 363 -210 328 -167 337 -115 c 0
 342 -88 382 -39 418 -2 c 1
 386 -9 354 -12 326 -12 c 0
 149 -12 69 107 99 269 c 4
228 331 m 1
 245 331 l 2
 258 331 272 330 286 330 c 0
 326 330 368 332 399 338 c 0
 470 353 490 364 495 391 c 0
 500 411 493 459 413 459 c 0
 348 459 256 425 228 331 c 1
EndSplineSet
EndChar

StartChar: dotlessj
Encoding: 567 567 259
Width: 613
Flags: W
LayerCount: 2
Fore
SplineSet
240 543 m 1
 559 543 l 1
 471 47 l 0
 463 2 454 -43 421 -90 c 0
 367 -168 279 -207 197 -207 c 0
 89 -207 47 -145 28 -116 c 1
 117 -20 l 1
 135 -38 131 -44 137 -56 c 0
 139 -60 163 -102 221 -102 c 0
 261 -102 301 -81 326 -43 c 0
 342 -19 347 5 352 32 c 0
 424 441 l 1
 222 441 l 1
 240 543 l 1
EndSplineSet
EndChar

StartChar: kgreenlandic
Encoding: 312 312 260
Width: 613
Flags: W
LayerCount: 2
Fore
SplineSet
71 -1 m 1
 141 376 l 2
 159 475 141 510 126 538 c 1
 261 554 l 1
 266 540 279 490 265 408 c 6
 249 315 l 1
 539 546 l 1
 558 541 566 539 605 539 c 2
 679 539 l 1
 390 318 l 1
 607 -1 l 9
 593 -1 584 -1 570 -1 c 0
 489 -1 467 -9 467 -9 c 1
 291 264 l 1
 225 212 l 1
 188 -1 l 1
 71 -1 l 1
EndSplineSet
EndChar

StartChar: uparrow
Encoding: 8593 8593 266
Width: 613
Flags: W
LayerCount: 2
Fore
SplineSet
142 477 m 1
 429 760 l 1
 469 760 l 1
 638 473 l 1
 543 416 l 1
 463 561 l 1
 357 -40 l 1
 247 -40 l 1
 354 565 l 1
 206 416 l 1
 142 477 l 1
EndSplineSet
EndChar

StartChar: visiblespace
Encoding: 9251 9251 268
Width: 613
Flags: W
LayerCount: 2
Fore
SplineSet
67 83 m 1
 153 83 l 1
 134 -25 l 1
 470 -25 l 1
 489 83 l 1
 577 83 l 1
 543 -109 l 1
 33 -109 l 1
 67 83 l 1
EndSplineSet
EndChar

StartChar: r.serif
Encoding: 65540 -1 269
Width: 613
Flags: W
LayerCount: 2
Fore
SplineSet
168 542 m 1
 362 542 l 1
 348 476 l 1
 397 524 459 554 524 554 c 0
 574 554 620 542 670 483 c 1
 597 373 l 1
 582 390 582 390 568 415 c 0
 559 431 537 450 500 450 c 0
 465 450 420 433 369 381 c 0
 321 332 315 299 310 273 c 0
 279 94 l 1
 393 94 l 1
 376 -1 l 1
 70 -1 l 1
 87 94 l 1
 163 94 l 1
 224 442 l 1
 150 442 l 1
 168 542 l 1
EndSplineSet
EndChar

StartChar: hungarumlaut.cap
Encoding: 65541 -1 270
Width: 613
Flags: W
LayerCount: 2
Fore
SplineSet
681 969 m 5
 738 866 l 1
 521 759 l 1
 473 800 l 1
 681 969 l 5
450 969 m 1
 506 866 l 1
 289 759 l 1
 241 800 l 1
 450 969 l 1
EndSplineSet
EndChar

StartChar: foursuperior
Encoding: 8308 8308 271
Width: 613
Flags: W
LayerCount: 2
Fore
SplineSet
495 761 m 1
 564 761 l 1
 518 501 l 1
 593 501 l 1
 578 414 l 1
 503 414 l 1
 483 299 l 1
 385 299 l 1
 405 415 l 1
 189 415 l 1
 200 477 l 1
 495 761 l 1
442 616 m 1
 329 501 l 1
 421 501 l 1
 442 616 l 1
EndSplineSet
EndChar

StartChar: fraction
Encoding: 8260 8260 274
Width: 613
Flags: W
LayerCount: 2
Fore
SplineSet
78 -11 m 1
 605 795 l 1
 680 749 l 1
 153 -56 l 1
 78 -11 l 1
EndSplineSet
EndChar

StartChar: lslash
Encoding: 322 322 275
Width: 613
Flags: W
LayerCount: 2
Fore
SplineSet
204 280 m 1
 224 387 l 1
 323 418 l 1
 373 689 l 1
 219 689 l 1
 237 788 l 1
 508 788 l 1
 485 662 465 554 447 461 c 1
 504 479 l 2
 521 485 539 496 565 512 c 1
 542 387 l 1
 427 352 l 1
 394 174 l 2
 387 134 382 105 415 105 c 0
 449 105 474 111 511 113 c 1
 489 0 l 9
 477 0 470 0 458 0 c 24
 444 0 435 0 421 0 c 16
 383 0 343 1 315 20 c 0
 270 50 265 105 277 169 c 0
 277 171 278 172 278 174 c 2
 303 310 l 1
 204 280 l 1
EndSplineSet
EndChar

StartChar: Lslash
Encoding: 321 321 276
Width: 613
Flags: W
LayerCount: 2
Fore
SplineSet
212 739 m 1
 337 739 l 9
 337 732 337 726 336 721 c 0
 332 697 322 696 320 686 c 0
 271 411 l 1
 457 466 l 2
 470 469 487 476 512 485 c 1
 493 380 l 1
 254 310 l 1
 217 101 l 1
 573 101 l 1
 555 -1 l 1
 82 -1 l 1
 130 272 l 1
 62 252 l 1
 80 353 l 1
 148 373 l 1
 212 739 l 1
EndSplineSet
EndChar

StartChar: Eng
Encoding: 330 330 277
Width: 613
Flags: W
LayerCount: 2
Fore
SplineSet
55 0 m 1
 185 739 l 1
 303 739 l 1
 292 673 l 1
 347 722 415 753 483 753 c 0
 561 753 626 712 647 640 c 0
 661 591 654 543 646 498 c 2
 596 214 l 2
 589 175 581 133 552 90 c 0
 509 24 436 -12 362 -12 c 0
 307 -12 283 2 243 26 c 1
 317 126 l 1
 336 115 330 111 341 104 c 0
 345 101 362 92 382 92 c 0
 410 92 437 106 455 133 c 0
 470 156 475 185 480 211 c 2
 530 494 l 2
 536 527 542 562 531 592 c 0
 518 628 489 647 449 647 c 0
 393 647 329 603 298 570 c 0
 273 542 264 518 258 482 c 2
 173 0 l 1
 55 0 l 1
EndSplineSet
AlternateSubs2: "Eng variants-1" Eng.var1 Eng.var2
Substitution2: "Sami variant of Eng-1" Eng.var2
EndChar

StartChar: dcroat
Encoding: 273 273 278
Width: 613
Flags: W
LayerCount: 2
Fore
SplineSet
89 278 m 0
 131 501 382 554 438 554 c 0
 474 554 503 545 521 539 c 1
 538 614 l 1
 448 614 l 1
 464 709 l 1
 554 709 l 1
 569 790 l 1
 690 790 l 1
 688 771 687 764 684 760 c 0
 680 754 673 750 671 738 c 0
 669 727 668 720 666 709 c 17
 718 709 l 1
 701 614 l 1
 649 614 l 1
 567 166 l 2
 545 48 572 0 572 0 c 1
 450 -6 l 1
 450 -6 447 26 447 73 c 1
 398 25 331 -12 269 -12 c 0
 158 -12 51 77 89 278 c 0
204 303 m 0
 179 164 227 94 302 94 c 0
 352 94 412 128 442 188 c 0
 455 214 466 243 473 283 c 2
 504 445 l 1
 489 451 456 463 420 463 c 0
 350 462 220 393 204 303 c 0
EndSplineSet
EndChar

StartChar: bullet
Encoding: 8226 8226 287
Width: 613
Flags: W
LayerCount: 2
Fore
SplineSet
492 352 m 0
 481 289 420 238 356 238 c 0
 292 238 249 289 260 352 c 0
 271 415 332 466 396 466 c 0
 460 466 503 415 492 352 c 0
EndSplineSet
EndChar

StartChar: florin
Encoding: 402 402 288
Width: 613
Flags: W
LayerCount: 2
Fore
SplineSet
725 723 m 1
 661 627 l 1
 640 627 629 633 630 648 c 0
 630 655 630 656 630 659 c 0
 624 678 605 701 573 701 c 0
 549 701 518 688 494 650 c 0
 473 617 463 573 453 535 c 2
 434 458 l 1
 579 458 l 1
 562 364 l 1
 409 364 l 1
 323 36 l 2
 310 -15 296 -67 257 -116 c 0
 209 -178 146 -208 91 -208 c 0
 42 -208 15 -191 -15 -152 c 1
 64 -55 l 1
 79 -62 87 -67 91 -82 c 0
 93 -89 103 -97 118 -97 c 0
 132 -97 151 -91 171 -63 c 0
 194 -32 206 9 215 43 c 2
 297 366 l 1
 155 366 l 1
 171 459 l 1
 321 459 l 1
 344 549 l 2
 355 594 368 642 400 690 c 0
 447 760 520 799 588 799 c 0
 614 799 672 799 725 723 c 1
EndSplineSet
EndChar

StartChar: dagger
Encoding: 8224 8224 289
Width: 613
Flags: W
LayerCount: 2
Fore
SplineSet
388 774 m 5
 498 774 l 1
 460 557 l 1
 657 557 l 1
 639 456 l 1
 442 456 l 1
 328 -195 l 1
 218 -195 l 1
 332 456 l 1
 133 456 l 1
 151 557 l 1
 350 557 l 1
 388 774 l 5
EndSplineSet
EndChar

StartChar: daggerdbl
Encoding: 8225 8225 290
Width: 613
Flags: W
LayerCount: 2
Fore
SplineSet
388 774 m 5
 498 774 l 1
 460 557 l 1
 657 557 l 1
 639 456 l 1
 442 456 l 1
 390 159 l 1
 587 159 l 1
 569 57 l 1
 372 57 l 1
 328 -195 l 1
 218 -195 l 1
 262 57 l 1
 63 57 l 1
 81 159 l 1
 280 159 l 1
 332 456 l 1
 133 456 l 1
 151 557 l 1
 350 557 l 1
 388 774 l 5
EndSplineSet
EndChar

StartChar: trademark
Encoding: 8482 8482 291
Width: 613
VWidth: 1046
Flags: W
LayerCount: 2
Fore
SplineSet
442 753 m 1
 428 675 l 1
 321 675 l 1
 269 379 l 1
 185 379 l 1
 237 675 l 1
 135 675 l 1
 149 753 l 1
 442 753 l 1
512 753 m 1
 561 599 l 1
 580 627 578 627 601 659 c 0
 633 705 634 705 667 753 c 9
 731 753 l 1
 665 379 l 1
 585 379 l 1
 622 591 l 1
 605 567 604 567 587 544 c 0
 572 524 572 524 560 506 c 1
 523 508 l 1
 496 586 l 1
 460 379 l 1
 379 379 l 1
 445 753 l 1
 512 753 l 1
EndSplineSet
EndChar

StartChar: zero.noslash
Encoding: 65542 -1 292
Width: 613
Flags: W
LayerCount: 2
Fore
SplineSet
610 366 m 0
 572 148 447 -13 303 -13 c 0
 173 -13 91 123 131 350 c 0
 172 581 293 744 438 744 c 0
 576 744 650 592 610 366 c 0
419 641 m 0
 398 641 360 633 322 576 c 0
 291 528 260 459 243 361 c 0
 231 291 233 217 244 174 c 0
 263 104 301 93 326 93 c 0
 348 93 385 102 423 153 c 0
 464 208 489 296 499 352 c 0
 512 425 512 516 499 565 c 0
 481 631 443 641 419 641 c 0
EndSplineSet
Substitution2: "Old style numerals-1" zero.oldstyle.noslash
EndChar

StartChar: alpha
Encoding: 945 945 294
Width: 613
Flags: W
LayerCount: 2
Fore
SplineSet
353 454 m 0
 282 454 213 421 187 276 c 0
 164 144 227 102 290 102 c 8
 297 102 302 102 309 102 c 20
 352 102 415 103 446 278 c 0
 467 397 439 454 353 454 c 0
606 9 m 1
 470 9 l 1
 470 9 452 45 454 55 c 2
 455 60 l 1
 404 13 323 -5 272 -5 c 0
 206 -5 34 32 75 273 c 9
 76 277 76 279 77 283 c 16
 123 544 327 559 372 560 c 1
 483 560 520 493 520 493 c 1
 540 549 l 1
 641 526 l 1
 582 385 l 1
 567 351 554 311 547 272 c 0
 540 233 537 193 543 159 c 0
 558 68 606 9 606 9 c 1
EndSplineSet
EndChar

StartChar: beta
Encoding: 946 946 295
Width: 613
Flags: W
LayerCount: 2
Fore
SplineSet
591 210 m 0
 571 94 441 3 330 1 c 9
 329 1 328 1 327 1 c 16
 233 1 183 66 183 66 c 1
 143 -160 l 1
 33 -160 l 1
 143 464 l 0
 151 511 161 563 194 615 c 0
 247 698 334 742 416 742 c 0
 537 742 618 648 598 534 c 0
 588 480 553 430 503 398 c 1
 572 364 605 291 591 210 c 0
348 104 m 16
 411 104 468 148 480 215 c 0
 488 263 467 303 432 325 c 0
 406 342 387 344 351 344 c 2
 257 344 l 1
 274 444 l 1
 366 444 l 2
 453 444 478 501 484 536 c 0
 495 600 460 637 401 637 c 0
 367 637 335 629 306 597 c 0
 265 551 264 521 254 467 c 26
 199 167 l 1
 230 150 286 104 341 104 c 8
 344 104 345 104 348 104 c 16
EndSplineSet
EndChar

StartChar: gamma
Encoding: 947 947 296
Width: 613
Flags: W
LayerCount: 2
Fore
SplineSet
267 15 m 1
 133 542 l 1
 276 542 l 1
 274 515 265 508 264 501 c 0
 264 500 264 499 265 497 c 1
 345 136 l 1
 478 388 l 2
 517 463 534 498 549 543 c 1
 672 543 l 1
 642 482 632 466 581 375 c 2
 376 10 l 2
 371 1 366 -17 362 -40 c 8
 353 -92 348 -121 340 -173 c 17
 230 -173 l 1
 245 -95 267 15 267 15 c 1
EndSplineSet
EndChar

StartChar: delta
Encoding: 948 948 297
Width: 613
Flags: W
LayerCount: 2
Fore
SplineSet
389 454 m 0
 319 454 240 395 220 279 c 0
 199 161 257 95 330 95 c 0
 396 95 474 150 495 270 c 0
 518 401 454 454 389 454 c 0
603 671 m 1
 517 671 l 1
 344 669 l 1
 521 500 l 1
 604 436 618 328 606 261 c 0
 577 96 443 -3 311 -3 c 0
 172 -3 73 108 100 260 c 0
 130 429 260 524 337 524 c 0
 337 524 338 524 339 524 c 1
 339 524 248 605 174 677 c 1
 189 767 l 1
 661 767 l 1
 638 638 l 1
 603 671 l 1
EndSplineSet
EndChar

StartChar: epsilon
Encoding: 949 949 298
Width: 613
Flags: W
LayerCount: 2
Fore
SplineSet
520 184 m 1
 560 105 l 1
 464 15 383 0 322 0 c 0
 195 0 81 62 99 163 c 0
 107 211 136 261 187 286 c 1
 154 306 132 338 140 381 c 0
 155 468 268 546 390 546 c 0
 431 546 527 546 607 449 c 1
 534 370 l 1
 514 397 485 436 370 436 c 0
 304 436 262 410 257 381 c 0
 253 361 256 336 380 336 c 0
 401 336 402 336 434 338 c 1
 413 222 l 1
 372 227 371 227 361 227 c 0
 221 227 218 181 215 163 c 0
 211 139 269 108 340 107 c 0
 407 107 453 139 520 184 c 1
EndSplineSet
EndChar

StartChar: zeta
Encoding: 950 950 299
Width: 613
Flags: W
LayerCount: 2
Fore
SplineSet
370 -82 m 0
 394 -41 422 9 422 9 c 1
 422 9 80 35 119 255 c 1
 119 256 119 256 119 257 c 1
 161 482 352 603 459 657 c 1
 453 657 416 657 392 657 c 0
 338 657 279 658 242 658 c 1
 203 656 204 644 195 644 c 1
 218 769 l 1
 671 769 l 1
 651 660 l 1
 651 660 299 569 244 256 c 1
 244 255 244 255 244 254 c 1
 212 75 523 139 545 103 c 1
 554 89 555 72 552 57 c 0
 541 -4 476 -71 462 -120 c 1
 461 -120 401 -127 368 -127 c 0
 345 -127 333 -124 334 -117 c 0
 335 -110 346 -112 358 -100 c 1
 367 -91 366 -89 370 -82 c 0
EndSplineSet
EndChar

StartChar: eta
Encoding: 951 951 300
Width: 613
Flags: W
LayerCount: 2
Fore
SplineSet
170 485 m 1
 158 542 l 1
 298 542 l 1
 286 476 l 1
 336 522 400 555 465 555 c 0
 532 555 587 519 605 455 c 0
 618 409 610 363 603 323 c 2
 518 -160 l 1
 403 -160 l 1
 487 318 l 10
 494 358 499 395 480 423 c 0
 467 442 446 451 423 451 c 0
 374 451 316 409 293 385 c 0
 269 360 262 341 256 307 c 2
 202 0 l 1
 84 0 l 1
 170 485 l 1
EndSplineSet
EndChar

StartChar: theta
Encoding: 952 952 301
Width: 613
Flags: W
LayerCount: 2
Fore
SplineSet
417 764 m 0
 580 764 628 593 592 391 c 0
 564 233 503 2 285 1 c 0
 283 1 l 0
 83 1 97 215 127 387 c 0
 165 601 260 764 417 764 c 0
483 428 m 1
 507 584 456 657 399 657 c 0
 349 657 282 593 249 427 c 1
 307 427 421 428 483 428 c 1
468 337 m 1
 232 337 l 1
 213 212 220 114 305 114 c 0
 402 114 444 211 467 330 c 0
 467 332 468 335 468 337 c 1
EndSplineSet
EndChar

StartChar: iota
Encoding: 953 953 302
Width: 613
Flags: W
LayerCount: 2
Fore
SplineSet
198 545 m 1
 469 545 l 1
 469 545 427 306 401 156 c 0
 393 113 411 113 457 113 c 1
 437 0 l 9
 415 0 402 -1 380 -1 c 16
 312 -1 259 20 282 149 c 1
 283 159 286 173 288 187 c 0
 293 217 300 250 300 250 c 1
 334 444 l 1
 216 444 l 2
 206 444 177 412 177 412 c 5
 198 545 l 1
EndSplineSet
EndChar

StartChar: kappa
Encoding: 954 954 303
Width: 613
Flags: W
LayerCount: 2
Fore
SplineSet
143 542 m 1
 271 542 l 13
 269 535 268 531 267 524 c 16
 265 511 258 506 253 500 c 0
 252 499 251 498 251 496 c 0
 219 313 l 1
 511 546 l 1
 538 539 578 539 616 539 c 6
 655 539 l 1
 368 319 l 1
 584 -1 l 9
 575 -1 571 -1 562 -1 c 16
 442 -1 l 1
 273 265 l 1
 202 213 l 1
 164 -1 l 1
 47 -1 l 1
 143 542 l 1
EndSplineSet
EndChar

StartChar: lambda
Encoding: 955 955 304
Width: 613
Flags: W
LayerCount: 2
Fore
SplineSet
381 502 m 1
 379 590 352 669 300 683 c 0
 292 685 287 685 281 685 c 0
 247 685 224 677 219 677 c 1
 237 788 l 1
 266 788 291 789 307 789 c 2
 308 789 l 2
 491 789 485 594 502 466 c 0
 523 314 570 24 626 0 c 1
 476 0 l 1
 460 60 413 346 406 380 c 1
 125 0 l 1
 9 0 l 1
 381 502 l 1
EndSplineSet
EndChar

StartChar: mu
Encoding: 956 956 305
Width: 613
Flags: W
LayerCount: 2
Fore
SplineSet
541 113 m 2
 539 101 551 100 556 100 c 8
 560 100 563 100 567 100 c 18
 571 100 l 1
 569 78 555 0 555 0 c 1
 464 0 l 0
 438 0 414 26 423 77 c 0
 425 91 l 1
 388 48 331 0 258 0 c 0
 233 0 202 9 179 33 c 1
 175 12 l 1
 143 -172 l 1
 28 -172 l 1
 98 229 l 1
 153 541 l 1
 265 541 l 1
 216 263 l 1
 216 261 l 2
 194 138 232 117 278 117 c 0
 336 117 444 202 460 291 c 2
 504 541 l 1
 616 541 l 1
 541 113 l 2
EndSplineSet
EndChar

StartChar: nu
Encoding: 957 957 306
Width: 613
Flags: W
LayerCount: 2
Fore
SplineSet
133 553 m 1
 270 553 l 1
 272 521 265 530 262 514 c 0
 260 505 263 472 341 132 c 1
 492 299 537 399 548 456 c 0
 558 509 538 532 529 553 c 1
 666 553 l 1
 666 553 672 512 666 472 c 0
 662 440 652 402 630 362 c 0
 536 188 345 -4 345 -4 c 1
 261 -4 l 1
 133 553 l 1
EndSplineSet
EndChar

StartChar: xi
Encoding: 958 958 307
Width: 613
Flags: W
LayerCount: 2
Fore
SplineSet
400 -22 m 0
 393 15 88 -14 127 206 c 0
 144 304 223 381 298 404 c 1
 256 438 243 475 249 511 c 0
 258 561 302 605 343 632 c 1
 335 632 319 632 304 632 c 24
 286 632 277 632 259 632 c 17
 215 630 219 617 211 617 c 1
 233 742 l 1
 666 742 l 1
 646 630 l 1
 646 630 551 630 547 630 c 1
 471 622 381 560 374 518 c 0
 370 496 388 470 467 458 c 1
 581 458 l 1
 559 336 l 1
 448 335 l 2
 439 335 430 334 422 334 c 4
 306 329 260 294 245 217 c 0
 245 215 244 212 244 210 c 1
 226 91 424 154 510 55 c 0
 521 43 529 25 526 6 c 0
 516 -48 473 -85 448 -143 c 1
 319 -145 l 1
 364 -74 397 -47 400 -31 c 0
 401 -27 401 -24 400 -22 c 0
EndSplineSet
EndChar

StartChar: omicron
Encoding: 959 959 308
Width: 613
Flags: W
LayerCount: 2
Fore
SplineSet
618 268 m 0
 587 91 447 -14 310 -14 c 0
 164 -14 61 104 90 267 c 0
 119 433 264 554 412 554 c 0
 544 554 651 453 618 268 c 0
389 451 m 0
 316 451 233 391 212 274 c 0
 191 156 254 90 329 90 c 0
 398 90 481 146 502 266 c 0
 525 397 457 451 389 451 c 0
EndSplineSet
EndChar

StartChar: pi
Encoding: 960 960 309
Width: 613
Flags: W
LayerCount: 2
Fore
SplineSet
123 554 m 1
 687 554 l 1
 667 442 l 1
 600 442 l 1
 541 110 l 1
 560 110 l 1
 579 122 l 1
 579 122 565 52 556 0 c 1
 467 0 l 2
 420 0 413 32 417 53 c 2
 486 442 l 1
 287 442 l 1
 209 0 l 1
 90 0 l 1
 168 442 l 1
 103 442 l 1
 123 554 l 1
EndSplineSet
EndChar

StartChar: rho
Encoding: 961 961 310
Width: 613
Flags: W
LayerCount: 2
Fore
SplineSet
120 339 m 2
 142 463 231 554 394 554 c 0
 545 554 633 450 600 263 c 0
 565 66 410 -8 293 -8 c 0
 235 -8 197 15 177 33 c 1
 136 -198 l 1
 28 -198 l 1
 120 339 l 2
374 451 m 0
 324 451 276 427 251 387 c 1
 236 365 229 336 222 294 c 0
 209 221 205 192 213 162 c 1
 225 122 258 98 311 98 c 0
 358 98 461 113 487 260 c 0
 518 434 415 451 374 451 c 0
EndSplineSet
EndChar

StartChar: sigma
Encoding: 963 963 311
Width: 613
Flags: W
LayerCount: 2
Fore
SplineSet
600 265 m 0
 569 90 429 -14 292 -14 c 0
 146 -14 43 104 72 267 c 0
 101 430 243 554 388 554 c 2
 391 554 l 1
 397 554 402 554 409 554 c 1
 705 554 l 1
 691 530 l 1
 677 449 l 1
 576 449 l 1
 603 403 613 340 600 265 c 0
368 450 m 1
 296 450 215 401 193 274 c 0
 170 146 236 90 311 90 c 0
 380 90 463 151 486 281 c 0
 507 400 462 441 368 450 c 1
EndSplineSet
EndChar

StartChar: tau
Encoding: 964 964 312
Width: 613
Flags: W
LayerCount: 2
Fore
SplineSet
190 554 m 1
 669 554 l 1
 649 443 l 1
 435 443 l 1
 382 154 l 2
 376 120 422 109 471 109 c 0
 507 109 535 116 535 116 c 1
 518 10 l 1
 518 10 486 2 439 2 c 0
 365 2 246 23 267 149 c 1
 268 159 270 172 273 187 c 0
 278 217 285 250 285 250 c 1
 319 445 l 1
 282 445 245 445 216 445 c 0
 161 445 130 439 105 424 c 9
 190 554 l 1
EndSplineSet
EndChar

StartChar: upsilon
Encoding: 965 965 313
Width: 613
Flags: W
LayerCount: 2
Fore
SplineSet
166 542 m 0
 166 542 237 542 282 542 c 17
 228 240 l 17
 227 232 l 2
 217 175 210 95 316 95 c 0
 382 95 453 158 469 247 c 0
 521 542 l 1
 638 542 l 1
 585 245 l 0
 573 176 538 112 499 73 c 0
 425 0 358 -14 292 -14 c 0
 217 -14 133 24 110 100 c 0
 96 146 99 178 111 241 c 2
 150 453 l 2
 149 453 119 457 95 459 c 1
 131 542 l 1
 166 542 l 0
EndSplineSet
EndChar

StartChar: Xi
Encoding: 926 926 322
Width: 613
Flags: W
LayerCount: 2
Fore
SplineSet
365 106 m 2
 533 106 l 1
 514 -1 l 1
 99 -1 l 1
 118 108 l 1
 282 108 l 1
 282 108 332 106 365 106 c 2
457 632 m 1
 374 632 l 1
 210 632 l 1
 229 739 l 1
 644 739 l 1
 625 632 l 1
 457 632 l 1
213 440 m 1
 558 440 l 1
 539 333 l 1
 194 333 l 1
 213 440 l 1
EndSplineSet
EndChar

StartChar: tonos
Encoding: 900 900 328
Width: 613
Flags: W
LayerCount: 2
Fore
SplineSet
527 825 m 1
 433 617 l 1
 355 617 l 1
 402 836 l 1
 527 825 l 1
EndSplineSet
EndChar

StartChar: sigma1
Encoding: 962 962 346
Width: 613
Flags: W
LayerCount: 2
Fore
SplineSet
125 292 m 0
 144 396 239 509 348 536 c 0
 409 552 490 554 538 554 c 0
 564 554 584 554 586 554 c 0
 593 554 592 546 589 531 c 0
 582 494 577 467 570 439 c 1
 519 437 471 436 438 436 c 0
 331 436 266 393 246 281 c 0
 237 229 277 167 313 151 c 0
 384 120 535 129 515 17 c 0
 504 -47 447 -92 427 -136 c 1
 302 -137 l 1
 328 -78 391 -32 396 -1 c 0
 404 44 306 9 201 82 c 0
 158 112 109 202 125 292 c 0
EndSplineSet
EndChar

StartChar: chi
Encoding: 967 967 347
Width: 613
Flags: W
LayerCount: 2
Fore
SplineSet
528 543 m 1
 644 543 l 1
 407 187 l 1
 499 -78 l 2
 504 -92 518 -95 527 -95 c 0
 551 -95 l 1
 533 -196 l 9
 523 -196 517 -196 507 -196 c 0
 475 -196 404 -187 389 -137 c 2
 326 71 l 1
 153 -196 l 1
 28 -196 l 1
 281 176 l 1
 196 387 l 2
 178 432 164 442 154 442 c 0
 144 442 136 442 124 442 c 17
 144 553 l 9
 161 553 170 553 187 553 c 16
 218 553 255 545 279 498 c 1
 286 485 320 424 364 289 c 1
 528 543 l 1
EndSplineSet
EndChar

StartChar: psi
Encoding: 968 968 348
Width: 613
Flags: W
LayerCount: 2
Fore
SplineSet
173 546 m 1
 284 542 l 1
 231 243 l 1
 228 226 l 6
 216 157 210 97 265 73 c 1
 363 627 l 1
 482 668 l 1
 379 86 l 1
 421 113 456 164 467 226 c 2
 523 542 l 1
 635 542 l 1
 582 245 l 2
 570 176 533 115 494 77 c 0
 447 30 407 5 363 -6 c 1
 330 -194 l 1
 218 -194 l 1
 250 -10 l 1
 188 3 135 40 117 100 c 0
 102 147 110 201 118 245 c 0
 160 469 173 546 173 546 c 1
EndSplineSet
EndChar

StartChar: phi
Encoding: 966 966 349
Width: 613
Flags: W
LayerCount: 2
Fore
SplineSet
359 604 m 1
 478 621 l 1
 465 547 l 1
 571 522 646 425 618 268 c 0
 591 117 483 18 368 -7 c 1
 334 -197 l 1
 217 -197 l 1
 250 -9 l 1
 133 18 65 126 90 267 c 0
 115 410 223 519 348 547 c 1
 359 604 l 1
267 84 m 1
 333 458 l 1
 278 433 224 370 207 274 c 0
 190 179 221 111 267 84 c 1
449 453 m 1
 384 86 l 1
 437 112 490 172 506 265 c 0
 524 365 490 426 449 453 c 1
EndSplineSet
EndChar

StartChar: omega
Encoding: 969 969 350
Width: 613
Flags: W
LayerCount: 2
Fore
SplineSet
213 106 m 0
 254 106 283 172 300 266 c 2
 324 402 l 1
 433 402 l 1
 411 266 l 2
 395 171 398 106 440 106 c 0
 467 106 486 141 501 188 c 0
 503 194 512 218 522 276 c 0
 540 379 541 459 542 553 c 1
 655 553 l 1
 656 496 661 400 640 282 c 0
 627 211 606 137 565 74 c 0
 532 24 469 -2 422 -2 c 8
 421 -2 421 -2 420 -2 c 16
 390 -2 346 14 315 46 c 1
 271 13 225 -2 195 -2 c 8
 194 -2 194 -2 193 -2 c 16
 146 -2 91 24 76 74 c 0
 57 140 63 202 75 282 c 0
 93 405 132 488 156 553 c 1
 270 553 l 1
 227 428 205 367 189 274 c 0
 185 253 180 215 180 180 c 0
 180 141 187 106 213 106 c 0
EndSplineSet
EndChar

StartChar: Lambda
Encoding: 923 923 352
Width: 613
Flags: W
LayerCount: 2
Fore
SplineSet
387 530 m 1
 281 315 212 182 121 -1 c 1
 6 -1 l 1
 411 753 l 1
 442 753 l 1
 606 0 l 1
 487 0 l 1
 449 196 425 315 387 530 c 1
EndSplineSet
EndChar

StartChar: Delta
Encoding: 916 916 353
Width: 613
Flags: W
LayerCount: 2
Fore
SplineSet
6 0 m 1
 411 753 l 1
 442 753 l 1
 606 0 l 1
 6 0 l 1
177 112 m 1
 465 112 l 1
 387 530 l 1
 177 112 l 1
EndSplineSet
EndChar

StartChar: Gamma
Encoding: 915 915 355
Width: 613
Flags: W
LayerCount: 2
Fore
SplineSet
249 423 m 1
 235 347 l 1
 189 85 l 1
 175 0 l 1
 65 0 l 1
 195 740 l 1
 679 740 l 1
 661 636 l 1
 286 636 l 1
 249 423 l 1
EndSplineSet
EndChar

StartChar: Theta
Encoding: 920 920 356
Width: 613
Flags: W
LayerCount: 2
Fore
SplineSet
421 641 m 0
 275 641 237 520 212 381 c 0
 180 201 230 106 333 106 c 0
 427 106 504 183 539 382 c 0
 563 516 560 641 421 641 c 0
310 0 m 0
 75 0 70 228 97 381 c 0
 132 578 230 750 441 750 c 0
 629 750 691 602 652 382 c 0
 625 228 555 0 310 0 c 0
496 325 m 1
 238 325 l 1
 258 436 l 1
 258 436 457 437 516 437 c 1
 496 325 l 1
EndSplineSet
EndChar

StartChar: Pi
Encoding: 928 928 357
Width: 613
Flags: W
LayerCount: 2
Fore
SplineSet
249 424 m 1
 235 348 l 1
 189 85 l 1
 175 0 l 1
 65 0 l 1
 195 740 l 1
 569 740 l 1
 679 740 l 1
 661 636 l 1
 549 0 l 1
 439 0 l 1
 551 636 l 1
 286 636 l 1
 249 424 l 1
EndSplineSet
EndChar

StartChar: Phi
Encoding: 934 934 358
Width: 613
Flags: W
LayerCount: 2
Fore
SplineSet
439 737 m 0
 592 737 725 597 690 399 c 0
 656 206 491 111 377 83 c 1
 362 0 l 1
 255 0 l 1
 269 82 l 1
 156 111 33 215 65 396 c 0
 101 598 274 737 439 737 c 0
283 183 m 1
 364 642 l 1
 293 610 197 522 175 399 c 0
 153 276 222 212 283 183 c 1
480 639 m 1
 399 184 l 1
 468 215 561 281 582 401 c 0
 605 530 536 605 480 639 c 1
EndSplineSet
EndChar

StartChar: Chi
Encoding: 935 935 359
Width: 613
Flags: W
LayerCount: 2
Fore
SplineSet
558 739 m 1
 675 739 l 1
 431 380 l 1
 569 1 l 1
 441 1 l 1
 350 269 l 1
 172 1 l 1
 49 1 l 1
 309 376 l 1
 180 739 l 1
 302 739 l 1
 389 485 l 1
 558 739 l 1
EndSplineSet
EndChar

StartChar: Sigma
Encoding: 931 931 362
Width: 613
Flags: W
LayerCount: 2
Fore
SplineSet
304 363 m 1
 191 665 l 1
 202 739 l 1
 690 739 l 1
 672 634 l 1
 324 634 l 1
 427 361 l 1
 215 83 l 1
 538 83 l 2
 546 83 552 90 571 90 c 8
 578 90 583 90 590 90 c 17
 570 -22 l 1
 50 -22 l 1
 62 44 l 1
 304 363 l 1
EndSplineSet
EndChar

StartChar: Psi
Encoding: 936 936 363
Width: 613
Flags: W
LayerCount: 2
Fore
SplineSet
378 705 m 1
 491 705 l 1
 419 295 l 1
 486 321 513 402 522 452 c 2
 572 740 l 1
 687 740 l 1
 639 465 l 2
 629 411 617 364 574 312 c 1
 526 253 462 226 405 214 c 1
 367 0 l 1
 254 0 l 1
 291 212 l 1
 231 223 182 249 151 311 c 1
 127 360 130 410 139 461 c 2
 189 740 l 1
 189 740 255 740 303 740 c 1
 253 452 l 2
 245 405 249 319 306 293 c 1
 378 705 l 1
EndSplineSet
EndChar

StartChar: Omega
Encoding: 937 937 364
Width: 613
Flags: W
LayerCount: 2
Fore
SplineSet
165 108 m 1
 124 172 99 272 111 341 c 0
 172 689 306 740 438 740 c 0
 564 740 682 685 622 343 c 0
 608 263 558 171 498 108 c 1
 582 108 l 1
 563 0 l 1
 346 0 l 1
 362 93 l 1
 420 142 499 272 511 338 c 0
 549 554 527 639 421 639 c 0
 313 639 261 555 223 339 c 0
 210 264 257 127 291 95 c 1
 274 0 l 1
 51 0 l 1
 70 108 l 1
 165 108 l 1
EndSplineSet
EndChar

StartChar: anoteleia
Encoding: 903 903 366
Width: 613
Flags: W
LayerCount: 2
Fore
SplineSet
461 471 m 0
 453 425 408 387 361 387 c 0
 314 387 282 425 290 471 c 0
 298 517 344 554 391 554 c 0
 438 554 469 517 461 471 c 0
EndSplineSet
EndChar

StartChar: Be
Encoding: 1041 1041 368
Width: 613
Flags: W
LayerCount: 2
Fore
SplineSet
52 0 m 1
 182 740 l 1
 667 740 l 1
 649 636 l 1
 277 636 l 1
 244 449 l 1
 344 449 l 2
 425 449 481 448 538 406 c 0
 595 364 621 301 605 213 c 0
 591 134 530 58 439 23 c 0
 381 1 326 0 276 0 c 2
 52 0 l 1
183 103 m 1
 309 103 l 2
 341 103 369 104 400 116 c 0
 448 135 481 176 489 221 c 0
 497 266 479 310 434 332 c 0
 404 347 368 348 331 348 c 2
 226 348 l 1
 183 103 l 1
EndSplineSet
EndChar

StartChar: De
Encoding: 1044 1044 371
Width: 613
Flags: W
LayerCount: 2
Fore
SplineSet
60 100 m 1
 117 100 l 9
 119 103 118 104 120 107 c 16
 130 124 142 146 149 165 c 0
 210 319 263 544 287 656 c 0
 294 692 289 740 289 740 c 1
 679 740 l 1
 567 100 l 1
 627 100 l 1
 579 -172 l 1
 465 -172 l 1
 495 -1 l 1
 159 -1 l 1
 129 -171 l 1
 12 -171 l 1
 60 100 l 1
238 100 m 1
 457 100 l 1
 551 636 l 1
 395 636 l 1
 363 508 306 262 248 125 c 0
 245 117 241 108 238 100 c 1
EndSplineSet
Substitution2: "Bulgarian variant forms-1" De.bg
EndChar

StartChar: Zhe
Encoding: 1046 1046 373
Width: 613
Flags: W
LayerCount: 2
Fore
SplineSet
-7 0 m 1
 275 375 l 1
 149 740 l 1
 207 740 l 2
 230 740 252 742 280 749 c 1
 343 514 l 1
 382 739 l 1
 495 739 l 1
 499 727 500 725 499 719 c 0
 497 706 490 709 488 695 c 2
 457 522 l 1
 592 749 l 1
 612 743 629 740 661 740 c 2
 718 740 l 1
 475 380 l 1
 620 0 l 1
 546 0 479 -5 479 -5 c 1
 407 241 l 1
 365 0 l 1
 252 0 l 1
 293 232 l 1
 132 -5 l 1
 132 -5 63 0 -7 0 c 1
EndSplineSet
EndChar

StartChar: Ze
Encoding: 1047 1047 374
Width: 613
VWidth: 1046
Flags: W
LayerCount: 2
Fore
SplineSet
60 130 m 1
 156 186 l 1
 182 124 242 89 303 89 c 0
 415 89 482 152 494 220 c 0
 507 291 443 338 308 338 c 0
 283 338 270 336 241 333 c 1
 258 432 l 1
 356 432 409 443 432 449 c 0
 499 468 523 507 530 544 c 0
 539 594 508 649 411 649 c 0
 358 649 303 620 270 571 c 0
 268 568 266 567 265 564 c 0
 265 563 265 557 265 556 c 0
 263 542 256 537 242 527 c 1
 150 577 l 1
 198 652 285 745 425 745 c 0
 577 745 660 653 641 546 c 0
 630 482 589 424 519 392 c 1
 590 356 617 288 603 209 c 0
 582 92 476 -12 290 -12 c 0
 199 -12 96 34 60 130 c 1
EndSplineSet
EndChar

StartChar: Ii
Encoding: 1048 1048 375
Width: 613
Flags: W
LayerCount: 2
Fore
SplineSet
54 0 m 1
 184 739 l 1
 301 739 l 1
 304 733 307 728 305 719 c 0
 302 704 296 708 294 695 c 2
 214 246 l 1
 580 739 l 1
 686 739 l 1
 556 -1 l 1
 444 -1 l 1
 540 539 l 1
 145 0 l 1
 54 0 l 1
EndSplineSet
EndChar

StartChar: El
Encoding: 1051 1051 378
Width: 613
Flags: W
LayerCount: 2
Fore
SplineSet
10 48 m 1
 69 153 l 1
 84 132 79 126 87 110 c 0
 90 104 105 88 111 88 c 4
 112 88 113 92 116 97 c 0
 126 115 141 142 148 161 c 0
 209 316 262 542 286 655 c 0
 294 697 289 740 289 740 c 1
 679 740 l 1
 549 0 l 1
 439 0 l 1
 551 636 l 1
 395 636 l 1
 363 507 305 258 247 120 c 0
 235 90 219 56 196 29 c 0
 169 -3 119 -8 94 -8 c 0
 64 -8 31 5 10 48 c 1
EndSplineSet
Substitution2: "Bulgarian variant forms-1" El.bg
EndChar

StartChar: Ucyril
Encoding: 1059 1059 386
Width: 613
Flags: W
LayerCount: 2
Fore
SplineSet
146 740 m 1
 300 740 l 1
 297 707 291 712 289 700 c 0
 289 699 289 698 290 696 c 2
 397 357 l 1
 519 586 l 2
 558 659 575 701 588 740 c 1
 711 740 l 1
 683 682 666 648 621 570 c 2
 376 140 l 2
 359 110 342 81 311 53 c 0
 265 11 215 -8 174 -8 c 0
 101 -8 71 23 47 49 c 1
 124 152 l 1
 147 131 143 126 145 117 c 0
 146 113 159 92 190 92 c 0
 200 92 214 98 240 121 c 0
 258 136 271 157 284 177 c 2
 319 235 l 1
 146 740 l 1
EndSplineSet
EndChar

StartChar: Ef
Encoding: 1060 1060 387
Width: 613
VWidth: 1046
Flags: W
LayerCount: 2
Fore
SplineSet
398 185 m 1
 466 211 557 266 575 366 c 0
 594 471 522 535 465 564 c 1
 398 185 l 1
169 364 m 0
 151 262 219 209 283 184 c 1
 351 566 l 1
 281 540 187 467 169 364 c 0
59 361 m 0
 87 519 224 635 367 660 c 1
 381 738 l 1
 497 738 l 1
 500 730 503 723 502 718 c 0
 500 705 492 709 490 696 c 2
 483 660 l 1
 608 633 709 519 682 364 c 0
 652 192 490 109 378 84 c 1
 362 -1 l 1
 255 -1 l 1
 269 82 l 1
 158 108 30 199 59 361 c 0
EndSplineSet
EndChar

StartChar: Tse
Encoding: 1062 1062 389
Width: 613
Flags: W
LayerCount: 2
Fore
SplineSet
39 0 m 1
 169 739 l 1
 286 739 l 1
 289 732 291 725 290 719 c 0
 288 705 281 708 279 697 c 2
 174 101 l 1
 433 101 l 1
 545 739 l 1
 659 739 l 1
 663 731 665 725 664 719 c 0
 661 704 653 710 651 698 c 2
 546 101 l 1
 629 101 l 1
 581 -172 l 1
 468 -172 l 1
 498 0 l 1
 39 0 l 1
EndSplineSet
EndChar

StartChar: Che
Encoding: 1063 1063 390
Width: 613
Flags: W
LayerCount: 2
Fore
SplineSet
143 505 m 2
 184 739 l 1
 303 739 l 1
 306 731 307 726 306 718 c 0
 304 708 297 699 291 694 c 0
 287 691 289 692 288 688 c 2
 256 505 l 2
 250 470 246 439 255 407 c 0
 270 358 315 331 368 331 c 0
 420 331 475 357 509 406 c 0
 531 439 538 471 545 508 c 2
 585 739 l 1
 694 739 l 1
 564 0 l 1
 455 0 l 1
 503 270 l 1
 454 243 401 229 349 229 c 0
 257 229 177 269 147 349 c 0
 127 402 134 454 143 505 c 2
EndSplineSet
EndChar

StartChar: Sha
Encoding: 1064 1064 391
Width: 613
Flags: W
LayerCount: 2
Fore
SplineSet
29 0 m 1
 159 739 l 1
 276 739 l 1
 280 727 281 725 280 719 c 0
 278 708 271 708 269 697 c 2
 164 101 l 1
 274 101 l 1
 386 739 l 1
 500 739 l 1
 505 731 506 728 505 720 c 0
 503 708 495 709 493 699 c 2
 388 101 l 1
 493 101 l 1
 605 739 l 1
 719 739 l 1
 723 732 726 726 725 720 c 0
 723 709 714 710 712 699 c 2
 589 0 l 1
 29 0 l 1
EndSplineSet
EndChar

StartChar: Shcha
Encoding: 1065 1065 392
Width: 613
Flags: W
LayerCount: 2
Fore
SplineSet
3 0 m 1
 133 739 l 1
 250 739 l 1
 252 730 255 725 254 719 c 0
 252 708 245 708 243 697 c 2
 138 101 l 1
 248 101 l 1
 360 739 l 1
 475 739 l 1
 478 730 481 725 480 720 c 0
 478 709 469 708 467 699 c 2
 362 101 l 1
 468 101 l 1
 580 739 l 1
 694 739 l 1
 697 730 700 725 699 720 c 0
 697 709 688 709 686 699 c 2
 581 101 l 1
 629 101 l 1
 581 -172 l 1
 468 -172 l 1
 498 0 l 1
 3 0 l 1
EndSplineSet
EndChar

StartChar: Hard
Encoding: 1066 1066 393
Width: 613
Flags: W
LayerCount: 2
Fore
SplineSet
144 634 m 1
 162 739 l 1
 387 739 l 1
 336 449 l 1
 344 449 l 2
 425 449 496 449 553 406 c 0
 610 364 636 301 620 213 c 0
 606 134 545 58 454 23 c 0
 396 1 341 0 291 0 c 2
 144 0 l 1
 256 634 l 1
 144 634 l 1
275 103 m 1
 324 103 l 2
 356 103 384 104 415 116 c 0
 463 135 496 176 504 221 c 0
 512 266 493 310 448 332 c 0
 418 347 383 348 346 348 c 2
 318 348 l 1
 275 103 l 1
EndSplineSet
EndChar

StartChar: Yeri
Encoding: 1067 1067 394
Width: 613
Flags: W
LayerCount: 2
Fore
SplineSet
42 0 m 1
 172 739 l 1
 285 739 l 1
 287 733 290 725 289 719 c 0
 287 708 280 708 278 697 c 2
 233 445 l 1
 250 445 l 2
 307 445 355 444 404 403 c 0
 454 361 474 297 459 211 c 0
 445 133 391 58 309 23 c 0
 256 0 208 0 164 0 c 2
 42 0 l 1
173 103 m 1
 195 103 l 2
 223 103 241 104 266 116 c 0
 305 134 334 175 342 221 c 0
 350 267 336 312 301 333 c 0
 277 348 255 348 232 348 c 2
 216 348 l 1
 173 103 l 1
455 0 m 1
 585 739 l 1
 698 739 l 1
 701 731 703 725 702 719 c 0
 700 708 693 708 691 697 c 2
 568 0 l 1
 455 0 l 1
EndSplineSet
EndChar

StartChar: Soft
Encoding: 1068 1068 395
Width: 613
Flags: W
LayerCount: 2
Fore
SplineSet
52 0 m 1
 182 739 l 1
 295 739 l 1
 298 732 300 725 299 719 c 0
 297 708 290 709 288 697 c 2
 244 449 l 1
 344 449 l 2
 425 449 481 448 538 406 c 0
 595 364 621 301 605 213 c 0
 591 134 530 58 439 23 c 0
 381 1 326 0 276 0 c 2
 52 0 l 1
183 103 m 1
 309 103 l 2
 341 103 369 104 400 116 c 0
 448 135 481 176 489 221 c 0
 497 266 479 310 434 332 c 0
 404 347 368 348 331 348 c 2
 226 348 l 1
 183 103 l 1
EndSplineSet
EndChar

StartChar: Ecyrilrev
Encoding: 1069 1069 396
Width: 613
VWidth: 1046
Flags: W
LayerCount: 2
Fore
SplineSet
139 577 m 1
 187 652 274 745 414 745 c 0
 537 745 696 658 644 365 c 0
 594 81 411 -12 282 -12 c 0
 207 -12 109 22 70 130 c 1
 166 186 l 1
 189 120 247 89 295 89 c 0
 385 89 486 172 526 332 c 1
 238 332 l 1
 256 438 l 1
 542 438 l 1
 549 578 482 649 400 649 c 0
 348 649 295 619 259 571 c 0
 258 570 255 568 255 566 c 0
 254 563 254 558 254 556 c 0
 252 542 245 537 231 527 c 1
 139 577 l 1
EndSplineSet
EndChar

StartChar: Iu
Encoding: 1070 1070 397
Width: 613
Flags: W
LayerCount: 2
Fore
SplineSet
15 0 m 1
 145 739 l 1
 258 739 l 1
 260 733 263 725 262 719 c 0
 260 709 252 709 250 697 c 2
 204 439 l 1
 259 439 l 1
 316 668 439 748 527 748 c 0
 596 748 656 699 677 604 c 0
 695 525 682 435 670 368 c 0
 659 305 640 215 595 136 c 0
 540 38 462 -11 394 -11 c 0
 300 -11 204 80 239 333 c 1
 186 333 l 1
 127 0 l 1
 15 0 l 1
359 381 m 0
 320 157 376 100 413 100 c 0
 435 100 471 119 504 185 c 0
 533 243 547 313 555 358 c 0
 565 417 574 482 569 539 c 0
 562 618 528 639 505 639 c 0
 471 639 396 590 359 381 c 0
EndSplineSet
EndChar

StartChar: Ia
Encoding: 1071 1071 398
Width: 613
Flags: W
LayerCount: 2
Fore
SplineSet
28 0 m 1
 259 323 l 1
 177 354 134 436 151 530 c 0
 164 606 217 678 297 714 c 0
 351 739 401 739 449 739 c 2
 683 739 l 1
 553 0 l 1
 438 0 l 1
 493 311 l 1
 375 311 l 1
 156 0 l 1
 28 0 l 1
266 520 m 0
 259 481 272 444 306 427 c 0
 329 415 354 415 383 415 c 2
 511 415 l 1
 549 631 l 1
 430 631 l 2
 399 631 374 629 345 617 c 0
 302 598 273 560 266 520 c 0
EndSplineSet
EndChar

StartChar: be
Encoding: 1073 1073 400
Width: 613
Flags: W
LayerCount: 2
Fore
SplineSet
213 277 m 0
 194 167 239 90 329 90 c 0
 398 90 481 145 502 265 c 0
 525 397 456 451 388 451 c 0
 315 451 234 394 213 277 c 0
103 333 m 0
 115 401 136 484 174 554 c 0
 246 687 357 748 452 748 c 0
 481 748 531 760 541 770 c 0
 548 777 550 788 573 804 c 1
 614 701 l 1
 569 662 493 643 434 643 c 0
 398 643 329 630 275 518 c 1
 319 542 366 554 413 554 c 0
 545 554 652 453 619 269 c 0
 588 92 448 -14 310 -14 c 0
 220 -14 151 21 117 87 c 0
 80 159 88 250 103 333 c 0
EndSplineSet
Substitution2: "Macedonian-Serbian Italic subtable" be.mkd
EndChar

StartChar: ve
Encoding: 1074 1074 401
Width: 613
Flags: W
LayerCount: 2
Fore
SplineSet
108 260 m 0
 126 357 188 464 268 513 c 0
 307 537 351 554 392 554 c 0
 428 554 469 554 515 539 c 0
 588 516 607 463 598 411 c 0
 590 367 553 302 508 278 c 1
 575 249 587 194 577 140 c 0
 566 82 522 27 433 2 c 0
 377 -14 332 -14 282 -14 c 0
 228 -14 192 9 159 45 c 0
 111 97 92 174 108 260 c 0
223 229 m 1
 220 163 244 114 283 88 c 0
 299 77 363 74 394 82 c 0
 443 94 456 119 461 145 c 0
 466 174 461 213 420 222 c 0
 386 229 359 229 322 229 c 2
 223 229 l 1
248 330 m 1
 329 330 l 2
 362 330 387 330 421 337 c 0
 462 345 479 398 483 418 c 0
 486 435 479 451 444 460 c 0
 430 463 418 466 404 467 c 0
 392 468 367 466 341 452 c 0
 304 432 269 373 248 330 c 1
EndSplineSet
Substitution2: "Bulgarian variant forms-1" ve.bg
EndChar

StartChar: ge
Encoding: 1075 1075 402
Width: 613
Flags: W
LayerCount: 2
Fore
SplineSet
90 164 m 0
 97 203 125 253 200 289 c 0
 271 323 360 334 412 356 c 0
 457 375 467 395 469 407 c 0
 474 432 440 460 383 460 c 0
 312 460 256 417 232 392 c 0
 231 390 230 389 230 387 c 0
 228 372 217 365 198 362 c 1
 151 458 l 1
 219 528 314 555 387 555 c 0
 504 555 602 493 584 396 c 0
 565 297 447 264 417 254 c 0
 367 238 304 225 263 208 c 0
 219 190 209 168 206 154 c 0
 199 118 248 90 315 90 c 0
 402 90 467 141 486 159 c 0
 488 161 489 163 489 165 c 0
 489 167 489 185 519 194 c 1
 564 84 l 1
 485 22 406 -12 301 -12 c 0
 126 -12 77 92 90 164 c 0
EndSplineSet
Substitution2: "Macedonian-Serbian Italic subtable" ge.mkd
EndChar

StartChar: zhe
Encoding: 1078 1078 405
Width: 613
Flags: W
LayerCount: 2
Fore
SplineSet
18 102 m 1
 116 186 l 1
 119 152 113 135 113 127 c 0
 113 123 115 90 121 90 c 0
 130 90 170 173 187 263 c 0
 204 352 196 445 188 445 c 0
 180 445 171 412 162 383 c 1
 86 454 l 1
 113 508 152 553 206 553 c 0
 281 553 305 454 295 340 c 1
 313 340 l 1
 351 543 l 1
 453 543 l 1
 456 534 458 524 457 520 c 0
 455 509 448 510 446 499 c 2
 416 340 l 1
 436 340 l 1
 470 460 531 553 604 553 c 0
 674 553 683 487 689 437 c 1
 591 354 l 1
 589 389 591 399 594 413 c 0
 595 417 592 450 586 450 c 0
 578 450 537 367 520 277 c 0
 503 184 506 92 520 92 c 0
 537 92 546 123 556 157 c 1
 632 85 l 1
 585 14 567 -13 502 -13 c 0
 413 -13 399 122 417 244 c 1
 399 244 l 1
 353 0 l 1
 250 0 l 1
 296 244 l 1
 281 244 l 1
 250 101 185 -13 104 -13 c 0
 34 -13 27 39 18 102 c 1
EndSplineSet
Substitution2: "Bulgarian variant forms-1" zhe.bg
EndChar

StartChar: ze
Encoding: 1079 1079 406
Width: 613
VWidth: 1046
Flags: W
LayerCount: 2
Fore
SplineSet
90 88 m 1
 173 168 l 1
 204 112 297 93 349 93 c 0
 433 93 471 132 476 162 c 0
 479 181 486 226 353 226 c 0
 327 226 326 224 299 221 c 1
 320 337 l 1
 342 335 352 335 372 335 c 0
 474 335 499 353 504 381 c 0
 510 413 479 450 416 450 c 0
 333 450 282 393 278 387 c 0
 273 380 282 367 247 346 c 1
 186 437 l 1
 253 517 345 553 429 553 c 0
 553 553 636 465 621 381 c 0
 613 338 586 305 546 285 c 1
 589 261 600 211 592 163 c 0
 582 107 537 -13 329 -13 c 0
 241 -13 142 13 90 88 c 1
EndSplineSet
Substitution2: "Bulgarian variant forms-1" ze.bg
EndChar

StartChar: el
Encoding: 1083 1083 410
Width: 613
Flags: W
LayerCount: 2
Fore
SplineSet
8 53 m 1
 67 159 l 1
 94 123 85 119 86 113 c 0
 87 105 92 92 106 92 c 0
 110 92 110 95 115 103 c 0
 125 120 139 146 147 165 c 0
 156 187 174 279 209 343 c 0
 243 406 281 460 324 496 c 0
 367 532 417 554 462 554 c 0
 622 554 574 522 656 506 c 1
 641 489 628 472 621 434 c 2
 572 164 l 2
 553 58 590 1 590 1 c 1
 447 -6 l 1
 447 -6 440 70 456 157 c 2
 511 451 l 1
 507 454 495 460 466 460 c 0
 426 460 362 385 315 315 c 0
 271 250 272 174 246 116 c 0
 233 87 217 53 194 27 c 0
 169 -3 119 -8 94 -8 c 0
 39 -8 17 35 8 53 c 1
EndSplineSet
Substitution2: "Bulgarian variant forms-1" el.bg
EndChar

StartChar: em
Encoding: 1084 1084 411
Width: 613
Flags: W
LayerCount: 2
Fore
SplineSet
40 -1 m 1
 141 542 l 1
 229 542 l 1
 361 299 l 1
 583 543 l 1
 670 543 l 1
 600 164 l 2
 579 53 618 1 618 1 c 1
 480 -6 l 1
 480 -6 470 71 488 168 c 2
 524 367 l 1
 355 174 l 1
 307 174 l 1
 214 366 l 1
 149 -1 l 1
 40 -1 l 1
EndSplineSet
EndChar

StartChar: en
Encoding: 1085 1085 412
Width: 613
Flags: W
LayerCount: 2
Fore
SplineSet
66 0 m 1
 142 405 l 2
 155 476 139 507 122 539 c 1
 257 555 l 1
 265 532 276 497 265 439 c 2
 244 331 l 1
 488 331 l 1
 528 541 l 1
 642 541 l 1
 572 164 l 2
 552 58 592 1 592 1 c 1
 447 -6 l 1
 447 -6 439 65 456 157 c 2
 469 229 l 1
 226 229 l 1
 183 0 l 1
 66 0 l 1
EndSplineSet
EndChar

StartChar: ef
Encoding: 1092 1092 419
Width: 613
Flags: W
LayerCount: 2
Fore
SplineSet
391 788 m 1
 508 788 l 1
 465 547 l 1
 571 522 646 425 618 268 c 0
 591 117 483 18 368 -7 c 1
 334 -197 l 1
 217 -197 l 1
 250 -9 l 1
 133 18 65 126 90 267 c 0
 115 410 223 519 348 547 c 1
 391 788 l 1
267 84 m 1
 333 458 l 1
 278 433 224 370 207 274 c 0
 190 179 221 111 267 84 c 1
449 453 m 1
 384 86 l 1
 437 112 490 172 506 265 c 0
 524 365 490 426 449 453 c 1
EndSplineSet
EndChar

StartChar: tse
Encoding: 1094 1094 421
Width: 613
Flags: W
LayerCount: 2
Fore
SplineSet
108 102 m 0
 94 150 103 199 111 243 c 2
 142 405 l 2
 156 475 139 507 122 539 c 1
 257 555 l 1
 264 534 276 498 265 438 c 2
 228 242 l 2
 221 207 216 171 227 140 c 0
 239 105 267 87 304 87 c 0
 350 87 400 117 430 156 c 0
 453 185 461 212 468 251 c 2
 523 542 l 1
 640 542 l 1
 570 164 l 2
 551 59 601 1 601 1 c 1
 571 -0 l 1
 549 -61 507 -95 489 -136 c 1
 362 -138 l 1
 389 -79 444 -30 457 -1 c 0
 457 0 457 1 456 1 c 1
 455 1 l 17
 451 6 452 9 451 15 c 16
 449 33 447 49 447 61 c 1
 396 18 329 -13 272 -13 c 0
 196 -13 129 27 108 102 c 0
EndSplineSet
EndChar

StartChar: che
Encoding: 1095 1095 422
Width: 613
Flags: W
LayerCount: 2
Fore
SplineSet
122 539 m 1
 257 555 l 1
 264 534 276 498 265 437 c 2
 260 409 l 2
 254 374 247 336 258 305 c 0
 270 270 299 252 336 252 c 0
 382 252 432 281 462 321 c 0
 485 351 493 379 500 418 c 2
 523 542 l 1
 640 542 l 1
 570 164 l 2
 550 58 588 1 588 1 c 1
 444 -6 l 1
 444 -6 436 60 452 152 c 2
 463 215 l 1
 417 175 361 151 304 151 c 0
 228 151 161 193 140 269 c 0
 126 318 135 367 143 412 c 0
 155 476 141 502 122 539 c 1
EndSplineSet
EndChar

StartChar: sha
Encoding: 1096 1096 423
Width: 613
Flags: W
LayerCount: 2
Fore
SplineSet
61 36 m 0
 44 70 49 110 56 146 c 0
 57 152 58 159 59 165 c 2
 106 414 l 2
 118 477 106 500 85 539 c 1
 214 556 l 1
 222 528 233 495 222 438 c 2
 170 165 l 2
 168 156 167 146 165 137 c 0
 162 122 161 107 163 97 c 0
 166 84 175 80 186 80 c 0
 209 80 234 105 246 120 c 0
 270 149 276 168 281 194 c 2
 346 542 l 1
 457 542 l 1
 393 173 l 2
 391 164 389 155 388 147 c 0
 385 132 383 118 385 106 c 1
 388 84 400 78 413 78 c 0
 428 78 451 88 475 122 c 0
 494 148 499 168 503 193 c 2
 564 542 l 1
 673 542 l 1
 604 164 l 2
 584 53 630 1 630 1 c 1
 484 -6 l 1
 484 -6 482 10 482 36 c 1
 450 7 410 -13 369 -13 c 0
 326 -13 292 10 278 45 c 1
 244 9 198 -13 151 -13 c 0
 118 -13 80 -1 61 36 c 0
EndSplineSet
EndChar

StartChar: shcha
Encoding: 1097 1097 424
Width: 613
Flags: W
LayerCount: 2
Fore
SplineSet
56 146 m 0
 57 152 58 159 59 165 c 2
 106 414 l 2
 118 476 106 500 85 539 c 1
 214 556 l 1
 222 529 233 495 222 438 c 2
 170 165 l 2
 168 156 167 146 165 137 c 0
 162 122 161 107 163 97 c 0
 167 84 175 80 186 80 c 0
 209 80 234 105 246 120 c 0
 270 149 276 168 281 194 c 2
 346 542 l 1
 457 542 l 1
 392 173 l 2
 390 164 388 155 387 147 c 0
 384 132 383 118 385 106 c 0
 388 84 400 78 413 78 c 0
 428 78 450 88 474 122 c 0
 493 148 499 168 503 193 c 2
 564 542 l 1
 673 542 l 1
 604 164 l 2
 584 54 630 1 630 1 c 1
 603 -0 l 1
 581 -61 539 -95 521 -136 c 1
 394 -138 l 1
 424 -70 472 -37 487 -6 c 1
 487 -6 485 -6 484 -6 c 1
 483 -6 l 1
 481 24 482 24 482 36 c 1
 450 7 410 -13 369 -13 c 0
 326 -13 292 10 278 45 c 1
 244 9 198 -13 151 -13 c 0
 118 -13 80 -1 61 36 c 0
 44 70 49 110 56 146 c 0
EndSplineSet
EndChar

StartChar: hard
Encoding: 1098 1098 425
Width: 613
Flags: W
LayerCount: 2
Fore
SplineSet
111 437 m 1
 130 543 l 1
 356 543 l 1
 315 326 l 1
 428 326 483 320 519 291 c 0
 565 254 593 205 581 140 c 0
 569 78 464 -14 355 -14 c 0
 243 -14 234 9 145 21 c 1
 224 437 l 1
 111 437 l 1
273 102 m 1
 273 102 305 80 352 80 c 0
 414 80 458 131 462 153 c 0
 467 177 452 215 414 223 c 0
 384 229 345 229 317 229 c 0
 297 229 l 1
 273 102 l 1
EndSplineSet
Substitution2: "Bulgarian variant forms-1" hard.bg
EndChar

StartChar: yeri
Encoding: 1099 1099 426
Width: 613
Flags: W
LayerCount: 2
Fore
SplineSet
44 22 m 1
 141 543 l 1
 253 543 l 1
 256 534 259 526 258 520 c 0
 256 509 248 511 246 498 c 2
 214 326 l 1
 327 326 361 318 396 290 c 0
 444 252 458 203 446 140 c 0
 435 80 375 21 308 2 c 0
 286 -4 252 -14 202 -14 c 0
 148 -14 124 5 44 22 c 1
170 99 m 1
 170 99 181 80 226 80 c 0
 282 80 323 130 327 153 c 0
 332 180 326 216 290 223 c 0
 259 230 240 229 207 229 c 2
 196 229 l 1
 170 99 l 1
473 -6 m 1
 473 -6 466 72 482 159 c 2
 553 543 l 1
 666 543 l 1
 669 534 671 524 670 520 c 0
 668 509 660 510 658 498 c 0
 596 164 l 2
 576 57 614 1 614 1 c 1
 473 -6 l 1
EndSplineSet
EndChar

StartChar: soft
Encoding: 1100 1100 427
Width: 613
Flags: W
LayerCount: 2
Fore
SplineSet
93 22 m 1
 190 543 l 1
 302 543 l 1
 305 534 308 526 307 520 c 0
 305 511 297 512 295 499 c 2
 263 330 l 1
 305 330 l 2
 419 330 463 322 500 294 c 0
 550 255 566 206 554 142 c 0
 543 81 481 22 410 2 c 0
 385 -5 338 -14 278 -14 c 0
 219 -14 172 6 93 22 c 1
221 93 m 1
 237 85 263 74 283 74 c 0
 318 74 338 74 370 82 c 0
 419 94 433 119 438 145 c 0
 443 174 437 213 396 222 c 0
 362 229 335 229 298 229 c 2
 245 229 l 1
 221 93 l 1
EndSplineSet
Substitution2: "Bulgarian variant forms-1" soft.bg
EndChar

StartChar: ecyrilrev
Encoding: 1101 1101 428
Width: 613
VWidth: 1046
Flags: W
LayerCount: 2
Fore
SplineSet
133 437 m 1
 185 489 249 553 376 553 c 0
 543 553 642 433 613 271 c 0
 584 109 443 -13 281 -13 c 0
 195 -13 113 16 59 88 c 1
 142 168 l 1
 169 124 224 93 293 93 c 0
 379 93 457 152 487 243 c 1
 245 243 l 1
 262 339 l 1
 500 339 l 1
 493 410 438 450 363 450 c 0
 280 450 229 393 225 387 c 0
 218 376 229 368 194 346 c 1
 133 437 l 1
EndSplineSet
EndChar

StartChar: iu
Encoding: 1102 1102 429
Width: 613
Flags: W
LayerCount: 2
Fore
SplineSet
44 0 m 1
 120 405 l 2
 133 476 117 507 100 539 c 1
 230 555 l 1
 239 529 250 495 239 439 c 2
 220 340 l 1
 275 340 l 1
 317 465 404 554 494 554 c 0
 580 554 655 461 619 266 c 0
 587 93 490 -14 392 -14 c 0
 297 -14 234 91 254 244 c 1
 203 244 l 1
 157 0 l 1
 44 0 l 1
379 271 m 0
 353 130 389 90 405 90 c 0
 427 90 477 141 501 268 c 0
 527 400 497 451 477 451 c 0
 454 451 403 395 379 271 c 0
EndSplineSet
Substitution2: "Bulgarian variant forms-1" iu.bg
EndChar

StartChar: ia
Encoding: 1103 1103 430
Width: 613
Flags: W
LayerCount: 2
Fore
SplineSet
52 0 m 1
 250 215 l 1
 234 221 223 228 211 238 c 0
 164 276 150 325 162 388 c 0
 173 448 233 518 301 538 c 0
 332 547 381 554 418 554 c 2
 451 554 l 2
 607 554 578 516 641 496 c 1
 625 478 616 476 608 434 c 2
 559 164 l 2
 539 52 577 1 577 1 c 1
 436 -6 l 1
 436 -6 426 64 444 156 c 2
 452 198 l 1
 372 198 l 1
 186 0 l 1
 52 0 l 1
278 375 m 0
 272 346 274 313 310 306 c 0
 343 299 347 299 376 299 c 2
 470 299 l 1
 498 442 l 1
 498 442 490 450 453 450 c 2
 394 450 l 2
 369 450 370 451 338 443 c 0
 294 432 283 400 278 375 c 0
EndSplineSet
EndChar

StartChar: Dje
Encoding: 1026 1026 433
Width: 613
Flags: W
LayerCount: 2
Fore
SplineSet
111 635 m 1
 129 740 l 1
 534 740 l 1
 516 635 l 1
 339 635 l 1
 307 455 l 1
 357 496 424 519 476 519 c 0
 538 519 627 499 646 431 c 0
 659 385 649 327 642 288 c 2
 603 66 l 2
 594 14 582 -45 541 -101 c 0
 491 -171 401 -207 326 -207 c 0
 292 -207 221 -207 152 -110 c 1
 240 -20 l 1
 263 -42 250 -48 256 -55 c 0
 263 -64 297 -102 347 -102 c 0
 378 -102 422 -85 442 -62 c 0
 470 -29 480 13 487 55 c 2
 527 285 l 2
 533 320 538 358 521 385 c 0
 512 398 463 411 426 411 c 0
 393 411 329 386 312 367 c 0
 300 353 286 320 280 301 c 1
 227 -1 l 1
 112 -1 l 1
 224 635 l 1
 111 635 l 1
EndSplineSet
EndChar

StartChar: Ecyril
Encoding: 1028 1028 435
Width: 613
Flags: W
LayerCount: 2
Fore
SplineSet
107 365 m 0
 158 656 348 745 471 745 c 0
 529 745 650 726 688 576 c 1
 579 527 l 1
 562 539 564 548 565 556 c 0
 566 560 566 561 567 565 c 16
 567 567 567 568 566 570 c 0
 547 617 503 648 451 648 c 0
 370 648 278 577 236 439 c 1
 522 439 l 1
 504 333 l 1
 215 333 l 1
 198 171 271 90 360 90 c 0
 440 90 490 148 523 186 c 1
 600 130 l 1
 518 26 426 -12 337 -12 c 0
 206 -12 57 84 107 365 c 0
EndSplineSet
EndChar

StartChar: Lje
Encoding: 1033 1033 440
Width: 613
Flags: W
LayerCount: 2
Fore
SplineSet
10 48 m 1
 69 153 l 1
 90 124 86 116 87 110 c 0
 87 107 89 100 91 100 c 0
 96 101 103 146 106 159 c 0
 126 237 186 536 207 655 c 0
 214 697 210 740 210 740 c 1
 523 740 l 1
 526 733 529 729 527 720 c 0
 525 710 518 710 516 698 c 2
 472 446 l 1
 480 446 l 2
 533 446 572 443 609 403 c 0
 647 360 662 297 647 212 c 0
 633 135 587 60 518 24 c 0
 474 1 434 1 398 1 c 0
 280 1 l 1
 392 636 l 1
 316 636 l 1
 287 495 231 206 207 122 c 0
 180 23 135 -8 94 -8 c 0
 64 -8 31 5 10 48 c 1
411 104 m 1
 424 104 l 2
 440 104 454 105 471 116 c 0
 499 134 524 179 533 229 c 0
 542 280 533 328 510 350 c 0
 497 362 483 365 466 365 c 2
 457 365 l 1
 411 104 l 1
EndSplineSet
EndChar

StartChar: Nje
Encoding: 1034 1034 441
Width: 613
Flags: W
LayerCount: 2
Fore
SplineSet
16 0 m 1
 146 739 l 1
 263 739 l 1
 267 729 269 726 268 719 c 0
 266 707 258 708 256 697 c 2
 210 438 l 1
 344 438 l 1
 397 740 l 1
 510 740 l 1
 514 730 516 727 515 720 c 0
 513 709 505 709 503 698 c 2
 459 446 l 1
 473 446 l 2
 525 445 567 441 603 403 c 0
 644 360 660 298 645 212 c 0
 631 135 584 60 512 24 c 0
 466 1 424 1 386 1 c 0
 267 1 l 1
 326 337 l 1
 192 337 l 1
 133 0 l 1
 16 0 l 1
398 104 m 1
 415 104 l 2
 432 104 448 105 467 117 c 0
 497 136 522 179 531 229 c 0
 540 279 531 327 505 349 c 0
 491 360 473 365 459 365 c 2
 444 365 l 1
 398 104 l 1
EndSplineSet
EndChar

StartChar: Tshe
Encoding: 1035 1035 442
Width: 613
Flags: W
LayerCount: 2
Fore
SplineSet
127 635 m 1
 145 740 l 1
 550 740 l 1
 532 635 l 1
 355 635 l 1
 323 455 l 1
 373 496 439 519 491 519 c 0
 554 519 630 497 649 431 c 0
 662 385 652 329 645 290 c 2
 594 -1 l 1
 479 -1 l 1
 529 285 l 2
 535 320 541 358 524 385 c 0
 515 400 478 411 442 411 c 0
 409 411 344 386 327 367 c 0
 315 353 302 320 296 301 c 1
 243 -1 l 1
 128 -1 l 1
 240 635 l 1
 127 635 l 1
EndSplineSet
EndChar

StartChar: Dzhe
Encoding: 1039 1039 445
Width: 613
Flags: W
LayerCount: 2
Fore
SplineSet
49 0 m 1
 179 739 l 1
 296 739 l 1
 299 732 302 728 300 719 c 0
 298 709 291 709 289 697 c 2
 184 101 l 1
 473 101 l 1
 585 739 l 1
 699 739 l 1
 702 730 705 725 704 720 c 0
 702 709 693 709 691 699 c 2
 568 0 l 1
 370 0 l 1
 340 -172 l 1
 226 -172 l 1
 256 0 l 1
 49 0 l 1
EndSplineSet
EndChar

StartChar: dje
Encoding: 1106 1106 446
Width: 613
Flags: W
LayerCount: 2
Fore
SplineSet
105 0 m 1
 213 614 l 1
 139 614 l 1
 156 709 l 1
 230 709 l 1
 244 788 l 1
 369 788 l 1
 371 781 372 777 371 770 c 0
 370 763 365 760 361 757 c 0
 357 754 355 751 354 745 c 2
 348 709 l 1
 481 709 l 1
 464 614 l 1
 331 614 l 1
 307 476 l 1
 357 522 422 555 486 555 c 0
 554 555 609 517 626 455 c 0
 638 413 632 374 623 324 c 2
 574 47 l 2
 566 2 557 -43 524 -90 c 0
 470 -168 382 -207 300 -207 c 0
 274 -207 187 -207 132 -116 c 1
 220 -20 l 1
 248 -46 237 -51 240 -56 c 0
 242 -60 266 -102 324 -102 c 0
 364 -102 404 -81 429 -43 c 0
 445 -19 453 5 458 32 c 2
 508 319 l 2
 514 355 521 395 501 423 c 0
 488 442 466 450 443 450 c 0
 394 450 338 409 315 385 c 0
 291 360 283 340 277 307 c 2
 223 0 l 1
 105 0 l 1
EndSplineSet
EndChar

StartChar: ecyril
Encoding: 1108 1108 448
Width: 613
Flags: W
LayerCount: 2
Fore
SplineSet
109 271 m 0
 138 433 279 553 447 553 c 0
 523 553 612 523 648 436 c 1
 555 346 l 1
 524 366 540 381 536 389 c 0
 532 397 504 450 423 450 c 0
 349 450 281 409 248 340 c 1
 507 340 l 1
 490 244 l 1
 226 244 l 1
 224 153 282 95 368 95 c 0
 424 95 500 123 545 169 c 1
 600 88 l 1
 544 31 433 -13 342 -13 c 0
 180 -13 80 109 109 271 c 0
EndSplineSet
EndChar

StartChar: lje
Encoding: 1113 1113 453
Width: 613
Flags: W
LayerCount: 2
Fore
SplineSet
8 49 m 1
 67 150 l 1
 91 122 85 111 86 106 c 0
 87 102 87 98 88 98 c 0
 93 98 99 137 105 159 c 0
 118 207 119 215 145 337 c 0
 158 399 189 458 221 494 c 0
 255 532 304 554 340 554 c 0
 466 554 409 529 506 506 c 1
 491 488 478 473 471 434 c 2
 452 326 l 1
 540 326 569 318 597 290 c 0
 636 251 647 201 635 139 c 0
 624 80 542 -14 457 -14 c 0
 389 -14 364 6 280 22 c 1
 362 457 l 1
 362 457 358 460 347 460 c 0
 317 460 268 386 253 320 c 0
 224 189 221 172 205 118 c 0
 177 21 134 -8 94 -8 c 0
 41 -8 20 29 8 49 c 1
408 97 m 1
 409 86 422 80 440 80 c 0
 491 80 521 127 526 152 c 0
 532 181 526 217 501 223 c 0
 476 229 465 229 434 229 c 1
 408 97 l 1
EndSplineSet
EndChar

StartChar: nje
Encoding: 1114 1114 454
Width: 613
Flags: W
LayerCount: 2
Fore
SplineSet
13 0 m 1
 88 404 l 2
 102 476 83 512 69 539 c 1
 204 555 l 1
 210 536 222 500 211 439 c 2
 191 331 l 1
 323 331 l 1
 363 541 l 1
 476 541 l 1
 479 532 482 526 480 519 c 0
 478 509 471 510 469 498 c 2
 437 330 l 1
 528 330 567 323 597 293 c 0
 636 254 646 204 634 141 c 0
 623 83 590 38 545 8 c 0
 530 -2 500 -14 425 -14 c 0
 344 -14 343 11 265 22 c 1
 304 229 l 1
 173 229 l 1
 130 0 l 1
 13 0 l 1
393 98 m 1
 394 89 434 80 460 80 c 0
 486 80 520 126 525 152 c 0
 531 181 526 217 501 223 c 0
 477 229 452 229 420 229 c 1
 393 98 l 1
EndSplineSet
EndChar

StartChar: tshe
Encoding: 1115 1115 455
Width: 613
Flags: W
LayerCount: 2
Fore
SplineSet
350 709 m 1
 484 709 l 1
 468 614 l 1
 333 614 l 1
 309 478 l 1
 359 523 421 555 485 555 c 0
 553 555 609 518 627 454 c 0
 640 409 631 364 624 324 c 2
 594 164 l 2
 574 58 615 1 615 1 c 1
 470 -6 l 1
 470 -6 460 62 478 157 c 2
 509 323 l 2
 516 359 522 397 503 424 c 0
 491 441 472 450 449 450 c 0
 399 450 341 408 317 384 c 0
 291 358 283 337 277 304 c 2
 220 0 l 1
 102 0 l 1
 215 614 l 1
 142 614 l 1
 158 709 l 1
 232 709 l 1
 246 788 l 1
 370 788 l 1
 372 776 372 776 372 767 c 0
 370 753 360 748 359 747 c 0
 358 746 356 744 356 743 c 2
 350 709 l 1
EndSplineSet
EndChar

StartChar: dzhe
Encoding: 1119 1119 458
Width: 613
Flags: W
LayerCount: 2
Fore
SplineSet
108 102 m 0
 94 150 103 199 111 243 c 2
 142 405 l 2
 156 475 139 507 122 539 c 1
 257 555 l 1
 264 534 276 498 265 438 c 2
 228 242 l 2
 221 207 216 171 227 140 c 0
 239 105 267 87 304 87 c 0
 350 87 400 117 430 156 c 0
 453 185 461 212 468 251 c 2
 523 542 l 1
 640 542 l 1
 570 164 l 2
 551 61 601 1 601 1 c 1
 456 -6 l 1
 456 -6 447 24 447 61 c 1
 429 46 412 34 394 24 c 1
 393 20 393 16 392 12 c 0
 379 -51 324 -96 306 -136 c 1
 179 -138 l 1
 209 -74 256 -33 267 -13 c 1
 192 -11 129 29 108 102 c 0
EndSplineSet
EndChar

StartChar: Geupturn
Encoding: 1168 1168 459
Width: 613
Flags: W
LayerCount: 2
Fore
SplineSet
65 0 m 1
 195 740 l 1
 564 740 l 1
 600 939 l 1
 715 939 l 1
 661 636 l 1
 286 636 l 1
 189 85 l 2
 182 44 181 33 175 0 c 1
 65 0 l 1
EndSplineSet
EndChar

StartChar: geupturn
Encoding: 1169 1169 460
Width: 613
Flags: W
LayerCount: 2
Fore
SplineSet
85 0 m 1
 186 544 l 1
 459 544 l 2
 486 544 514 583 519 611 c 2
 533 684 l 1
 671 692 l 1
 671 692 640 636 633 599 c 0
 622 539 589 491 544 460 c 0
 528 449 499 438 424 438 c 2
 282 438 l 1
 200 0 l 1
 85 0 l 1
EndSplineSet
EndChar

StartChar: te.mkd
Encoding: 65548 -1 465
Width: 613
Flags: W
LayerCount: 2
Fore
SplineSet
220 737 m 1
 654 737 l 1
 637 640 l 1
 203 640 l 1
 220 737 l 1
EndSplineSet
Refer: 423 1096 N 1 0 0 1 0 0 2
EndChar

StartChar: numero
Encoding: 8470 8470 467
Width: 613
Flags: W
LayerCount: 2
Fore
SplineSet
582 554 m 0
 638 554 671 489 646 347 c 0
 619 194 557 114 500 114 c 0
 439 114 412 204 435 333 c 0
 459 468 518 554 582 554 c 0
513 338 m 0
 495 235 512 203 517 203 c 0
 521 203 550 232 569 338 c 0
 588 444 568 467 563 467 c 0
 558 467 532 444 513 338 c 0
377 75 m 1
 616 75 l 1
 603 0 l 1
 364 0 l 1
 377 75 l 1
20 0 m 1
 150 739 l 1
 249 739 l 1
 288 322 l 1
 362 741 l 1
 469 741 l 1
 468 732 468 726 460 711 c 0
 456 705 455 705 454 699 c 2
 331 0 l 1
 248 0 l 1
 198 435 l 1
 121 0 l 1
 20 0 l 1
EndSplineSet
EndChar

StartChar: Hbar
Encoding: 294 294 468
Width: 613
Flags: W
LayerCount: 2
Fore
SplineSet
189 739 m 1
 306 739 l 1
 310 729 312 726 311 719 c 0
 309 705 302 710 299 695 c 2
 290 644 l 1
 549 644 l 1
 565 739 l 1
 679 739 l 1
 684 731 685 728 684 720 c 0
 682 706 674 710 672 699 c 2
 663 644 l 1
 713 644 l 1
 697 554 l 1
 647 554 l 1
 549 -1 l 1
 434 -1 l 1
 493 337 l 1
 235 337 l 1
 176 0 l 1
 59 0 l 1
 157 554 l 1
 113 554 l 1
 129 644 l 1
 173 644 l 1
 189 739 l 1
533 554 m 1
 274 554 l 1
 253 438 l 1
 512 438 l 1
 533 554 l 1
EndSplineSet
EndChar

StartChar: Tbar
Encoding: 358 358 491
Width: 613
Flags: W
LayerCount: 2
Fore
SplineSet
162 740 m 1
 704 740 l 1
 686 635 l 1
 468 635 l 1
 434 445 l 1
 602 445 l 1
 585 348 l 1
 417 348 l 1
 356 -1 l 1
 242 -1 l 1
 303 348 l 1
 147 348 l 1
 164 445 l 1
 320 445 l 1
 354 635 l 1
 144 635 l 1
 162 740 l 1
EndSplineSet
EndChar

StartChar: tbar
Encoding: 359 359 497
Width: 613
Flags: W
LayerCount: 2
Fore
SplineSet
340 685 m 1
 459 704 l 1
 464 689 464 688 463 681 c 0
 460 665 454 665 450 653 c 0
 441 630 426 571 419 543 c 1
 595 543 l 1
 577 441 l 1
 397 441 l 1
 387 408 379 375 372 343 c 1
 533 343 l 1
 516 246 l 1
 353 246 l 1
 353 244 l 2
 343 186 343 172 342 165 c 0
 337 114 373 99 406 99 c 0
 451 99 489 122 546 157 c 1
 567 60 l 1
 527 33 450 -10 363 -10 c 0
 304 -10 259 12 237 50 c 0
 210 97 221 152 229 197 c 0
 232 213 234 230 237 246 c 1
 127 246 l 1
 144 343 l 1
 257 343 l 1
 265 377 273 408 282 441 c 1
 156 441 l 1
 175 542 l 1
 305 542 l 1
 340 685 l 1
EndSplineSet
EndChar

StartChar: Uogonek
Encoding: 370 370 505
Width: 613
Flags: W
LayerCount: 2
Fore
SplineSet
184 739 m 1
 303 739 l 1
 307 725 307 725 306 719 c 0
 304 706 293 696 291 694 c 0
 288 691 289 692 288 688 c 2
 213 261 l 2
 207 226 202 194 212 163 c 0
 227 114 273 88 326 88 c 0
 378 88 432 113 466 162 c 0
 488 195 496 228 502 264 c 2
 585 739 l 1
 694 739 l 1
 610 263 l 2
 599 201 587 130 512 62 c 0
 499 50 460 13 427 -11 c 16
 381 -44 347 -73 335 -83 c 0
 325 -92 313 -103 311 -117 c 0
 309 -131 317 -142 335 -142 c 0
 341 -142 350 -141 363 -136 c 0
 385 -128 397 -122 414 -108 c 1
 402 -178 l 1
 375 -196 351 -209 308 -209 c 0
 244 -209 215 -176 222 -135 c 0
 228 -99 265 -57 326 -13 c 1
 320 -13 313 -13 307 -13 c 0
 215 -13 134 26 104 105 c 0
 84 157 91 209 100 259 c 2
 184 739 l 1
EndSplineSet
EndChar

StartChar: IJ
Encoding: 306 306 521
Width: 613
Flags: W
LayerCount: 2
Fore
SplineSet
15 -1 m 1
 32 99 l 1
 112 99 l 1
 208 639 l 1
 137 639 l 1
 154 739 l 1
 744 739 l 1
 727 639 l 1
 655 639 l 1
 555 71 l 2
 546 20 536 -37 495 -92 c 0
 445 -161 370 -199 294 -199 c 0
 236 -199 179 -184 119 -102 c 1
 208 -12 l 1
 221 -24 215 -35 224 -46 c 0
 231 -55 264 -94 314 -94 c 0
 344 -94 372 -80 395 -54 c 0
 423 -22 433 20 440 62 c 2
 443 77 l 1
 542 639 l 1
 322 639 l 1
 226 98 l 1
 327 98 l 1
 310 -1 l 1
 15 -1 l 1
EndSplineSet
EndChar

StartChar: ij
Encoding: 307 307 522
Width: 613
Flags: W
LayerCount: 2
Fore
SplineSet
342 441 m 9
 322 336 308 277 290 171 c 0
 284 136 279 105 310 105 c 0
 346 105 357 111 391 113 c 1
 369 0 l 9
 359 0 354 0 344 0 c 24
 333 0 327 0 316 0 c 16
 278 0 238 2 210 20 c 0
 167 48 160 103 173 166 c 0
 173 168 175 173 175 175 c 2
 225 442 l 1
 103 442 l 1
 121 543 l 1
 648 543 l 1
 555 44 l 2
 547 -1 537 -46 504 -92 c 0
 451 -169 365 -207 283 -207 c 0
 221 -207 155 -187 111 -114 c 1
 198 -20 l 1
 225 -47 211 -43 219 -58 c 0
 221 -62 244 -102 301 -102 c 0
 341 -102 384 -81 409 -41 c 0
 426 -17 431 8 436 35 c 2
 512 441 l 1
 342 441 l 9
255 706 m 0
 262 747 300 778 342 778 c 0
 390 778 415 738 408 699 c 0
 401 658 363 626 321 626 c 0
 272 626 248 667 255 706 c 0
542 706 m 0
 549 747 587 778 629 778 c 0
 677 778 702 738 695 699 c 0
 688 658 649 626 607 626 c 0
 558 626 535 668 542 706 c 0
EndSplineSet
EndChar

StartChar: napostrophe
Encoding: 329 329 525
Width: 613
Flags: W
LayerCount: 2
Fore
SplineSet
166 0 m 1
 236 377 l 2
 254 476 236 511 221 539 c 1
 356 555 l 1
 362 536 366 524 365 471 c 1
 407 515 455 554 528 555 c 0
 596 556 652 518 670 454 c 0
 683 409 674 364 667 324 c 0
 667 324 648 226 637 164 c 0
 619 61 658 1 658 1 c 1
 513 -6 l 1
 513 -6 506 73 521 157 c 0
 533 222 552 323 552 323 c 0
 559 359 565 397 546 424 c 0
 534 441 515 450 492 450 c 0
 444 450 408 411 381 384 c 0
 355 358 348 337 342 304 c 2
 284 0 l 1
 166 0 l 1
EndSplineSet
Refer: 56 8217 N 1 0 0 1 -195 0 2
EndChar

StartChar: slong
Encoding: 383 383 532
Width: 613
Flags: W
LayerCount: 2
Fore
SplineSet
154 -172 m 1
 287 551 l 0
 296 599 306 648 344 696 c 0
 396 762 478 796 558 796 c 0
 613 796 689 778 729 706 c 1
 666 612 l 1
 643 612 632 624 635 639 c 0
 635 641 636 643 635 645 c 0
 621 674 589 698 542 698 c 0
 502 698 461 680 434 644 c 1
 412 615 405 581 399 545 c 0
 398 541 398 538 397 534 c 0
 267 -172 l 1
 154 -172 l 1
EndSplineSet
EndChar

StartChar: endash
Encoding: 8211 8211 547
Width: 613
Flags: W
LayerCount: 2
Fore
SplineSet
189 443 m 1
 582 443 l 1
 563 334 l 1
 170 334 l 1
 189 443 l 1
EndSplineSet
EndChar

StartChar: emdash
Encoding: 8212 8212 548
Width: 613
Flags: W
LayerCount: 2
Fore
SplineSet
117 443 m 1
 662 443 l 1
 643 334 l 1
 98 334 l 1
 117 443 l 1
EndSplineSet
EndChar

StartChar: horizontalbar
Encoding: 8213 8213 549
Width: 613
Flags: W
LayerCount: 2
Fore
SplineSet
63 443 m 1
 708 443 l 1
 689 334 l 1
 44 334 l 1
 63 443 l 1
EndSplineSet
EndChar

StartChar: quotereversed
Encoding: 8219 8219 551
Width: 613
Flags: W
LayerCount: 2
Fore
SplineSet
304 643 m 0
 316 711 370 757 422 757 c 0
 470 757 499 718 491 674 c 0
 484 633 450 615 439 608 c 0
 427 602 416 596 414 583 c 0
 412 571 419 556 424 548 c 0
 439 519 451 506 480 478 c 1
 407 430 l 1
 323 532 291 570 304 643 c 0
EndSplineSet
EndChar

StartChar: perthousand
Encoding: 8240 8240 553
Width: 613
Flags: W
LayerCount: 2
Fore
SplineSet
350 306 m 0
 408 306 440 235 424 146 c 0
 409 59 353 -12 295 -12 c 0
 236 -12 205 59 221 147 c 0
 237 237 293 306 350 306 c 0
335 228 m 1
 334 228 315 220 303 151 c 0
 289 73 307 67 308 67 c 0
 310 67 327 76 339 143 c 0
 353 225 335 228 335 228 c 1
559 306 m 0
 617 306 649 235 633 146 c 0
 618 59 562 -12 504 -12 c 0
 445 -12 414 59 430 147 c 0
 446 237 502 306 559 306 c 0
544 228 m 1
 543 228 524 220 512 151 c 0
 498 73 516 67 517 67 c 0
 519 67 536 76 548 143 c 0
 562 225 544 228 544 228 c 1
393 739 m 1
 489 739 l 1
 146 0 l 1
 54 0 l 1
 393 739 l 1
250 753 m 0
 308 753 340 682 324 593 c 0
 309 506 253 435 195 435 c 0
 136 435 105 506 121 594 c 0
 137 684 193 753 250 753 c 0
235 675 m 1
 234 675 214 667 202 598 c 0
 188 520 207 514 208 514 c 0
 210 514 227 523 239 590 c 0
 253 672 235 675 235 675 c 1
EndSplineSet
EndChar

StartChar: minute
Encoding: 8242 8242 554
Width: 613
Flags: W
LayerCount: 2
Fore
SplineSet
435 758 m 1
 577 758 l 1
 413 523 l 1
 308 523 l 1
 435 758 l 1
EndSplineSet
EndChar

StartChar: nsuperior
Encoding: 8319 8319 558
Width: 613
Flags: W
LayerCount: 2
Fore
SplineSet
551 519 m 2
 544 472 l 2
 526 351 564 299 564 299 c 1
 431 292 l 1
 431 292 422 372 440 466 c 2
 445 492 l 2
 448 509 448 519 442 525 c 0
 439 532 432 536 419 536 c 0
 396 536 364 526 356 519 c 0
 348 512 341 497 338 478 c 2
 306 299 l 1
 202 299 l 1
 265 624 l 1
 369 624 l 1
 366 606 l 1
 393 622 420 632 450 632 c 0
 497 632 535 602 549 558 c 0
 554 541 553 529 551 519 c 2
EndSplineSet
EndChar

StartChar: franc
Encoding: 8355 8355 559
Width: 613
Flags: W
LayerCount: 2
Fore
SplineSet
223 0 m 1
 109 0 l 1
 149 228 l 1
 57 228 l 1
 75 331 l 1
 167 331 l 1
 177 384 l 1
 85 384 l 1
 103 486 l 1
 195 486 l 1
 239 740 l 1
 695 740 l 1
 677 637 l 1
 335 637 l 1
 309 486 l 1
 586 486 l 1
 568 384 l 1
 291 384 l 1
 281 331 l 1
 558 331 l 1
 540 228 l 1
 263 228 l 1
 223 0 l 1
EndSplineSet
EndChar

StartChar: lira
Encoding: 8356 8356 560
Width: 613
Flags: W
LayerCount: 2
Fore
SplineSet
644 665 m 1
 558 577 l 1
 526 607 542 604 534 612 c 0
 532 615 507 641 463 641 c 0
 408 641 345 604 330 520 c 0
 327 502 326 483 327 464 c 1
 448 464 l 1
 431 366 l 1
 333 366 l 1
 334 354 333 342 333 331 c 1
 424 331 l 1
 407 232 l 1
 320 232 l 1
 310 196 293 164 273 135 c 1
 276 135 275 135 277 135 c 0
 363 135 405 91 465 91 c 0
 512 91 541 115 564 133 c 1
 596 43 l 1
 567 23 509 -18 442 -18 c 0
 358 -18 318 35 239 35 c 0
 179 35 114 4 77 -15 c 1
 49 76 l 1
 134 110 137 113 155 133 c 0
 180 162 200 196 210 232 c 1
 116 232 l 1
 133 331 l 1
 221 331 l 1
 221 343 221 356 221 366 c 1
 140 366 l 1
 157 464 l 1
 215 464 l 1
 215 483 216 501 220 521 c 0
 244 655 364 739 482 739 c 0
 541 739 592 724 644 665 c 1
EndSplineSet
EndChar

StartChar: peseta
Encoding: 8359 8359 561
Width: 613
VWidth: 1046
Flags: W
LayerCount: 2
Fore
SplineSet
396 -12 m 0
 356 -12 328 16 318 54 c 0
 306 101 315 154 323 200 c 0
 336 272 355 370 371 441 c 1
 374 441 l 1
 362 403 331 359 305 339 c 0
 271 313 241 311 215 311 c 2
 167 311 l 1
 112 0 l 1
 15 0 l 1
 145 739 l 1
 286 739 l 2
 313 739 344 737 371 712 c 0
 395 689 418 623 404 543 c 1
 391 543 l 1
 424 688 l 1
 520 708 l 9
 520 699 521 689 520 686 c 0
 518 675 513 668 512 661 c 0
 507 641 491 568 486 543 c 1
 532 543 l 1
 550 564 581 570 597 570 c 0
 655 570 678 512 687 471 c 1
 640 373 l 1
 618 387 616 393 618 405 c 0
 619 410 619 410 619 411 c 0
 614 436 585 475 575 475 c 0
 573 475 553 461 545 418 c 0
 542 402 542 379 550 362 c 0
 558 345 596 332 620 295 c 0
 646 256 643 205 636 167 c 0
 622 87 570 -12 487 -12 c 0
 449 -12 433 -12 396 -12 c 0
223 631 m 1
 184 415 l 1
 223 415 l 2
 235 415 243 415 254 424 c 0
 272 439 290 478 297 520 c 0
 305 563 299 604 286 620 c 0
 277 631 270 631 257 631 c 2
 223 631 l 1
468 441 m 1
 466 441 l 1
 456 397 446 345 434 275 c 0
 420 196 418 176 417 171 c 0
 409 104 425 91 432 91 c 0
 452 91 477 90 505 90 c 0
 512 90 535 110 544 161 c 0
 547 179 549 204 541 221 c 0
 534 236 516 250 498 267 c 0
 482 282 444 327 457 403 c 0
 461 427 459 418 468 441 c 1
EndSplineSet
EndChar

StartChar: zerosuperior
Encoding: 8304 8304 562
Width: 613
Flags: W
LayerCount: 2
Fore
SplineSet
196 548 m 0
 220 683 338 770 444 770 c 0
 548 770 636 688 611 544 c 0
 582 379 458 296 361 296 c 0
 255 296 168 392 196 548 c 0
297 514 m 1
 486 654 l 1
 469 676 447 683 427 683 c 0
 385 683 316 643 301 556 c 0
 298 541 297 527 297 514 c 1
507 538 m 0
 510 555 511 572 511 586 c 1
 319 423 l 1
 336 396 358 385 380 385 c 0
 417 385 486 421 507 538 c 0
EndSplineSet
Substitution2: "Non-slashed zero-1" zerosuperior.noslash
EndChar

StartChar: fivesuperior
Encoding: 8309 8309 563
Width: 613
Flags: W
LayerCount: 2
Fore
SplineSet
224 532 m 1
 287 761 l 1
 623 761 l 1
 608 673 l 1
 367 673 l 1
 353 628 l 1
 379 634 401 636 425 636 c 0
 529 636 613 577 594 468 c 0
 574 354 465 296 358 296 c 0
 234 296 191 360 169 393 c 1
 270 446 l 1
 282 439 281 425 292 414 c 0
 302 404 330 384 373 384 c 0
 427 384 474 414 484 469 c 0
 494 526 455 555 401 555 c 0
 381 555 343 555 290 510 c 1
 224 532 l 1
EndSplineSet
EndChar

StartChar: sixsuperior
Encoding: 8310 8310 564
Width: 613
Flags: W
LayerCount: 2
Fore
SplineSet
259 662 m 0
 313 740 402 772 478 772 c 0
 559 772 593 742 628 711 c 1
 541 645 l 1
 511 660 519 667 513 671 c 0
 507 675 490 684 463 684 c 0
 431 684 367 677 336 614 c 1
 367 630 401 638 436 638 c 0
 527 638 607 578 588 470 c 0
 569 363 468 297 370 297 c 0
 313 297 259 318 228 364 c 0
 195 414 199 477 209 531 c 0
 216 570 230 620 259 662 c 0
481 466 m 0
 492 530 454 551 415 551 c 0
 381 551 341 531 314 504 c 1
 313 501 313 499 312 495 c 0
 300 429 336 385 388 385 c 0
 428 385 471 409 481 466 c 0
EndSplineSet
EndChar

StartChar: sevensuperior
Encoding: 8311 8311 565
Width: 613
Flags: W
LayerCount: 2
Fore
SplineSet
243 670 m 1
 259 761 l 1
 632 761 l 1
 624 713 l 1
 623 711 534 607 478 528 c 0
 418 443 395 391 342 304 c 17
 222 304 l 1
 282 401 320 459 390 553 c 16
 419 592 448 632 478 670 c 1
 243 670 l 1
EndSplineSet
EndChar

StartChar: eightsuperior
Encoding: 8312 8312 566
Width: 613
Flags: W
LayerCount: 2
Fore
SplineSet
251 652 m 0
 264 724 356 773 451 773 c 0
 542 773 617 727 604 656 c 0
 597 616 562 581 520 558 c 1
 565 531 593 490 585 442 c 0
 570 355 466 297 359 297 c 0
 254 297 170 354 185 439 c 0
 194 488 241 530 296 556 c 1
 263 579 244 613 251 652 c 0
476 443 m 0
 481 469 452 505 388 523 c 1
 335 505 302 472 297 446 c 0
 292 418 321 386 378 386 c 0
 434 386 471 417 476 443 c 0
493 635 m 0
 497 655 476 681 430 681 c 0
 385 681 358 657 355 639 c 0
 350 610 400 580 423 571 c 1
 466 590 490 616 493 635 c 0
EndSplineSet
EndChar

StartChar: ninesuperior
Encoding: 8313 8313 567
Width: 613
Flags: W
LayerCount: 2
Fore
SplineSet
550 414 m 0
 496 333 406 297 329 297 c 0
 250 297 213 328 176 359 c 1
 265 424 l 1
 295 410 284 403 292 398 c 0
 298 394 318 386 346 386 c 0
 383 386 425 400 451 436 c 1
 455 443 468 461 478 491 c 1
 447 476 414 468 380 468 c 0
 287 468 209 525 225 617 c 0
 241 709 340 772 440 772 c 0
 507 772 578 744 601 675 c 0
 611 645 611 608 602 557 c 0
 588 480 565 437 550 414 c 0
331 619 m 0
 323 576 358 555 401 555 c 0
 434 555 471 569 497 589 c 1
 499 595 499 596 500 600 c 0
 510 654 471 684 423 684 c 0
 380 684 339 662 331 619 c 0
EndSplineSet
EndChar

StartChar: litre
Encoding: 8467 8467 568
Width: 613
Flags: W
LayerCount: 2
Fore
SplineSet
420 105 m 0
 450 105 471 110 513 113 c 1
 491 0 l 9
 478 0 470 0 457 0 c 16
 444 0 412 1 401 1 c 0
 335 1 282 38 247 103 c 1
 219 91 191 79 117 79 c 1
 136 180 l 1
 163 180 178 180 213 195 c 1
 194 276 190 378 212 504 c 0
 227 590 289 796 445 796 c 0
 556 796 584 686 553 508 c 0
 533 395 455 257 350 170 c 1
 369 124 394 105 420 105 c 0
421 692 m 0
 405 692 352 637 332 501 c 0
 319 409 316 328 321 264 c 1
 378 334 421 423 433 491 c 0
 461 647 452 692 421 692 c 0
EndSplineSet
EndChar

StartChar: estimated
Encoding: 8494 8494 570
Width: 613
Flags: W
LayerCount: 2
Fore
SplineSet
317 748 m 0
 405 748 533 685 558 490 c 0
 562 463 564 436 564 405 c 0
 564 387 564 369 563 351 c 1
 185 351 l 1
 185 148 l 1
 231 87 293 68 335 68 c 0
 389 68 466 98 502 154 c 1
 549 100 l 1
 503 26 406 -12 328 -12 c 0
 182 -12 41 116 41 359 c 0
 41 624 187 748 317 748 c 0
185 422 m 1
 420 422 l 1
 420 614 l 1
 389 650 349 672 311 672 c 0
 277 672 225 653 185 597 c 1
 185 422 l 1
EndSplineSet
EndChar

StartChar: arrowleft
Encoding: 8592 8592 575
Width: 613
Flags: W
LayerCount: 2
Fore
SplineSet
228 109 m 1
 76 348 l 1
 83 383 l 1
 318 597 l 1
 361 517 l 1
 241 417 l 1
 673 417 l 1
 653 307 l 1
 218 307 l 1
 304 185 l 1
 228 109 l 1
EndSplineSet
EndChar

StartChar: arrowright
Encoding: 8594 8594 576
Width: 613
Flags: W
LayerCount: 2
Fore
SplineSet
425 109 m 1
 376 185 l 1
 504 307 l 1
 69 307 l 1
 89 417 l 1
 521 417 l 1
 435 517 l 1
 507 597 l 1
 667 383 l 1
 660 348 l 1
 425 109 l 1
EndSplineSet
EndChar

StartChar: arrowboth
Encoding: 8596 8596 577
Width: 613
Flags: W
LayerCount: 2
Fore
SplineSet
425 109 m 1
 376 185 l 1
 504 307 l 1
 218 307 l 1
 304 185 l 1
 228 109 l 1
 76 348 l 1
 83 383 l 1
 318 597 l 1
 361 517 l 1
 241 417 l 1
 521 417 l 1
 435 517 l 1
 507 597 l 1
 667 383 l 1
 660 348 l 1
 425 109 l 1
EndSplineSet
EndChar

StartChar: arrowupdn
Encoding: 8597 8597 578
Width: 613
Flags: W
LayerCount: 2
Fore
SplineSet
598 243 m 1
 312 -40 l 1
 271 -40 l 1
 102 247 l 1
 197 304 l 1
 280 168 l 1
 350 565 l 1
 202 416 l 1
 138 477 l 1
 425 760 l 1
 465 760 l 1
 634 473 l 1
 539 416 l 1
 458 561 l 1
 388 164 l 1
 534 304 l 1
 598 243 l 1
EndSplineSet
EndChar

StartChar: partialdiff
Encoding: 8706 8706 579
Width: 613
Flags: W
LayerCount: 2
Fore
SplineSet
395 466 m 0
 324 466 237 411 214 283 c 0
 192 156 254 90 329 90 c 0
 387 90 478 131 505 283 c 0
 532 434 449 466 395 466 c 0
262 769 m 1
 415 799 l 1
 496 744 682 620 626 304 c 0
 615 241 594 165 542 100 c 0
 483 26 396 -14 312 -14 c 0
 166 -14 62 106 91 272 c 0
 120 437 264 570 406 570 c 0
 443 570 476 559 503 543 c 1
 449 679 349 727 262 769 c 1
EndSplineSet
EndChar

StartChar: radical
Encoding: 8730 8730 585
Width: 613
Flags: W
LayerCount: 2
Fore
SplineSet
321 174 m 1
 667 795 l 1
 757 747 l 1
 343 0 l 1
 234 0 l 1
 183 339 l 1
 40 144 l 1
 78 355 l 1
 173 483 l 1
 274 483 l 1
 321 174 l 1
EndSplineSet
EndChar

StartChar: infinity
Encoding: 8734 8734 586
Width: 613
Flags: W
LayerCount: 2
Fore
SplineSet
354 304 m 1
 320 268 271 237 227 237 c 0
 149 237 100 327 114 408 c 0
 128 486 205 574 282 574 c 0
 341 574 382 541 403 504 c 1
 438 542 485 574 530 574 c 0
 608 574 657 484 643 403 c 0
 629 325 553 237 476 237 c 0
 418 237 376 267 354 304 c 1
483 334 m 0
 502 334 547 372 553 407 c 0
 559 441 529 478 512 478 c 0
 483 478 436 422 420 398 c 1
 434 363 456 334 483 334 c 0
274 477 m 0
 255 477 211 439 205 404 c 0
 199 370 229 333 246 333 c 0
 275 333 321 389 337 413 c 1
 323 448 301 477 274 477 c 0
EndSplineSet
EndChar

StartChar: orthogonal
Encoding: 8735 8735 587
Width: 613
Flags: W
LayerCount: 2
Fore
SplineSet
203 290 m 1
 515 290 l 1
 515 186 l 1
 99 186 l 1
 99 587 l 1
 203 587 l 1
 203 290 l 1
EndSplineSet
EndChar

StartChar: intersection
Encoding: 8745 8745 588
Width: 613
Flags: W
LayerCount: 2
Fore
SplineSet
54 72 m 1
 54 266 l 0
 54 320 56 375 86 430 c 0
 131 513 220 554 310 554 c 0
 402 554 490 513 534 431 c 0
 563 376 564 322 564 270 c 0
 564 72 l 1
 452 72 l 1
 452 271 l 0
 452 308 450 341 435 374 c 0
 411 425 361 453 308 453 c 0
 256 453 206 426 181 375 c 0
 165 341 164 306 164 268 c 0
 164 72 l 1
 54 72 l 1
EndSplineSet
EndChar

StartChar: integral
Encoding: 8747 8747 589
Width: 613
Flags: W
LayerCount: 2
Fore
SplineSet
377 45 m 2
 369 1 363 -46 330 -94 c 0
 278 -168 211 -207 128 -207 c 0
 39 -207 4 -157 -21 -116 c 1
 67 -20 l 1
 79 -30 82 -44 87 -56 c 0
 91 -67 95 -102 151 -102 c 0
 189 -102 209 -86 236 -45 c 0
 252 -21 257 4 262 32 c 0
 354 556 l 0
 362 603 373 650 411 697 c 0
 462 760 525 796 606 796 c 0
 683 796 717 766 755 709 c 1
 690 612 l 1
 679 612 658 612 660 637 c 8
 660 639 661 641 659 643 c 4
 643 677 630 698 585 698 c 0
 546 698 529 684 500 647 c 0
 479 620 472 587 466 552 c 0
 377 45 l 2
EndSplineSet
EndChar

StartChar: equivalence
Encoding: 8801 8801 592
Width: 613
Flags: W
LayerCount: 2
Fore
SplineSet
81 186 m 1
 599 186 l 1
 581 83 l 1
 63 83 l 1
 81 186 l 1
155 605 m 1
 673 605 l 1
 655 502 l 1
 137 502 l 1
 155 605 l 1
119 403 m 1
 637 403 l 1
 619 300 l 1
 101 300 l 1
 119 403 l 1
EndSplineSet
EndChar

StartChar: lthorizform
Encoding: 9472 9472 595
Width: 613
Flags: W
LayerCount: 2
Fore
SplineSet
0 368 m 0
 614 368 l 0
 614 289 l 0
 0 289 l 0
 0 368 l 0
EndSplineSet
EndChar

StartChar: ltvertform
Encoding: 9474 9474 596
Width: 613
Flags: W
LayerCount: 2
Fore
SplineSet
347 840 m 0
 347 -184 l 0
 268 -184 l 0
 268 840 l 0
 347 840 l 0
EndSplineSet
EndChar

StartChar: ltdnrtform
Encoding: 9484 9484 597
Width: 613
Flags: W
LayerCount: 2
Fore
SplineSet
268 368 m 5
 614 368 l 5
 614 289 l 5
 347 289 l 5
 347 -184 l 1
 268 -184 l 1
 268 368 l 5
EndSplineSet
EndChar

StartChar: ltdnleftform
Encoding: 9488 9488 598
Width: 613
Flags: W
LayerCount: 2
Fore
SplineSet
347 368 m 5
 347 -184 l 1
 268 -184 l 1
 268 289 l 5
 0 289 l 5
 0 368 l 5
 347 368 l 5
EndSplineSet
EndChar

StartChar: ltuprtform
Encoding: 9492 9492 599
Width: 613
Flags: W
LayerCount: 2
Fore
SplineSet
268 289 m 5
 268 840 l 1
 347 840 l 1
 347 368 l 5
 614 368 l 5
 614 289 l 5
 268 289 l 5
EndSplineSet
EndChar

StartChar: ltupleftform
Encoding: 9496 9496 600
Width: 613
Flags: W
LayerCount: 2
Fore
SplineSet
347 289 m 5
 0 289 l 5
 0 368 l 5
 268 368 l 5
 268 840 l 1
 347 840 l 1
 347 289 l 5
EndSplineSet
EndChar

StartChar: ltvertrightform
Encoding: 9500 9500 601
Width: 613
Flags: W
LayerCount: 2
Fore
SplineSet
268 840 m 1
 347 840 l 1
 347 368 l 5
 614 368 l 5
 614 289 l 5
 347 289 l 5
 347 -184 l 1
 268 -184 l 1
 268 840 l 1
EndSplineSet
EndChar

StartChar: ltvertleftform
Encoding: 9508 9508 602
Width: 613
Flags: W
LayerCount: 2
Fore
SplineSet
347 -184 m 1
 268 -184 l 1
 268 289 l 5
 0 289 l 5
 0 368 l 5
 268 368 l 5
 268 840 l 1
 347 840 l 1
 347 -184 l 1
EndSplineSet
EndChar

StartChar: ltdnhorizform
Encoding: 9516 9516 603
Width: 613
Flags: W
LayerCount: 2
Fore
SplineSet
614 368 m 5
 614 289 l 5
 347 289 l 5
 347 -184 l 1
 268 -184 l 1
 268 289 l 5
 0 289 l 5
 0 368 l 5
 614 368 l 5
EndSplineSet
EndChar

StartChar: ltuphorizform
Encoding: 9524 9524 604
Width: 613
Flags: W
LayerCount: 2
Fore
SplineSet
0 289 m 5
 0 368 l 5
 268 368 l 5
 268 840 l 1
 347 840 l 1
 347 368 l 5
 614 368 l 5
 614 289 l 5
 0 289 l 5
EndSplineSet
EndChar

StartChar: ltverthorizform
Encoding: 9532 9532 605
Width: 613
Flags: W
LayerCount: 2
Fore
SplineSet
347 289 m 5
 347 -184 l 1
 268 -184 l 1
 268 289 l 5
 0 289 l 5
 0 368 l 5
 268 368 l 5
 268 840 l 1
 347 840 l 1
 347 368 l 5
 614 368 l 5
 614 289 l 5
 347 289 l 5
EndSplineSet
EndChar

StartChar: dnrtdblform
Encoding: 9554 9554 608
Width: 613
Flags: W
LayerCount: 2
Fore
SplineSet
268 471 m 5
 614 471 l 5
 614 392 l 5
 347 392 l 5
 347 266 l 5
 614 266 l 5
 614 187 l 5
 347 187 l 5
 347 -184 l 1
 268 -184 l 1
 268 471 l 5
 268 471 l 5
EndSplineSet
EndChar

StartChar: dndblrtform
Encoding: 9555 9555 609
Width: 613
Flags: W
LayerCount: 2
Fore
SplineSet
165 368 m 5
 614 368 l 5
 614 289 l 5
 449 289 l 5
 449 -184 l 1
 370 -184 l 1
 370 289 l 5
 244 289 l 5
 244 -184 l 1
 165 -184 l 1
 165 368 l 5
EndSplineSet
EndChar

StartChar: dbldnrtform
Encoding: 9556 9556 610
Width: 613
Flags: W
LayerCount: 2
Fore
SplineSet
244 -184 m 1
 165 -184 l 1
 165 471 l 5
 614 471 l 5
 614 392 l 5
 244 392 l 5
 244 -184 l 1
370 266 m 5
 614 266 l 5
 614 187 l 5
 449 187 l 5
 449 -184 l 1
 370 -184 l 1
 370 266 l 5
EndSplineSet
EndChar

StartChar: dnleftdblform
Encoding: 9557 9557 611
Width: 613
Flags: W
LayerCount: 2
Fore
SplineSet
347 471 m 5
 347 471 l 5
 347 -184 l 1
 268 -184 l 1
 268 187 l 5
 0 187 l 5
 0 266 l 5
 268 266 l 5
 268 392 l 5
 0 392 l 5
 0 471 l 5
 347 471 l 5
EndSplineSet
EndChar

StartChar: dndblleftform
Encoding: 9558 9558 612
Width: 613
Flags: W
LayerCount: 2
Fore
SplineSet
449 368 m 1
 449 -184 l 1
 370 -184 l 1
 370 289 l 1
 244 289 l 1
 244 -184 l 1
 165 -184 l 1
 165 289 l 1
 0 289 l 1
 0 368 l 1
 449 368 l 1
EndSplineSet
EndChar

StartChar: dbldnleftform
Encoding: 9559 9559 613
Width: 613
Flags: W
LayerCount: 2
Fore
SplineSet
370 -184 m 1
 370 392 l 1
 0 392 l 1
 0 471 l 1
 449 471 l 1
 449 -184 l 1
 370 -184 l 1
244 266 m 1
 244 -184 l 1
 165 -184 l 1
 165 187 l 1
 0 187 l 1
 0 266 l 1
 244 266 l 1
EndSplineSet
EndChar

StartChar: uprtdblform
Encoding: 9560 9560 614
Width: 613
Flags: W
LayerCount: 2
Fore
SplineSet
268 184 m 5
 268 184 l 5
 268 840 l 1
 347 840 l 1
 347 468 l 5
 614 468 l 5
 614 390 l 5
 347 390 l 5
 347 264 l 5
 614 264 l 5
 614 185 l 5
 268 184 l 5
EndSplineSet
EndChar

StartChar: updblrtform
Encoding: 9561 9561 615
Width: 613
Flags: W
LayerCount: 2
Fore
SplineSet
165 287 m 5
 165 840 l 1
 244 840 l 1
 244 366 l 5
 370 366 l 5
 370 840 l 1
 449 840 l 1
 449 366 l 5
 614 366 l 5
 614 287 l 5
 165 287 l 5
EndSplineSet
EndChar

StartChar: dbluprtform
Encoding: 9562 9562 616
Width: 613
Flags: W
LayerCount: 2
Fore
SplineSet
244 840 m 1
 244 264 l 5
 614 264 l 5
 614 185 l 5
 165 185 l 5
 165 840 l 1
 244 840 l 1
370 390 m 5
 370 840 l 1
 449 840 l 1
 449 468 l 5
 614 468 l 5
 614 390 l 5
 370 390 l 5
EndSplineSet
EndChar

StartChar: upleftdblform
Encoding: 9563 9563 617
Width: 613
Flags: W
LayerCount: 2
Fore
SplineSet
347 184 m 5
 0 185 l 5
 0 264 l 5
 268 264 l 5
 268 390 l 5
 0 390 l 5
 0 468 l 5
 268 468 l 5
 268 840 l 1
 347 840 l 1
 347 184 l 5
 347 184 l 5
EndSplineSet
EndChar

StartChar: updblleftform
Encoding: 9564 9564 618
Width: 613
Flags: W
LayerCount: 2
Fore
SplineSet
449 287 m 1
 0 287 l 1
 0 366 l 1
 165 366 l 1
 165 840 l 1
 244 840 l 1
 244 366 l 1
 370 366 l 1
 370 840 l 1
 449 840 l 1
 449 287 l 1
EndSplineSet
EndChar

StartChar: dblupleftform
Encoding: 9565 9565 619
Width: 613
Flags: W
LayerCount: 2
Fore
SplineSet
370 840 m 1
 449 840 l 1
 449 185 l 1
 0 185 l 1
 0 264 l 1
 370 264 l 1
 370 840 l 1
244 390 m 1
 0 390 l 1
 0 468 l 1
 165 468 l 1
 165 840 l 1
 244 840 l 1
 244 390 l 1
EndSplineSet
EndChar

StartChar: vertrtdblform
Encoding: 9566 9566 620
Width: 613
Flags: W
LayerCount: 2
Fore
SplineSet
268 840 m 1
 347 840 l 1
 347 471 l 1
 614 471 l 1
 614 392 l 1
 347 392 l 1
 347 266 l 1
 614 266 l 1
 614 187 l 1
 347 187 l 1
 347 -184 l 1
 268 -184 l 1
 268 840 l 1
EndSplineSet
EndChar

StartChar: vertdblrtform
Encoding: 9567 9567 621
Width: 613
Flags: W
LayerCount: 2
Fore
SplineSet
244 -184 m 1
 165 -184 l 1
 165 840 l 1
 244 840 l 1
 244 -184 l 1
370 840 m 1
 449 840 l 1
 449 368 l 1
 614 368 l 1
 614 289 l 1
 449 289 l 1
 449 -184 l 1
 370 -184 l 1
 370 840 l 1
EndSplineSet
EndChar

StartChar: dblvertrtform
Encoding: 9568 9568 622
Width: 613
Flags: W
LayerCount: 2
Fore
SplineSet
244 -184 m 1
 165 -184 l 1
 165 840 l 1
 244 840 l 1
 244 -184 l 1
370 840 m 1
 449 840 l 1
 449 471 l 1
 614 471 l 1
 614 392 l 1
 370 392 l 1
 370 840 l 1
370 266 m 1
 614 266 l 1
 614 187 l 1
 449 187 l 1
 449 -184 l 1
 370 -184 l 1
 370 266 l 1
EndSplineSet
EndChar

StartChar: vertleftdblform
Encoding: 9569 9569 623
Width: 613
Flags: W
LayerCount: 2
Fore
SplineSet
347 840 m 1
 347 -184 l 1
 268 -184 l 1
 268 187 l 1
 0 187 l 1
 0 266 l 1
 268 266 l 1
 268 392 l 1
 0 392 l 1
 0 471 l 1
 268 471 l 1
 268 840 l 1
 347 840 l 1
EndSplineSet
EndChar

StartChar: vertdblleftform
Encoding: 9570 9570 624
Width: 613
Flags: W
LayerCount: 2
Fore
SplineSet
370 -184 m 1
 370 840 l 1
 449 840 l 1
 449 -184 l 1
 370 -184 l 1
244 840 m 1
 244 -184 l 1
 165 -184 l 1
 165 289 l 1
 0 289 l 1
 0 368 l 1
 165 368 l 1
 165 840 l 1
 244 840 l 1
EndSplineSet
EndChar

StartChar: dblvertleftform
Encoding: 9571 9571 625
Width: 613
Flags: W
LayerCount: 2
Fore
SplineSet
370 -184 m 1
 370 840 l 1
 449 840 l 1
 449 -184 l 1
 370 -184 l 1
244 840 m 1
 244 392 l 1
 0 392 l 1
 0 471 l 1
 165 471 l 1
 165 840 l 1
 244 840 l 1
244 266 m 1
 244 -184 l 1
 165 -184 l 1
 165 187 l 1
 0 187 l 1
 0 266 l 1
 244 266 l 1
EndSplineSet
EndChar

StartChar: dnhorizdblform
Encoding: 9572 9572 626
Width: 613
Flags: W
LayerCount: 2
Fore
SplineSet
0 471 m 1
 614 471 l 1
 614 392 l 1
 0 392 l 1
 0 471 l 1
0 266 m 1
 614 266 l 1
 614 187 l 1
 347 187 l 1
 347 -184 l 1
 268 -184 l 1
 268 187 l 1
 0 187 l 1
 0 266 l 1
EndSplineSet
EndChar

StartChar: dndblhorizform
Encoding: 9573 9573 627
Width: 613
Flags: W
LayerCount: 2
Fore
SplineSet
0 368 m 1
 614 368 l 1
 614 289 l 1
 449 289 l 1
 449 -184 l 1
 370 -184 l 1
 370 289 l 1
 244 289 l 1
 244 -184 l 1
 165 -184 l 1
 165 289 l 1
 0 289 l 1
 0 368 l 1
EndSplineSet
EndChar

StartChar: dbldnhorizform
Encoding: 9574 9574 628
Width: 613
Flags: W
LayerCount: 2
Fore
SplineSet
0 471 m 1
 614 471 l 1
 614 392 l 1
 0 392 l 1
 0 471 l 1
165 187 m 1
 0 187 l 1
 0 266 l 1
 244 266 l 1
 244 -184 l 1
 165 -184 l 1
 165 187 l 1
449 187 m 1
 449 -184 l 1
 370 -184 l 1
 370 266 l 1
 614 266 l 1
 614 187 l 1
 449 187 l 1
EndSplineSet
EndChar

StartChar: uphorizdblform
Encoding: 9575 9575 629
Width: 613
Flags: W
LayerCount: 2
Fore
SplineSet
0 185 m 1
 0 264 l 1
 614 264 l 1
 614 185 l 1
 0 185 l 1
0 390 m 1
 0 468 l 1
 268 468 l 1
 268 840 l 1
 347 840 l 1
 347 468 l 1
 614 468 l 1
 614 390 l 1
 0 390 l 1
EndSplineSet
EndChar

StartChar: updblhorizform
Encoding: 9576 9576 630
Width: 613
Flags: W
LayerCount: 2
Fore
SplineSet
0 287 m 1
 0 366 l 1
 165 366 l 1
 165 840 l 1
 244 840 l 1
 244 366 l 1
 370 366 l 1
 370 840 l 1
 449 840 l 1
 449 366 l 1
 614 366 l 1
 614 287 l 1
 0 287 l 1
EndSplineSet
EndChar

StartChar: dbluphorizform
Encoding: 9577 9577 631
Width: 613
Flags: W
LayerCount: 2
Fore
SplineSet
0 185 m 1
 0 264 l 1
 614 264 l 1
 614 185 l 1
 0 185 l 1
165 468 m 1
 165 840 l 1
 244 840 l 1
 244 390 l 1
 0 390 l 1
 0 468 l 1
 165 468 l 1
449 468 m 1
 614 468 l 1
 614 390 l 1
 370 390 l 1
 370 840 l 1
 449 840 l 1
 449 468 l 1
EndSplineSet
EndChar

StartChar: verthorizdblform
Encoding: 9578 9578 632
Width: 613
Flags: W
LayerCount: 2
Fore
SplineSet
268 266 m 1
 268 392 l 1
 0 392 l 1
 0 471 l 1
 268 471 l 1
 268 840 l 1
 347 840 l 1
 347 471 l 1
 614 471 l 1
 614 392 l 1
 347 392 l 1
 347 266 l 1
 614 266 l 1
 614 187 l 1
 347 187 l 1
 347 -184 l 1
 268 -184 l 1
 268 187 l 1
 0 187 l 1
 0 266 l 1
 268 266 l 1
EndSplineSet
EndChar

StartChar: vertdblhorizform
Encoding: 9579 9579 633
Width: 613
Flags: W
LayerCount: 2
Fore
SplineSet
165 368 m 1
 165 840 l 1
 244 840 l 1
 244 368 l 1
 370 368 l 1
 370 840 l 1
 449 840 l 1
 449 368 l 1
 614 368 l 1
 614 289 l 1
 449 289 l 1
 449 -184 l 1
 370 -184 l 1
 370 289 l 1
 244 289 l 1
 244 -184 l 1
 165 -184 l 1
 165 289 l 1
 0 289 l 1
 0 368 l 1
 165 368 l 1
EndSplineSet
EndChar

StartChar: dblverthorizform
Encoding: 9580 9580 634
Width: 613
Flags: W
LayerCount: 2
Fore
SplineSet
370 392 m 1
 370 840 l 1
 449 840 l 1
 449 471 l 1
 614 471 l 1
 614 392 l 1
 370 392 l 1
370 266 m 1
 614 266 l 1
 614 187 l 1
 449 187 l 1
 449 -184 l 1
 370 -184 l 1
 370 266 l 1
244 266 m 1
 244 -184 l 1
 165 -184 l 1
 165 187 l 1
 0 187 l 1
 0 266 l 1
 244 266 l 1
244 392 m 1
 0 392 l 1
 0 471 l 1
 165 471 l 1
 165 840 l 1
 244 840 l 1
 244 392 l 1
EndSplineSet
EndChar

StartChar: dnblock
Encoding: 9604 9604 635
Width: 613
Flags: W
LayerCount: 2
Fore
SplineSet
0 328 m 29
 614 328 l 29
 614 -184 l 29
 0 -184 l 29
 0 328 l 29
EndSplineSet
EndChar

StartChar: block
Encoding: 9608 9608 636
Width: 613
Flags: W
LayerCount: 2
Fore
SplineSet
0 840 m 25
 614 840 l 25
 614 -184 l 25
 0 -184 l 25
 0 840 l 25
EndSplineSet
EndChar

StartChar: lfblock
Encoding: 9612 9612 637
Width: 613
Flags: W
LayerCount: 2
Fore
SplineSet
0 840 m 25
 307 840 l 25
 307 -184 l 29
 0 -184 l 25
 0 840 l 25
EndSplineSet
EndChar

StartChar: shade
Encoding: 9618 9618 638
Width: 613
Flags: W
LayerCount: 2
Fore
SplineSet
0 840 m 1
 61 840 l 1
 61 788 l 1
 0 788 l 1
 0 840 l 1
123 840 m 1
 184 840 l 1
 184 788 l 1
 123 788 l 1
 123 737 l 1
 61 737 l 1
 61 788 l 1
 123 788 l 1
 123 840 l 1
246 840 m 1
 307 840 l 1
 307 788 l 1
 246 788 l 1
 246 737 l 1
 184 737 l 1
 184 788 l 1
 246 788 l 1
 246 840 l 1
369 840 m 1
 430 840 l 1
 430 788 l 1
 369 788 l 1
 369 737 l 1
 307 737 l 1
 307 788 l 1
 369 788 l 1
 369 840 l 1
492 840 m 1
 553 840 l 1
 553 788 l 1
 492 788 l 1
 492 737 l 1
 430 737 l 1
 430 788 l 1
 492 788 l 1
 492 840 l 1
553 788 m 1
 614 788 l 1
 614 737 l 1
 553 737 l 1
 553 788 l 1
61 737 m 1
 61 686 l 1
 0 686 l 1
 0 737 l 1
 61 737 l 1
61 686 m 1
 123 686 l 1
 123 635 l 1
 61 635 l 1
 61 686 l 1
123 686 m 1
 123 737 l 1
 184 737 l 1
 184 686 l 1
 123 686 l 1
184 686 m 1
 246 686 l 1
 246 635 l 1
 184 635 l 1
 184 686 l 1
246 686 m 1
 246 737 l 1
 307 737 l 1
 307 686 l 1
 246 686 l 1
307 686 m 1
 369 686 l 1
 369 635 l 1
 307 635 l 1
 307 686 l 1
369 686 m 1
 369 737 l 1
 430 737 l 1
 430 686 l 1
 369 686 l 1
430 686 m 1
 492 686 l 1
 492 635 l 1
 430 635 l 1
 430 686 l 1
492 686 m 1
 492 737 l 1
 553 737 l 1
 553 686 l 1
 492 686 l 1
553 686 m 1
 614 686 l 1
 614 635 l 1
 553 635 l 1
 553 686 l 1
61 635 m 1
 61 584 l 1
 0 584 l 1
 0 635 l 1
 61 635 l 1
61 584 m 1
 123 584 l 1
 123 532 l 1
 61 532 l 1
 61 584 l 1
123 584 m 1
 123 635 l 1
 184 635 l 1
 184 584 l 1
 123 584 l 1
184 584 m 1
 246 584 l 1
 246 532 l 1
 184 532 l 1
 184 584 l 1
246 584 m 1
 246 635 l 1
 307 635 l 1
 307 584 l 1
 246 584 l 1
307 584 m 1
 369 584 l 1
 369 532 l 1
 307 532 l 1
 307 584 l 1
369 584 m 1
 369 635 l 1
 430 635 l 1
 430 584 l 1
 369 584 l 1
430 584 m 1
 492 584 l 1
 492 532 l 1
 430 532 l 1
 430 584 l 1
492 584 m 1
 492 635 l 1
 553 635 l 1
 553 584 l 1
 492 584 l 1
553 584 m 1
 614 584 l 1
 614 532 l 1
 553 532 l 1
 553 584 l 1
61 532 m 1
 61 481 l 1
 0 481 l 1
 0 532 l 1
 61 532 l 1
61 481 m 1
 123 481 l 1
 123 430 l 1
 61 430 l 1
 61 481 l 1
123 481 m 1
 123 532 l 1
 184 532 l 1
 184 481 l 1
 123 481 l 1
184 481 m 1
 246 481 l 1
 246 430 l 1
 184 430 l 1
 184 481 l 1
246 481 m 1
 246 532 l 1
 307 532 l 1
 307 481 l 1
 246 481 l 1
307 481 m 1
 369 481 l 1
 369 430 l 1
 307 430 l 1
 307 481 l 1
369 481 m 1
 369 532 l 1
 430 532 l 1
 430 481 l 1
 369 481 l 1
430 481 m 1
 492 481 l 1
 492 430 l 1
 430 430 l 1
 430 481 l 1
492 481 m 1
 492 532 l 1
 553 532 l 1
 553 481 l 1
 492 481 l 1
553 481 m 1
 614 481 l 1
 614 430 l 1
 553 430 l 1
 553 481 l 1
61 430 m 1
 61 379 l 1
 0 379 l 1
 0 430 l 1
 61 430 l 1
61 379 m 1
 123 379 l 1
 123 328 l 1
 61 328 l 1
 61 379 l 1
123 379 m 1
 123 430 l 1
 184 430 l 1
 184 379 l 1
 123 379 l 1
184 379 m 1
 246 379 l 1
 246 328 l 1
 184 328 l 1
 184 379 l 1
246 379 m 1
 246 430 l 1
 307 430 l 1
 307 379 l 1
 246 379 l 1
307 379 m 1
 369 379 l 1
 369 328 l 1
 307 328 l 1
 307 379 l 1
369 379 m 1
 369 430 l 1
 430 430 l 1
 430 379 l 1
 369 379 l 1
430 379 m 1
 492 379 l 1
 492 328 l 1
 430 328 l 1
 430 379 l 1
492 379 m 1
 492 430 l 1
 553 430 l 1
 553 379 l 1
 492 379 l 1
553 379 m 1
 614 379 l 1
 614 328 l 1
 553 328 l 1
 553 379 l 1
61 328 m 1
 61 276 l 1
 0 276 l 1
 0 328 l 1
 61 328 l 1
61 276 m 1
 123 276 l 1
 123 225 l 1
 61 225 l 1
 61 276 l 1
123 276 m 1
 123 328 l 1
 184 328 l 1
 184 276 l 1
 123 276 l 1
184 276 m 1
 246 276 l 1
 246 225 l 1
 184 225 l 1
 184 276 l 1
246 276 m 1
 246 328 l 1
 307 328 l 1
 307 276 l 1
 246 276 l 1
307 276 m 1
 369 276 l 1
 369 225 l 1
 307 225 l 1
 307 276 l 1
369 276 m 1
 369 328 l 1
 430 328 l 1
 430 276 l 1
 369 276 l 1
430 276 m 1
 492 276 l 1
 492 225 l 1
 430 225 l 1
 430 276 l 1
492 276 m 1
 492 328 l 1
 553 328 l 1
 553 276 l 1
 492 276 l 1
553 276 m 1
 614 276 l 1
 614 225 l 1
 553 225 l 1
 553 276 l 1
61 225 m 1
 61 174 l 1
 0 174 l 1
 0 225 l 1
 61 225 l 1
61 174 m 1
 123 174 l 1
 123 123 l 1
 61 123 l 1
 61 174 l 1
123 174 m 1
 123 225 l 1
 184 225 l 1
 184 174 l 1
 123 174 l 1
184 174 m 1
 246 174 l 1
 246 123 l 1
 184 123 l 1
 184 174 l 1
246 174 m 1
 246 225 l 1
 307 225 l 1
 307 174 l 1
 246 174 l 1
307 174 m 1
 369 174 l 1
 369 123 l 1
 307 123 l 1
 307 174 l 1
369 174 m 1
 369 225 l 1
 430 225 l 1
 430 174 l 1
 369 174 l 1
430 174 m 1
 492 174 l 1
 492 123 l 1
 430 123 l 1
 430 174 l 1
492 174 m 1
 492 225 l 1
 553 225 l 1
 553 174 l 1
 492 174 l 1
553 174 m 1
 614 174 l 1
 614 123 l 1
 553 123 l 1
 553 174 l 1
61 123 m 1
 61 72 l 1
 0 72 l 1
 0 123 l 1
 61 123 l 1
61 72 m 1
 123 72 l 1
 123 20 l 1
 61 20 l 1
 61 72 l 1
123 72 m 1
 123 123 l 1
 184 123 l 1
 184 72 l 1
 123 72 l 1
184 72 m 1
 246 72 l 1
 246 20 l 1
 184 20 l 1
 184 72 l 1
246 72 m 1
 246 123 l 1
 307 123 l 1
 307 72 l 1
 246 72 l 1
307 72 m 1
 369 72 l 1
 369 20 l 1
 307 20 l 1
 307 72 l 1
369 72 m 1
 369 123 l 1
 430 123 l 1
 430 72 l 1
 369 72 l 1
430 72 m 1
 492 72 l 1
 492 20 l 1
 430 20 l 1
 430 72 l 1
492 72 m 1
 492 123 l 1
 553 123 l 1
 553 72 l 1
 492 72 l 1
553 72 m 1
 614 72 l 1
 614 20 l 1
 553 20 l 1
 553 72 l 1
61 20 m 1
 61 -31 l 1
 0 -31 l 1
 0 20 l 1
 61 20 l 1
61 -31 m 1
 123 -31 l 1
 123 -82 l 1
 61 -82 l 1
 61 -31 l 1
123 -31 m 1
 123 20 l 1
 184 20 l 1
 184 -31 l 1
 123 -31 l 1
184 -31 m 1
 246 -31 l 1
 246 -82 l 1
 184 -82 l 1
 184 -31 l 1
246 -31 m 1
 246 20 l 1
 307 20 l 1
 307 -31 l 1
 246 -31 l 1
307 -31 m 1
 369 -31 l 1
 369 -82 l 1
 307 -82 l 1
 307 -31 l 1
369 -31 m 1
 369 20 l 1
 430 20 l 1
 430 -31 l 1
 369 -31 l 1
430 -31 m 1
 492 -31 l 1
 492 -82 l 1
 430 -82 l 1
 430 -31 l 1
492 -31 m 1
 492 20 l 1
 553 20 l 1
 553 -31 l 1
 492 -31 l 1
553 -31 m 1
 614 -31 l 1
 614 -82 l 1
 553 -82 l 1
 553 -31 l 1
61 -82 m 1
 61 -133 l 1
 0 -133 l 1
 0 -82 l 1
 61 -82 l 1
61 -133 m 1
 123 -133 l 1
 123 -184 l 1
 61 -184 l 1
 61 -133 l 1
123 -133 m 1
 123 -82 l 1
 184 -82 l 1
 184 -133 l 1
 123 -133 l 1
184 -133 m 1
 246 -133 l 1
 246 -184 l 1
 184 -184 l 1
 184 -133 l 1
246 -133 m 1
 246 -82 l 1
 307 -82 l 1
 307 -133 l 1
 246 -133 l 1
307 -133 m 1
 369 -133 l 1
 369 -184 l 1
 307 -184 l 1
 307 -133 l 1
369 -133 m 1
 369 -82 l 1
 430 -82 l 1
 430 -133 l 1
 369 -133 l 1
430 -133 m 1
 492 -133 l 1
 492 -184 l 1
 430 -184 l 1
 430 -133 l 1
492 -133 m 1
 492 -82 l 1
 553 -82 l 1
 553 -133 l 1
 492 -133 l 1
553 -133 m 1
 614 -133 l 1
 614 -184 l 1
 553 -184 l 1
 553 -133 l 1
EndSplineSet
EndChar

StartChar: dkshade
Encoding: 9619 9619 639
Width: 613
Flags: W
LayerCount: 2
Fore
SplineSet
0 840 m 1
 61 840 l 1
 61 788 l 1
 123 788 l 1
 123 840 l 1
 184 840 l 1
 184 788 l 1
 246 788 l 1
 246 840 l 1
 307 840 l 1
 307 788 l 1
 369 788 l 1
 369 840 l 1
 430 840 l 1
 430 788 l 1
 492 788 l 1
 492 840 l 1
 553 840 l 1
 553 788 l 1
 614 788 l 1
 614 635 l 1
 553 635 l 1
 553 584 l 1
 614 584 l 1
 614 430 l 1
 553 430 l 1
 553 379 l 1
 614 379 l 1
 614 225 l 1
 553 225 l 1
 553 174 l 1
 614 174 l 1
 614 20 l 1
 553 20 l 1
 553 -31 l 1
 614 -31 l 1
 614 -184 l 1
 409 -184 205 -184 0 -184 c 1
 0 -133 l 1
 61 -133 l 1
 61 -82 l 1
 0 -82 l 1
 0 72 l 1
 61 72 l 1
 61 123 l 1
 0 123 l 1
 0 276 l 1
 61 276 l 1
 61 328 l 1
 0 328 l 1
 0 481 l 1
 61 481 l 1
 61 532 l 1
 0 532 l 1
 0 686 l 1
 61 686 l 1
 61 737 l 1
 0 737 l 1
 0 771 0 806 0 840 c 1
123 737 m 1
 123 686 l 1
 184 686 l 1
 184 737 l 1
 123 737 l 1
246 737 m 1
 246 686 l 1
 307 686 l 1
 307 737 l 1
 246 737 l 1
369 737 m 1
 369 686 l 1
 430 686 l 1
 430 737 l 1
 369 737 l 1
492 737 m 1
 492 686 l 1
 553 686 l 1
 553 737 l 1
 492 737 l 1
61 635 m 1
 61 584 l 1
 123 584 l 1
 123 635 l 1
 61 635 l 1
184 635 m 1
 184 584 l 1
 246 584 l 1
 246 635 l 1
 184 635 l 1
307 635 m 1
 307 584 l 1
 369 584 l 1
 369 635 l 1
 307 635 l 1
430 635 m 1
 430 584 l 1
 492 584 l 1
 492 635 l 1
 430 635 l 1
123 532 m 1
 123 481 l 1
 184 481 l 1
 184 532 l 1
 123 532 l 1
246 532 m 1
 246 481 l 1
 307 481 l 1
 307 532 l 1
 246 532 l 1
369 532 m 1
 369 481 l 1
 430 481 l 1
 430 532 l 1
 369 532 l 1
492 532 m 1
 492 481 l 1
 553 481 l 1
 553 532 l 1
 492 532 l 1
61 430 m 1
 61 379 l 1
 123 379 l 1
 123 430 l 1
 61 430 l 1
184 430 m 1
 184 379 l 1
 246 379 l 1
 246 430 l 1
 184 430 l 1
307 430 m 1
 307 379 l 1
 369 379 l 1
 369 430 l 1
 307 430 l 1
430 430 m 1
 430 379 l 1
 492 379 l 1
 492 430 l 1
 430 430 l 1
123 328 m 1
 123 276 l 1
 184 276 l 1
 184 328 l 1
 123 328 l 1
246 328 m 1
 246 276 l 1
 307 276 l 1
 307 328 l 1
 246 328 l 1
369 328 m 1
 369 276 l 1
 430 276 l 1
 430 328 l 1
 369 328 l 1
492 328 m 1
 492 276 l 1
 553 276 l 1
 553 328 l 1
 492 328 l 1
61 225 m 1
 61 174 l 1
 123 174 l 1
 123 225 l 1
 61 225 l 1
184 225 m 1
 184 174 l 1
 246 174 l 1
 246 225 l 1
 184 225 l 1
307 225 m 1
 307 174 l 1
 369 174 l 1
 369 225 l 1
 307 225 l 1
430 225 m 1
 430 174 l 1
 492 174 l 1
 492 225 l 1
 430 225 l 1
123 123 m 1
 123 72 l 1
 184 72 l 1
 184 123 l 1
 123 123 l 1
246 123 m 1
 246 72 l 1
 307 72 l 1
 307 123 l 1
 246 123 l 1
369 123 m 1
 369 72 l 1
 430 72 l 1
 430 123 l 1
 369 123 l 1
492 123 m 1
 492 72 l 1
 553 72 l 1
 553 123 l 1
 492 123 l 1
61 20 m 1
 61 -31 l 1
 123 -31 l 1
 123 20 l 1
 61 20 l 1
184 20 m 1
 184 -31 l 1
 246 -31 l 1
 246 20 l 1
 184 20 l 1
307 20 m 1
 307 -31 l 1
 369 -31 l 1
 369 20 l 1
 307 20 l 1
430 20 m 1
 430 -31 l 1
 492 -31 l 1
 492 20 l 1
 430 20 l 1
123 -82 m 1
 123 -133 l 1
 184 -133 l 1
 184 -82 l 1
 123 -82 l 1
246 -82 m 1
 246 -133 l 1
 307 -133 l 1
 307 -82 l 1
 246 -82 l 1
369 -82 m 1
 369 -133 l 1
 430 -133 l 1
 430 -82 l 1
 369 -82 l 1
492 -82 m 1
 492 -133 l 1
 553 -133 l 1
 553 -82 l 1
 492 -82 l 1
EndSplineSet
EndChar

StartChar: filledbox
Encoding: 9632 9632 640
Width: 613
Flags: W
LayerCount: 2
Fore
SplineSet
82 553 m 25
 532 553 l 29
 532 102 l 29
 82 102 l 25
 82 553 l 25
EndSplineSet
EndChar

StartChar: box
Encoding: 9633 9633 641
Width: 613
Flags: W
LayerCount: 2
Fore
SplineSet
82 553 m 25
 532 553 l 25
 532 102 l 25
 82 102 l 25
 82 553 l 25
154 481 m 25
 154 174 l 25
 461 174 l 25
 461 481 l 25
 154 481 l 25
EndSplineSet
EndChar

StartChar: smallboxfilled
Encoding: 9642 9642 642
Width: 613
Flags: W
LayerCount: 2
Fore
SplineSet
143 492 m 25
 471 492 l 25
 471 164 l 25
 143 164 l 25
 143 492 l 25
EndSplineSet
EndChar

StartChar: smallbox
Encoding: 9643 9643 643
Width: 613
Flags: W
LayerCount: 2
Fore
SplineSet
143 492 m 25
 471 492 l 25
 471 164 l 25
 143 164 l 25
 143 492 l 25
215 420 m 25
 215 236 l 29
 399 236 l 29
 399 420 l 25
 215 420 l 25
EndSplineSet
EndChar

StartChar: triagup
Encoding: 9650 9650 644
Width: 613
Flags: W
LayerCount: 2
Fore
SplineSet
307 553 m 1
 532 102 l 1
 82 102 l 1
 307 553 l 1
EndSplineSet
EndChar

StartChar: triagdn
Encoding: 9660 9660 645
Width: 613
Flags: W
LayerCount: 2
Fore
SplineSet
82 553 m 1
 532 553 l 1
 307 102 l 1
 82 553 l 1
EndSplineSet
EndChar

StartChar: lozenge
Encoding: 9674 9674 646
Width: 613
Flags: W
LayerCount: 2
Fore
SplineSet
307 655 m 25
 532 328 l 25
 307 0 l 25
 82 328 l 25
 307 655 l 25
307 563 m 25
 154 328 l 25
 307 92 l 25
 461 328 l 25
 307 563 l 25
EndSplineSet
EndChar

StartChar: circle
Encoding: 9675 9675 647
Width: 613
Flags: W
LayerCount: 2
Fore
SplineSet
123 328 m 0
 123 226 205 143 307 143 c 0
 409 143 492 226 492 328 c 0
 492 430 409 512 307 512 c 0
 205 512 123 430 123 328 c 0
41 328 m 0
 41 475 160 594 307 594 c 0
 454 594 573 475 573 328 c 0
 573 181 454 61 307 61 c 0
 160 61 41 181 41 328 c 0
EndSplineSet
EndChar

StartChar: circlesolid
Encoding: 9679 9679 648
Width: 613
Flags: W
LayerCount: 2
Fore
SplineSet
41 328 m 0
 41 475 160 594 307 594 c 0
 454 594 573 475 573 328 c 0
 573 181 454 61 307 61 c 0
 160 61 41 181 41 328 c 0
EndSplineSet
EndChar

StartChar: openbullet
Encoding: 9702 9702 649
Width: 613
Flags: W
LayerCount: 2
Fore
SplineSet
314 430 m 0
 269 430 233 395 233 352 c 0
 233 309 269 273 314 273 c 0
 359 273 394 309 394 352 c 0
 394 395 359 430 314 430 c 0
314 502 m 0
 397 502 466 435 466 352 c 0
 466 269 397 202 314 202 c 0
 231 202 162 269 162 352 c 0
 162 435 231 502 314 502 c 0
EndSplineSet
EndChar

StartChar: female
Encoding: 9792 9792 650
Width: 613
Flags: W
LayerCount: 2
Fore
SplineSet
172 526 m 0
 194 648 313 748 439 748 c 0
 565 748 650 648 628 526 c 0
 610 422 520 335 418 311 c 1
 406 241 l 1
 609 241 l 1
 590 137 l 1
 388 137 l 1
 364 0 l 1
 258 0 l 1
 282 137 l 1
 72 137 l 1
 91 241 l 1
 300 241 l 1
 313 309 l 1
 213 331 153 420 172 526 c 0
267 519 m 0
 254 446 302 387 375 387 c 0
 448 387 518 446 531 519 c 0
 544 592 495 651 422 651 c 0
 349 651 280 592 267 519 c 0
EndSplineSet
EndChar

StartChar: male
Encoding: 9794 9794 651
Width: 613
Flags: W
LayerCount: 2
Fore
SplineSet
142 473 m 1
 429 760 l 1
 469 760 l 1
 638 470 l 1
 544 415 l 1
 461 554 l 1
 437 419 l 1
 532 395 590 308 572 206 c 0
 551 85 431 -13 305 -13 c 0
 179 -13 94 85 115 206 c 0
 133 310 225 397 328 420 c 1
 352 558 l 1
 206 414 l 1
 142 473 l 1
213 215 m 0
 200 142 249 83 322 83 c 0
 395 83 464 142 477 215 c 0
 490 288 441 347 368 347 c 0
 295 347 226 288 213 215 c 0
EndSplineSet
EndChar

StartChar: spade
Encoding: 9824 9824 652
Width: 613
Flags: W
LayerCount: 2
Fore
SplineSet
26 391 m 0
 26 565 289 753 289 753 c 1
 298 753 l 1
 298 753 560 565 560 391 c 0
 560 323 559 313 531 263 c 0
 511 227 470 207 428 207 c 0
 427 207 427 207 426 207 c 0
 408 207 368 229 335 260 c 1
 335 68 l 1
 488 68 l 1
 488 -1 l 1
 106 -1 l 1
 106 69 l 1
 252 69 l 1
 252 262 l 1
 219 231 178 207 160 207 c 0
 159 207 159 207 158 207 c 0
 116 207 73 227 53 263 c 0
 25 313 26 323 26 391 c 0
EndSplineSet
EndChar

StartChar: club
Encoding: 9827 9827 653
Width: 613
Flags: W
LayerCount: 2
Fore
SplineSet
561 358 m 0
 561 263 499 208 430 208 c 0
 394 208 360 224 335 250 c 1
 335 68 l 1
 488 68 l 1
 488 -1 l 1
 106 -1 l 1
 106 69 l 1
 252 69 l 1
 252 246 l 1
 228 221 196 208 162 208 c 0
 89 208 25 269 25 357 c 0
 25 446 89 510 163 510 c 0
 170 510 178 509 185 508 c 1
 169 532 161 561 161 595 c 0
 161 684 224 748 298 748 c 0
 364 748 428 695 428 596 c 0
 428 560 419 531 405 507 c 1
 414 509 423 510 432 510 c 0
 498 510 561 457 561 358 c 0
EndSplineSet
EndChar

StartChar: heart
Encoding: 9829 9829 654
Width: 613
Flags: W
LayerCount: 2
Fore
SplineSet
560 472 m 8
 560 261 297 0 297 0 c 0
 288 0 l 0
 288 0 26 261 26 472 c 16
 26 540 26 594 47 645 c 0
 65 689 95 753 158 753 c 0
 159 753 159 753 160 753 c 0
 246 753 272 690 293 622 c 1
 315 688 340 753 426 753 c 0
 427 753 427 753 428 753 c 0
 500 753 529 690 543 645 c 0
 558 596 560 540 560 472 c 8
EndSplineSet
EndChar

StartChar: diamond
Encoding: 9830 9830 655
Width: 613
Flags: W
LayerCount: 2
Fore
SplineSet
534 376 m 5
 298 -1 l 1
 289 -1 l 1
 65 376 l 5
 289 753 l 1
 298 753 l 1
 534 376 l 5
EndSplineSet
EndChar

StartChar: musicalnote
Encoding: 9834 9834 656
Width: 613
Flags: W
LayerCount: 2
Fore
SplineSet
327 104 m 0
 299 28 219 -16 147 -16 c 0
 85 -16 41 17 41 67 c 0
 41 78 43 90 48 103 c 0
 74 174 159 225 236 225 c 0
 241 225 247 225 252 224 c 1
 252 670 l 1
 252 739 l 1
 289 740 l 1
 298 740 l 1
 298 740 552 562 552 395 c 0
 552 309 500 250 426 220 c 1
 426 294 l 1
 451 318 466 352 466 395 c 0
 466 472 384 553 335 594 c 1
 335 146 l 2
 335 133 333 120 327 104 c 0
EndSplineSet
EndChar

StartChar: Yat
Encoding: 1122 1122 661
Width: 613
Flags: W
LayerCount: 2
Fore
SplineSet
275 103 m 1
 324 103 l 2
 356 103 384 104 415 116 c 0
 463 135 496 176 504 221 c 0
 512 266 493 310 448 332 c 0
 418 347 383 348 346 348 c 10
 318 348 l 1
 275 103 l 1
351 534 m 1
 336 449 l 1
 348 449 l 2
 429 449 496 449 553 406 c 0
 610 364 636 301 620 213 c 0
 606 134 545 58 454 23 c 0
 396 1 341 0 291 0 c 2
 144 0 l 1
 238 532 l 1
 126 532 l 1
 142 622 l 1
 254 622 l 1
 274 739 l 1
 394 739 l 1
 395 730 397 727 396 721 c 0
 394 711 389 706 384 702 c 8
 383 701 380 699 380 697 c 18
 367 623 l 1
 574 623 l 1
 558 534 l 1
 351 534 l 1
EndSplineSet
EndChar

StartChar: yat
Encoding: 1123 1123 662
Width: 613
Flags: W
LayerCount: 2
Fore
SplineSet
384 100 m 1
 385 92 432 81 460 81 c 0
 486 81 520 127 525 153 c 0
 531 182 525 217 500 223 c 0
 484 227 476 229 409 229 c 1
 384 100 l 1
445 423 m 2
 427 330 l 1
 516 330 562 327 596 293 c 0
 635 254 646 205 634 142 c 0
 623 84 590 39 545 9 c 0
 530 -1 500 -13 425 -13 c 0
 346 -13 328 11 255 23 c 1
 321 370 l 2
 323 378 325 386 326 394 c 0
 329 408 331 422 329 433 c 0
 326 454 314 459 301 459 c 0
 287 459 264 450 240 418 c 0
 221 393 216 374 212 351 c 2
 146 0 l 1
 37 0 l 1
 107 377 l 2
 125 476 107 511 92 539 c 1
 219 556 l 1
 224 538 227 530 227 503 c 1
 257 532 293 555 340 555 c 0
 390 555 409 547 431 523 c 0
 451 501 454 471 445 423 c 2
EndSplineSet
EndChar

StartChar: fita
Encoding: 1139 1139 664
Width: 613
Flags: W
LayerCount: 2
Fore
SplineSet
619 269 m 0
 588 92 448 -14 310 -14 c 0
 164 -14 61 103 90 267 c 0
 119 433 265 554 413 554 c 0
 545 554 651 453 619 269 c 0
389 451 m 0
 316 451 233 391 212 274 c 0
 191 156 253 90 329 90 c 0
 398 90 481 145 502 265 c 0
 525 397 457 451 389 451 c 0
457 244 m 1
 251 244 l 1
 268 340 l 1
 474 340 l 1
 457 244 l 1
EndSplineSet
EndChar

StartChar: careof
Encoding: 8453 8453 667
Width: 613
Flags: W
LayerCount: 2
Fore
SplineSet
435 688 m 1
 365 620 l 1
 341 639 349 644 339 659 c 0
 334 666 322 678 298 678 c 0
 263 678 230 654 221 604 c 0
 212 551 238 522 274 522 c 0
 304 522 318 535 354 568 c 1
 400 500 l 1
 372 474 328 432 254 432 c 0
 162 432 108 505 125 599 c 0
 142 693 222 766 316 766 c 0
 370 766 415 739 435 688 c 1
521 303 m 0
 597 303 657 245 640 147 c 0
 623 53 544 -7 465 -7 c 0
 382 -7 324 58 340 146 c 0
 356 235 437 303 521 303 c 0
546 146 m 0
 556 200 526 215 503 215 c 0
 478 215 444 197 436 150 c 0
 428 102 455 81 481 81 c 0
 504 81 537 97 546 146 c 0
EndSplineSet
Refer: 274 8260 N 1 0 0 1 0 0 2
EndChar

StartChar: acute.cap.pl
Encoding: 65550 -1 668
Width: 613
Flags: W
LayerCount: 2
Fore
SplineSet
449 802 m 1
 553 802 l 1
 467 639 l 1
 386 652 l 1
 449 802 l 1
EndSplineSet
EndChar

StartChar: acute.pl
Encoding: 65551 -1 669
Width: 613
Flags: W
LayerCount: 2
Fore
SplineSet
449 840 m 1
 564 814 l 1
 472 614 l 1
 378 631 l 1
 449 840 l 1
EndSplineSet
EndChar

StartChar: uni2574
Encoding: 9588 9588 684
Width: 613
VWidth: 1046
Flags: W
LayerCount: 2
Fore
SplineSet
346 289 m 1
 0 289 l 1
 0 367 l 1
 346 367 l 1
 346 289 l 1
EndSplineSet
EndChar

StartChar: uni2575
Encoding: 9589 9589 685
Width: 613
VWidth: 1046
Flags: W
LayerCount: 2
Fore
SplineSet
346 289 m 1
 267 289 l 1
 267 838 l 1
 346 838 l 1
 346 289 l 1
EndSplineSet
EndChar

StartChar: uni2576
Encoding: 9590 9590 686
Width: 613
VWidth: 1046
Flags: W
LayerCount: 2
Fore
SplineSet
267 289 m 1
 267 367 l 1
 613 367 l 1
 613 289 l 1
 267 289 l 1
EndSplineSet
EndChar

StartChar: uni2577
Encoding: 9591 9591 687
Width: 613
VWidth: 1046
Flags: W
LayerCount: 2
Fore
SplineSet
346 367 m 1
 346 -184 l 1
 267 -184 l 1
 267 367 l 1
 346 367 l 1
EndSplineSet
EndChar

StartChar: hvhorizform
Encoding: 9473 9473 688
Width: 613
VWidth: 1046
Flags: W
LayerCount: 2
Fore
SplineSet
0 408 m 1
 613 408 l 1
 613 248 l 1
 0 248 l 1
 0 408 l 1
EndSplineSet
EndChar

StartChar: hvvertform
Encoding: 9475 9475 689
Width: 613
VWidth: 1046
Flags: W
LayerCount: 2
Fore
SplineSet
387 838 m 1
 387 -184 l 1
 226 -184 l 1
 226 838 l 1
 387 838 l 1
EndSplineSet
EndChar

StartChar: dnltrthvform
Encoding: 9485 9485 690
Width: 613
VWidth: 1046
Flags: W
LayerCount: 2
Fore
SplineSet
267 -184 m 1
 267 408 l 1
 613 408 l 1
 613 248 l 1
 346 248 l 1
 346 -184 l 1
 267 -184 l 1
EndSplineSet
EndChar

StartChar: dnhvrtltform
Encoding: 9486 9486 691
Width: 613
VWidth: 1046
Flags: W
LayerCount: 2
Fore
SplineSet
226 367 m 1
 613 367 l 1
 613 289 l 1
 387 289 l 1
 387 -184 l 1
 226 -184 l 1
 226 367 l 1
EndSplineSet
EndChar

StartChar: hvdnrtform
Encoding: 9487 9487 692
Width: 613
VWidth: 1046
Flags: W
LayerCount: 2
Fore
SplineSet
226 -184 m 1
 226 408 l 1
 613 408 l 1
 613 248 l 1
 387 248 l 1
 387 -184 l 1
 226 -184 l 1
EndSplineSet
EndChar

StartChar: dnltlefthvform
Encoding: 9489 9489 693
Width: 613
VWidth: 1046
Flags: W
LayerCount: 2
Fore
SplineSet
267 248 m 1
 0 248 l 1
 0 408 l 1
 346 408 l 1
 346 -184 l 1
 267 -184 l 1
 267 248 l 1
EndSplineSet
EndChar

StartChar: dnhvleftltform
Encoding: 9490 9490 694
Width: 613
VWidth: 1046
Flags: W
LayerCount: 2
Fore
SplineSet
387 367 m 1
 387 -184 l 1
 226 -184 l 1
 226 289 l 1
 0 289 l 1
 0 367 l 1
 387 367 l 1
EndSplineSet
EndChar

StartChar: hvdnleftform
Encoding: 9491 9491 695
Width: 613
VWidth: 1046
Flags: W
LayerCount: 2
Fore
SplineSet
226 248 m 1
 0 248 l 1
 0 408 l 1
 387 408 l 1
 387 -184 l 1
 226 -184 l 1
 226 248 l 1
EndSplineSet
EndChar

StartChar: upltrthvform
Encoding: 9493 9493 696
Width: 613
VWidth: 1046
Flags: W
LayerCount: 2
Fore
SplineSet
346 408 m 1
 613 408 l 1
 613 248 l 1
 267 248 l 1
 267 838 l 1
 346 838 l 1
 346 408 l 1
EndSplineSet
EndChar

StartChar: uphvrtltform
Encoding: 9494 9494 697
Width: 613
VWidth: 1046
Flags: W
LayerCount: 2
Fore
SplineSet
613 289 m 1
 226 289 l 1
 226 838 l 1
 387 838 l 1
 387 367 l 1
 613 367 l 1
 613 289 l 1
EndSplineSet
EndChar

StartChar: hvuprtform
Encoding: 9495 9495 698
Width: 613
VWidth: 1046
Flags: W
LayerCount: 2
Fore
SplineSet
613 248 m 1
 226 248 l 1
 226 838 l 1
 387 838 l 1
 387 408 l 1
 613 408 l 1
 613 248 l 1
EndSplineSet
EndChar

StartChar: upltlefthvform
Encoding: 9497 9497 699
Width: 613
VWidth: 1046
Flags: W
LayerCount: 2
Fore
SplineSet
346 248 m 1
 0 248 l 1
 0 408 l 1
 267 408 l 1
 267 838 l 1
 346 838 l 1
 346 248 l 1
EndSplineSet
EndChar

StartChar: uphvleftltform
Encoding: 9498 9498 700
Width: 613
VWidth: 1046
Flags: W
LayerCount: 2
Fore
SplineSet
226 367 m 1
 226 838 l 1
 387 838 l 1
 387 289 l 1
 0 289 l 1
 0 367 l 1
 226 367 l 1
EndSplineSet
EndChar

StartChar: hvupleftform
Encoding: 9499 9499 701
Width: 613
VWidth: 1046
Flags: W
LayerCount: 2
Fore
SplineSet
387 248 m 1
 0 248 l 1
 0 408 l 1
 226 408 l 1
 226 838 l 1
 387 838 l 1
 387 248 l 1
EndSplineSet
EndChar

StartChar: uni2578
Encoding: 9592 9592 702
Width: 613
VWidth: 1046
Flags: W
LayerCount: 2
Fore
SplineSet
346 248 m 1
 0 248 l 1
 0 408 l 1
 346 408 l 1
 346 248 l 1
EndSplineSet
EndChar

StartChar: uni2579
Encoding: 9593 9593 703
Width: 613
VWidth: 1046
Flags: W
LayerCount: 2
Fore
SplineSet
387 289 m 1
 226 289 l 1
 226 838 l 1
 387 838 l 1
 387 289 l 1
EndSplineSet
EndChar

StartChar: uni257A
Encoding: 9594 9594 704
Width: 613
VWidth: 1046
Flags: W
LayerCount: 2
Fore
SplineSet
267 248 m 1
 267 408 l 1
 613 408 l 1
 613 248 l 1
 267 248 l 1
EndSplineSet
EndChar

StartChar: uni257B
Encoding: 9595 9595 705
Width: 613
VWidth: 1046
Flags: W
LayerCount: 2
Fore
SplineSet
387 367 m 1
 387 -184 l 1
 226 -184 l 1
 226 367 l 1
 387 367 l 1
EndSplineSet
EndChar

StartChar: vertltrthvform
Encoding: 9501 9501 706
Width: 613
VWidth: 1046
Flags: W
LayerCount: 2
Fore
SplineSet
346 408 m 1
 613 408 l 1
 613 248 l 1
 346 248 l 1
 346 -184 l 1
 267 -184 l 1
 267 838 l 1
 346 838 l 1
 346 408 l 1
EndSplineSet
EndChar

StartChar: uphvrtdnltform
Encoding: 9502 9502 707
Width: 613
VWidth: 1046
Flags: W
LayerCount: 2
Fore
SplineSet
613 289 m 1
 524 289 435 289 346 289 c 1
 346 -184 l 1
 267 -184 l 1
 267 289 l 1
 226 289 l 1
 226 838 l 1
 387 838 l 1
 387 367 l 1
 613 367 l 1
 613 289 l 1
EndSplineSet
EndChar

StartChar: dnhvrtupltform
Encoding: 9503 9503 708
Width: 613
VWidth: 1046
Flags: W
LayerCount: 2
Fore
SplineSet
267 367 m 1
 267 838 l 1
 346 838 l 1
 346 367 l 1
 435 367 524 367 613 367 c 1
 613 289 l 1
 387 289 l 1
 387 -184 l 1
 226 -184 l 1
 226 367 l 1
 267 367 l 1
EndSplineSet
EndChar

StartChar: verthvrtltform
Encoding: 9504 9504 709
Width: 613
VWidth: 1046
Flags: W
LayerCount: 2
Fore
SplineSet
226 -184 m 1
 226 838 l 1
 387 838 l 1
 387 367 l 1
 613 367 l 1
 613 289 l 1
 387 289 l 1
 387 -184 l 1
 226 -184 l 1
EndSplineSet
EndChar

StartChar: dnltrtuphvform
Encoding: 9505 9505 710
Width: 613
VWidth: 1046
Flags: W
LayerCount: 2
Fore
SplineSet
346 248 m 1
 346 -184 l 1
 267 -184 l 1
 267 248 l 1
 226 248 l 1
 226 838 l 1
 387 838 l 1
 387 408 l 1
 613 408 l 1
 613 248 l 1
 346 248 l 1
EndSplineSet
EndChar

StartChar: upltrtdnhvform
Encoding: 9506 9506 711
Width: 613
VWidth: 1046
Flags: W
LayerCount: 2
Fore
SplineSet
226 -184 m 1
 226 408 l 1
 267 408 l 1
 267 838 l 1
 346 838 l 1
 346 408 l 1
 613 408 l 1
 613 248 l 1
 387 248 l 1
 387 -184 l 1
 226 -184 l 1
EndSplineSet
EndChar

StartChar: hvvertrtform
Encoding: 9507 9507 712
Width: 613
VWidth: 1046
Flags: W
LayerCount: 2
Fore
SplineSet
387 408 m 1
 613 408 l 1
 613 248 l 1
 387 248 l 1
 387 -184 l 1
 226 -184 l 1
 226 838 l 1
 387 838 l 1
 387 408 l 1
EndSplineSet
EndChar

StartChar: vtltlefthvform
Encoding: 9509 9509 713
Width: 613
VWidth: 1046
Flags: W
LayerCount: 2
Fore
SplineSet
346 838 m 1
 346 -184 l 1
 267 -184 l 1
 267 248 l 1
 0 248 l 1
 0 408 l 1
 267 408 l 1
 267 838 l 1
 346 838 l 1
EndSplineSet
EndChar

StartChar: uphvleftdnltform
Encoding: 9510 9510 714
Width: 613
VWidth: 1046
Flags: W
LayerCount: 2
Fore
SplineSet
226 367 m 1
 226 838 l 1
 387 838 l 1
 387 289 l 1
 346 289 l 1
 346 -184 l 1
 267 -184 l 1
 267 289 l 1
 178 289 89 289 0 289 c 1
 0 367 l 1
 226 367 l 1
EndSplineSet
EndChar

StartChar: dnhvleftupltform
Encoding: 9511 9511 715
Width: 613
VWidth: 1046
Flags: W
LayerCount: 2
Fore
SplineSet
387 367 m 1
 387 -184 l 1
 226 -184 l 1
 226 289 l 1
 0 289 l 1
 0 367 l 1
 89 367 178 367 267 367 c 1
 267 838 l 1
 346 838 l 1
 346 367 l 1
 387 367 l 1
EndSplineSet
EndChar

StartChar: verthvleftltform
Encoding: 9512 9512 716
Width: 613
VWidth: 1046
Flags: W
LayerCount: 2
Fore
SplineSet
226 289 m 1
 0 289 l 1
 0 367 l 1
 226 367 l 1
 226 838 l 1
 387 838 l 1
 387 -184 l 1
 226 -184 l 1
 226 289 l 1
EndSplineSet
EndChar

StartChar: dnltleftuphvform
Encoding: 9513 9513 717
Width: 613
VWidth: 1046
Flags: W
LayerCount: 2
Fore
SplineSet
346 248 m 1
 346 -184 l 1
 267 -184 l 1
 267 248 l 1
 0 248 l 1
 0 408 l 1
 226 408 l 1
 226 838 l 1
 387 838 l 1
 387 248 l 1
 346 248 l 1
EndSplineSet
EndChar

StartChar: upltleftdnhvform
Encoding: 9514 9514 718
Width: 613
VWidth: 1046
Flags: W
LayerCount: 2
Fore
SplineSet
226 248 m 1
 0 248 l 1
 0 408 l 1
 267 408 l 1
 267 838 l 1
 346 838 l 1
 346 408 l 1
 387 408 l 1
 387 -184 l 1
 226 -184 l 1
 226 248 l 1
EndSplineSet
EndChar

StartChar: hvvertleftform
Encoding: 9515 9515 719
Width: 613
VWidth: 1046
Flags: W
LayerCount: 2
Fore
SplineSet
226 408 m 1
 226 838 l 1
 387 838 l 1
 387 -184 l 1
 226 -184 l 1
 226 248 l 1
 0 248 l 1
 0 408 l 1
 226 408 l 1
EndSplineSet
EndChar

StartChar: lefthvrtdnltform
Encoding: 9517 9517 720
Width: 613
VWidth: 1046
Flags: W
LayerCount: 2
Fore
SplineSet
267 248 m 1
 0 248 l 1
 0 408 l 1
 346 408 l 1
 346 367 l 1
 613 367 l 1
 613 289 l 1
 346 289 l 1
 346 131 346 -26 346 -184 c 1
 267 -184 l 1
 267 248 l 1
EndSplineSet
EndChar

StartChar: rthvleftdnltform
Encoding: 9518 9518 721
Width: 613
VWidth: 1046
Flags: W
LayerCount: 2
Fore
SplineSet
267 -184 m 1
 267 -26 267 131 267 289 c 1
 0 289 l 1
 0 367 l 1
 267 367 l 1
 267 408 l 1
 613 408 l 1
 613 248 l 1
 346 248 l 1
 346 -184 l 1
 267 -184 l 1
EndSplineSet
EndChar

StartChar: dnlthorizhvform
Encoding: 9519 9519 722
Width: 613
VWidth: 1046
Flags: W
LayerCount: 2
Fore
SplineSet
0 408 m 1
 613 408 l 1
 613 248 l 1
 346 248 l 1
 346 -184 l 1
 267 -184 l 1
 267 248 l 1
 0 248 l 1
 0 408 l 1
EndSplineSet
EndChar

StartChar: dnhvhorizltform
Encoding: 9520 9520 723
Width: 613
VWidth: 1046
Flags: W
LayerCount: 2
Fore
SplineSet
0 367 m 1
 613 367 l 1
 613 289 l 1
 387 289 l 1
 387 -184 l 1
 226 -184 l 1
 226 289 l 1
 0 289 l 1
 0 367 l 1
EndSplineSet
EndChar

StartChar: rtltrtdnhvform
Encoding: 9521 9521 724
Width: 613
VWidth: 1046
Flags: W
LayerCount: 2
Fore
SplineSet
226 248 m 1
 0 248 l 1
 0 408 l 1
 387 408 l 1
 387 367 l 1
 613 367 l 1
 613 289 l 1
 387 289 l 1
 387 -184 l 1
 226 -184 l 1
 226 248 l 1
EndSplineSet
EndChar

StartChar: leftltrtdnhvform
Encoding: 9522 9522 725
Width: 613
VWidth: 1046
Flags: W
LayerCount: 2
Fore
SplineSet
226 289 m 1
 0 289 l 1
 0 367 l 1
 226 367 l 1
 226 408 l 1
 613 408 l 1
 613 248 l 1
 387 248 l 1
 387 -184 l 1
 226 -184 l 1
 226 289 l 1
EndSplineSet
EndChar

StartChar: hvdnhorizform
Encoding: 9523 9523 726
Width: 613
VWidth: 1046
Flags: W
LayerCount: 2
Fore
SplineSet
0 408 m 1
 613 408 l 1
 613 248 l 1
 387 248 l 1
 387 -184 l 1
 226 -184 l 1
 226 248 l 1
 0 248 l 1
 0 408 l 1
EndSplineSet
EndChar

StartChar: lefthvrtupltform
Encoding: 9525 9525 727
Width: 613
VWidth: 1046
Flags: W
LayerCount: 2
Fore
SplineSet
346 248 m 1
 0 248 l 1
 0 408 l 1
 267 408 l 1
 267 838 l 1
 346 838 l 1
 346 681 346 524 346 367 c 1
 613 367 l 1
 613 289 l 1
 346 289 l 1
 346 248 l 1
EndSplineSet
EndChar

StartChar: rthvleftupltform
Encoding: 9526 9526 728
Width: 613
VWidth: 1046
Flags: W
LayerCount: 2
Fore
SplineSet
346 408 m 1
 613 408 l 1
 613 248 l 1
 267 248 l 1
 267 289 l 1
 0 289 l 1
 0 367 l 1
 267 367 l 1
 267 524 267 681 267 838 c 1
 346 838 l 1
 346 408 l 1
EndSplineSet
EndChar

StartChar: uplthorizhvform
Encoding: 9527 9527 729
Width: 613
VWidth: 1046
Flags: W
LayerCount: 2
Fore
SplineSet
613 248 m 1
 0 248 l 1
 0 408 l 1
 267 408 l 1
 267 838 l 1
 346 838 l 1
 346 408 l 1
 613 408 l 1
 613 248 l 1
EndSplineSet
EndChar

StartChar: uphvhorizltform
Encoding: 9528 9528 730
Width: 613
VWidth: 1046
Flags: W
LayerCount: 2
Fore
SplineSet
226 367 m 1
 226 838 l 1
 387 838 l 1
 387 367 l 1
 613 367 l 1
 613 289 l 1
 0 289 l 1
 0 367 l 1
 226 367 l 1
EndSplineSet
EndChar

StartChar: rtltleftuphvform
Encoding: 9529 9529 731
Width: 613
VWidth: 1046
Flags: W
LayerCount: 2
Fore
SplineSet
387 248 m 1
 0 248 l 1
 0 408 l 1
 226 408 l 1
 226 838 l 1
 387 838 l 1
 387 367 l 1
 613 367 l 1
 613 289 l 1
 387 289 l 1
 387 248 l 1
EndSplineSet
EndChar

StartChar: leftltrtuphvform
Encoding: 9530 9530 732
Width: 613
VWidth: 1046
Flags: W
LayerCount: 2
Fore
SplineSet
613 248 m 1
 226 248 l 1
 226 289 l 1
 0 289 l 1
 0 367 l 1
 226 367 l 1
 226 838 l 1
 387 838 l 1
 387 408 l 1
 613 408 l 1
 613 248 l 1
EndSplineSet
EndChar

StartChar: hvuphorizform
Encoding: 9531 9531 733
Width: 613
VWidth: 1046
Flags: W
LayerCount: 2
Fore
SplineSet
226 408 m 1
 226 838 l 1
 387 838 l 1
 387 408 l 1
 613 408 l 1
 613 248 l 1
 0 248 l 1
 0 408 l 1
 226 408 l 1
EndSplineSet
EndChar

StartChar: lefthvrtvertltform
Encoding: 9533 9533 734
Width: 613
VWidth: 1046
Flags: W
LayerCount: 2
Fore
SplineSet
346 838 m 1
 346 681 346 524 346 367 c 1
 613 367 l 1
 613 289 l 1
 346 289 l 1
 346 131 346 -26 346 -184 c 1
 267 -184 l 1
 267 248 l 1
 0 248 l 1
 0 408 l 1
 267 408 l 1
 267 838 l 1
 346 838 l 1
EndSplineSet
EndChar

StartChar: rthvleftvertltform
Encoding: 9534 9534 735
Width: 613
VWidth: 1046
Flags: W
LayerCount: 2
Fore
SplineSet
346 408 m 1
 613 408 l 1
 613 248 l 1
 346 248 l 1
 346 -184 l 1
 267 -184 l 1
 267 -26 267 131 267 289 c 1
 0 289 l 1
 0 367 l 1
 267 367 l 1
 267 524 267 681 267 838 c 1
 346 838 l 1
 346 408 l 1
EndSplineSet
EndChar

StartChar: vertlthorizhvform
Encoding: 9535 9535 736
Width: 613
VWidth: 1046
Flags: W
LayerCount: 2
Fore
SplineSet
346 408 m 1
 613 408 l 1
 613 248 l 1
 346 248 l 1
 346 -184 l 1
 267 -184 l 1
 267 838 l 1
 346 838 l 1
 346 408 l 1
EndSplineSet
EndChar

StartChar: uphvdnhorizltform
Encoding: 9536 9536 737
Width: 613
VWidth: 1046
Flags: W
LayerCount: 2
Fore
SplineSet
226 367 m 1
 226 838 l 1
 387 838 l 1
 387 367 l 1
 613 367 l 1
 613 289 l 1
 524 289 435 289 346 289 c 1
 346 -184 l 1
 267 -184 l 1
 267 289 l 1
 178 289 89 289 0 289 c 1
 0 367 l 1
 226 367 l 1
EndSplineSet
EndChar

StartChar: dnhvuphorizltform
Encoding: 9537 9537 738
Width: 613
VWidth: 1046
Flags: W
LayerCount: 2
Fore
SplineSet
267 367 m 1
 267 838 l 1
 346 838 l 1
 346 367 l 1
 435 367 524 367 613 367 c 1
 613 289 l 1
 387 289 l 1
 387 -184 l 1
 226 -184 l 1
 226 289 l 1
 0 289 l 1
 0 367 l 1
 89 367 178 367 267 367 c 1
EndSplineSet
EndChar

StartChar: verthvhorizltform
Encoding: 9538 9538 739
Width: 613
VWidth: 1046
Flags: W
LayerCount: 2
Fore
SplineSet
226 289 m 1
 0 289 l 1
 0 367 l 1
 226 367 l 1
 226 838 l 1
 387 838 l 1
 387 367 l 1
 613 367 l 1
 613 289 l 1
 387 289 l 1
 387 -184 l 1
 226 -184 l 1
 226 289 l 1
EndSplineSet
EndChar

StartChar: leftuphvrtdnltform
Encoding: 9539 9539 740
Width: 613
VWidth: 1046
Flags: W
LayerCount: 2
Fore
SplineSet
226 408 m 1
 226 838 l 1
 387 838 l 1
 387 367 l 1
 613 367 l 1
 613 289 l 1
 524 289 435 289 346 289 c 1
 346 131 346 -26 346 -184 c 1
 267 -184 l 1
 267 248 l 1
 0 248 l 1
 0 408 l 1
 226 408 l 1
EndSplineSet
EndChar

StartChar: rtuphvleftdnltform
Encoding: 9540 9540 741
Width: 613
VWidth: 1046
Flags: W
LayerCount: 2
Fore
SplineSet
226 367 m 1
 226 838 l 1
 387 838 l 1
 387 408 l 1
 613 408 l 1
 613 248 l 1
 346 248 l 1
 346 -184 l 1
 267 -184 l 1
 267 -26 267 131 267 289 c 1
 178 289 89 289 0 289 c 1
 0 367 l 1
 226 367 l 1
EndSplineSet
EndChar

StartChar: leftdnhvrtupltform
Encoding: 9541 9541 742
Width: 613
VWidth: 1046
Flags: W
LayerCount: 2
Fore
SplineSet
346 838 m 1
 346 681 346 524 346 367 c 1
 435 367 524 367 613 367 c 1
 613 289 l 1
 387 289 l 1
 387 -184 l 1
 226 -184 l 1
 226 248 l 1
 0 248 l 1
 0 408 l 1
 267 408 l 1
 267 838 l 1
 346 838 l 1
EndSplineSet
EndChar

StartChar: rtdnhvleftupltform
Encoding: 9542 9542 743
Width: 613
VWidth: 1046
Flags: W
LayerCount: 2
Fore
SplineSet
346 408 m 1
 613 408 l 1
 613 248 l 1
 387 248 l 1
 387 -184 l 1
 226 -184 l 1
 226 289 l 1
 0 289 l 1
 0 367 l 1
 89 367 178 367 267 367 c 1
 267 524 267 681 267 838 c 1
 346 838 l 1
 346 408 l 1
EndSplineSet
EndChar

StartChar: dnltuphorizhvform
Encoding: 9543 9543 744
Width: 613
VWidth: 1046
Flags: W
LayerCount: 2
Fore
SplineSet
226 408 m 1
 226 838 l 1
 387 838 l 1
 387 408 l 1
 613 408 l 1
 613 248 l 1
 346 248 l 1
 346 -184 l 1
 267 -184 l 1
 267 248 l 1
 0 248 l 1
 0 408 l 1
 226 408 l 1
EndSplineSet
EndChar

StartChar: upltdnhorizhvform
Encoding: 9544 9544 745
Width: 613
VWidth: 1046
Flags: W
LayerCount: 2
Fore
SplineSet
346 408 m 1
 613 408 l 1
 613 248 l 1
 387 248 l 1
 387 -184 l 1
 226 -184 l 1
 226 248 l 1
 0 248 l 1
 0 408 l 1
 267 408 l 1
 267 838 l 1
 346 838 l 1
 346 408 l 1
EndSplineSet
EndChar

StartChar: rtltleftverthvform
Encoding: 9545 9545 746
Width: 613
VWidth: 1046
Flags: W
LayerCount: 2
Fore
SplineSet
226 408 m 1
 226 838 l 1
 387 838 l 1
 387 367 l 1
 613 367 l 1
 613 289 l 1
 387 289 l 1
 387 -184 l 1
 226 -184 l 1
 226 248 l 1
 0 248 l 1
 0 408 l 1
 226 408 l 1
EndSplineSet
EndChar

StartChar: leftltrtverthvform
Encoding: 9546 9546 747
Width: 613
VWidth: 1046
Flags: W
LayerCount: 2
Fore
SplineSet
387 408 m 1
 613 408 l 1
 613 248 l 1
 387 248 l 1
 387 -184 l 1
 226 -184 l 1
 226 289 l 1
 0 289 l 1
 0 367 l 1
 226 367 l 1
 226 838 l 1
 387 838 l 1
 387 408 l 1
EndSplineSet
EndChar

StartChar: hvverthorizform
Encoding: 9547 9547 748
Width: 613
VWidth: 1046
Flags: W
LayerCount: 2
Fore
SplineSet
226 408 m 1
 226 838 l 1
 387 838 l 1
 387 408 l 1
 613 408 l 1
 613 248 l 1
 387 248 l 1
 387 -184 l 1
 226 -184 l 1
 226 248 l 1
 0 248 l 1
 0 408 l 1
 226 408 l 1
EndSplineSet
EndChar

StartChar: ltdashdblhorizform
Encoding: 9548 9548 749
Width: 613
VWidth: 1046
Flags: W
LayerCount: 2
Fore
SplineSet
562 289 m 1
 358 289 l 1
 358 367 l 1
 562 367 l 1
 562 289 l 1
255 289 m 1
 51 289 l 1
 51 367 l 1
 255 367 l 1
 255 289 l 1
EndSplineSet
EndChar

StartChar: hvdashdblhorizform
Encoding: 9549 9549 750
Width: 613
VWidth: 1046
Flags: W
LayerCount: 2
Fore
SplineSet
562 248 m 1
 358 248 l 1
 358 408 l 1
 562 408 l 1
 562 248 l 1
255 248 m 1
 51 248 l 1
 51 408 l 1
 255 408 l 1
 255 248 l 1
EndSplineSet
EndChar

StartChar: ltdashdblvertform
Encoding: 9550 9550 751
Width: 613
VWidth: 1046
Flags: W
LayerCount: 2
Fore
SplineSet
346 276 m 0
 346 -133 l 0
 267 -133 l 0
 267 276 l 0
 346 276 l 0
346 787 m 0
 346 378 l 0
 267 378 l 0
 267 787 l 0
 346 787 l 0
EndSplineSet
EndChar

StartChar: hvdashdblvertform
Encoding: 9551 9551 752
Width: 613
VWidth: 1046
Flags: W
LayerCount: 2
Fore
SplineSet
387 276 m 1
 387 -133 l 1
 226 -133 l 1
 226 276 l 1
 387 276 l 1
387 787 m 1
 387 378 l 1
 226 378 l 1
 226 787 l 1
 387 787 l 1
EndSplineSet
EndChar

StartChar: ltdashtriphorizform
Encoding: 9476 9476 753
Width: 613
VWidth: 1046
Flags: W
LayerCount: 2
Fore
SplineSet
450 367 m 0
 572 367 l 0
 572 289 l 0
 450 289 l 0
 450 367 l 0
245 367 m 0
 368 367 l 0
 368 289 l 0
 245 289 l 0
 245 367 l 0
41 367 m 0
 163 367 l 0
 163 289 l 0
 41 289 l 0
 41 367 l 0
EndSplineSet
EndChar

StartChar: hvdashtriphorizform
Encoding: 9477 9477 754
Width: 613
VWidth: 1046
Flags: W
LayerCount: 2
Fore
SplineSet
450 408 m 1
 572 408 l 1
 572 248 l 1
 450 248 l 1
 450 408 l 1
245 408 m 1
 368 408 l 1
 368 248 l 1
 245 248 l 1
 245 408 l 1
41 408 m 1
 163 408 l 1
 163 248 l 1
 41 248 l 1
 41 408 l 1
EndSplineSet
EndChar

StartChar: ltdashtripvertform
Encoding: 9478 9478 755
Width: 613
VWidth: 1046
Flags: W
LayerCount: 2
Fore
SplineSet
346 106 m 0
 346 -133 l 0
 267 -133 l 0
 267 106 l 0
 346 106 l 0
346 446 m 0
 346 208 l 0
 267 208 l 0
 267 446 l 0
 346 446 l 0
346 787 m 0
 346 548 l 0
 267 548 l 0
 267 787 l 0
 346 787 l 0
EndSplineSet
EndChar

StartChar: hvdashtripvertform
Encoding: 9479 9479 756
Width: 613
VWidth: 1046
Flags: W
LayerCount: 2
Fore
SplineSet
387 106 m 1
 387 -133 l 1
 226 -133 l 1
 226 106 l 1
 387 106 l 1
387 446 m 1
 387 208 l 1
 226 208 l 1
 226 446 l 1
 387 446 l 1
387 787 m 1
 387 548 l 1
 226 548 l 1
 226 787 l 1
 387 787 l 1
EndSplineSet
EndChar

StartChar: ltdashquadhorizform
Encoding: 9480 9480 757
Width: 613
VWidth: 1046
Flags: W
LayerCount: 2
Fore
SplineSet
582 289 m 1
 490 289 l 1
 490 367 l 1
 582 367 l 1
 582 289 l 1
429 289 m 1
 337 289 l 1
 337 367 l 1
 429 367 l 1
 429 289 l 1
276 289 m 1
 184 289 l 1
 184 367 l 1
 276 367 l 1
 276 289 l 1
123 289 m 1
 31 289 l 1
 31 367 l 1
 123 367 l 1
 123 289 l 1
EndSplineSet
EndChar

StartChar: hvdashquadhorizform
Encoding: 9481 9481 758
Width: 613
VWidth: 1046
Flags: W
LayerCount: 2
Fore
SplineSet
582 248 m 1
 490 248 l 1
 490 408 l 1
 582 408 l 1
 582 248 l 1
429 248 m 1
 337 248 l 1
 337 408 l 1
 429 408 l 1
 429 248 l 1
276 248 m 1
 184 248 l 1
 184 408 l 1
 276 408 l 1
 276 248 l 1
123 248 m 1
 31 248 l 1
 31 408 l 1
 123 408 l 1
 123 248 l 1
EndSplineSet
EndChar

StartChar: ltdashquadvertform
Encoding: 9482 9482 759
Width: 613
VWidth: 1046
Flags: W
LayerCount: 2
Fore
SplineSet
346 20 m 0
 346 -133 l 0
 267 -133 l 0
 267 20 l 0
 346 20 l 0
346 276 m 0
 346 123 l 0
 267 123 l 0
 267 276 l 0
 346 276 l 0
346 531 m 0
 346 378 l 0
 267 378 l 0
 267 531 l 0
 346 531 l 0
346 787 m 0
 346 633 l 0
 267 633 l 0
 267 787 l 0
 346 787 l 0
EndSplineSet
EndChar

StartChar: hvdashquadvertform
Encoding: 9483 9483 760
Width: 613
VWidth: 1046
Flags: W
LayerCount: 2
Fore
SplineSet
387 20 m 1
 387 -133 l 1
 226 -133 l 1
 226 20 l 1
 387 20 l 1
387 276 m 1
 387 123 l 1
 226 123 l 1
 226 276 l 1
 387 276 l 1
387 531 m 1
 387 378 l 1
 226 378 l 1
 226 531 l 1
 387 531 l 1
387 787 m 1
 387 633 l 1
 226 633 l 1
 226 787 l 1
 387 787 l 1
EndSplineSet
EndChar

StartChar: uni257C
Encoding: 9596 9596 761
Width: 613
VWidth: 1046
Flags: W
LayerCount: 2
Fore
SplineSet
267 367 m 1
 267 408 l 1
 613 408 l 1
 613 248 l 1
 267 248 l 1
 267 289 l 1
 0 289 l 1
 0 367 l 1
 267 367 l 1
EndSplineSet
EndChar

StartChar: uni257D
Encoding: 9597 9597 762
Width: 613
VWidth: 1046
Flags: W
LayerCount: 2
Fore
SplineSet
387 367 m 1
 387 -184 l 1
 226 -184 l 1
 226 367 l 1
 267 367 l 1
 267 838 l 1
 346 838 l 1
 346 367 l 1
 387 367 l 1
EndSplineSet
EndChar

StartChar: uni257E
Encoding: 9598 9598 763
Width: 613
VWidth: 1046
Flags: W
LayerCount: 2
Fore
SplineSet
346 248 m 1
 0 248 l 1
 0 408 l 1
 346 408 l 1
 346 367 l 1
 613 367 l 1
 613 289 l 1
 346 289 l 1
 346 248 l 1
EndSplineSet
EndChar

StartChar: uni257F
Encoding: 9599 9599 764
Width: 613
VWidth: 1046
Flags: W
LayerCount: 2
Fore
SplineSet
267 289 m 1
 226 289 l 1
 226 838 l 1
 387 838 l 1
 387 289 l 1
 346 289 l 1
 346 -184 l 1
 267 -184 l 1
 267 289 l 1
EndSplineSet
EndChar

StartChar: ltarcdnrtform
Encoding: 9581 9581 765
Width: 613
VWidth: 1046
Flags: W
LayerCount: 2
Fore
SplineSet
267 -82 m 0
 267 165 376 367 511 367 c 0
 613 367 l 1
 613 289 l 1
 511 289 l 0
 419 289 346 122 346 -82 c 0
 346 -184 l 1
 267 -184 l 1
 267 -82 l 0
EndSplineSet
EndChar

StartChar: ltarcdnleftform
Encoding: 9582 9582 766
Width: 613
VWidth: 1046
Flags: W
LayerCount: 2
Fore
SplineSet
0 289 m 1
 0 367 l 1
 102 367 l 0
 237 367 346 165 346 -82 c 0
 346 -184 l 1
 267 -184 l 1
 267 -82 l 0
 267 122 194 289 102 289 c 0
 0 289 l 1
EndSplineSet
EndChar

StartChar: ltarcupleftform
Encoding: 9583 9583 767
Width: 613
VWidth: 1046
Flags: W
LayerCount: 2
Fore
SplineSet
0 287 m 1
 0 365 l 1
 102 365 l 0
 194 365 267 532 267 736 c 0
 267 838 l 1
 346 838 l 1
 346 736 l 0
 346 489 237 287 102 287 c 0
 0 287 l 1
EndSplineSet
EndChar

StartChar: ltarcuprtform
Encoding: 9584 9584 768
Width: 613
VWidth: 1046
Flags: W
LayerCount: 2
Fore
SplineSet
267 736 m 0
 267 838 l 1
 346 838 l 1
 346 736 l 0
 346 532 419 365 511 365 c 0
 613 365 l 1
 613 287 l 1
 511 287 l 0
 376 287 267 489 267 736 c 0
EndSplineSet
EndChar

StartChar: forwarddiagonal
Encoding: 9585 9585 769
Width: 613
VWidth: 1046
Flags: W
LayerCount: 2
Fore
SplineSet
657 838 m 0
 44 -184 l 0
 -44 -184 l 0
 569 838 l 0
 657 838 l 0
EndSplineSet
EndChar

StartChar: backwarddiagonal
Encoding: 9586 9586 770
Width: 613
VWidth: 1046
Flags: W
LayerCount: 2
Fore
SplineSet
-44 838 m 0
 44 838 l 0
 657 -184 l 0
 569 -184 l 0
 -44 838 l 0
EndSplineSet
EndChar

StartChar: ltdiagonalcross
Encoding: 9587 9587 771
Width: 613
VWidth: 1046
Flags: W
LayerCount: 2
Fore
SplineSet
-44 838 m 1
 44 838 l 1
 306 401 l 1
 569 838 l 1
 657 838 l 1
 351 327 l 1
 657 -184 l 1
 569 -184 l 1
 306 253 l 1
 44 -184 l 1
 -44 -184 l 1
 262 327 l 1
 -44 838 l 1
EndSplineSet
EndChar

StartChar: dneighthblock
Encoding: 9601 9601 772
Width: 613
VWidth: 1046
Flags: W
LayerCount: 2
Fore
SplineSet
0 -56 m 29
 613 -56 l 29
 613 -184 l 25
 0 -184 l 25
 0 -56 l 29
EndSplineSet
EndChar

StartChar: dnquarterblock
Encoding: 9602 9602 773
Width: 613
VWidth: 1046
Flags: W
LayerCount: 2
Fore
SplineSet
0 72 m 29
 613 72 l 29
 613 -184 l 25
 0 -184 l 25
 0 72 l 29
EndSplineSet
EndChar

StartChar: dnthreeeighthblock
Encoding: 9603 9603 774
Width: 613
VWidth: 1046
Flags: W
LayerCount: 2
Fore
SplineSet
0 199 m 25
 613 199 l 25
 613 -184 l 25
 0 -184 l 25
 0 199 l 25
EndSplineSet
EndChar

StartChar: dnfiveeighthblock
Encoding: 9605 9605 775
Width: 613
VWidth: 1046
Flags: W
LayerCount: 2
Fore
SplineSet
0 455 m 29
 613 455 l 29
 613 -184 l 25
 0 -184 l 25
 0 455 l 29
EndSplineSet
EndChar

StartChar: dnthreequarterblock
Encoding: 9606 9606 776
Width: 613
VWidth: 1046
Flags: W
LayerCount: 2
Fore
SplineSet
0 582 m 29
 613 582 l 29
 613 -184 l 25
 0 -184 l 25
 0 582 l 29
EndSplineSet
EndChar

StartChar: dnseveneighthblock
Encoding: 9607 9607 777
Width: 613
VWidth: 1046
Flags: W
LayerCount: 2
Fore
SplineSet
0 710 m 29
 613 710 l 29
 613 -184 l 25
 0 -184 l 25
 0 710 l 29
EndSplineSet
EndChar

StartChar: lfseveneighthblock
Encoding: 9609 9609 778
Width: 613
VWidth: 1046
Flags: W
LayerCount: 2
Fore
SplineSet
0 838 m 25
 536 838 l 29
 536 -184 l 29
 0 -184 l 25
 0 838 l 25
EndSplineSet
EndChar

StartChar: lfthreequarterblock
Encoding: 9610 9610 779
Width: 613
VWidth: 1046
Flags: W
LayerCount: 2
Fore
SplineSet
0 838 m 25
 460 838 l 29
 460 -184 l 29
 0 -184 l 25
 0 838 l 25
EndSplineSet
EndChar

StartChar: lffiveeighthblock
Encoding: 9611 9611 780
Width: 613
VWidth: 1046
Flags: W
LayerCount: 2
Fore
SplineSet
0 838 m 25
 383 838 l 29
 383 -184 l 29
 0 -184 l 25
 0 838 l 25
EndSplineSet
EndChar

StartChar: lfthreeeighthblock
Encoding: 9613 9613 781
Width: 613
VWidth: 1046
Flags: W
LayerCount: 2
Fore
SplineSet
0 838 m 25
 230 838 l 29
 230 -184 l 29
 0 -184 l 25
 0 838 l 25
EndSplineSet
EndChar

StartChar: lfquarterblock
Encoding: 9614 9614 782
Width: 613
VWidth: 1046
Flags: W
LayerCount: 2
Fore
SplineSet
0 838 m 25
 153 838 l 29
 153 -184 l 29
 0 -184 l 25
 0 838 l 25
EndSplineSet
EndChar

StartChar: lfeighthblock
Encoding: 9615 9615 783
Width: 613
VWidth: 1046
Flags: W
LayerCount: 2
Fore
SplineSet
0 838 m 25
 77 838 l 25
 77 -184 l 25
 0 -184 l 25
 0 838 l 25
EndSplineSet
EndChar

StartChar: upblock
Encoding: 9600 9600 784
Width: 613
VWidth: 1046
Flags: W
LayerCount: 2
Fore
SplineSet
0 838 m 29
 613 838 l 29
 613 327 l 29
 0 327 l 29
 0 838 l 29
EndSplineSet
EndChar

StartChar: rtblock
Encoding: 9616 9616 785
Width: 613
VWidth: 1046
Flags: W
LayerCount: 2
Fore
SplineSet
306 838 m 25
 613 838 l 25
 613 -184 l 25
 306 -184 l 25
 306 838 l 25
EndSplineSet
EndChar

StartChar: ltshade
Encoding: 9617 9617 786
Width: 613
VWidth: 1046
Flags: W
LayerCount: 2
Fore
SplineSet
613 -82 m 1
 613 -133 l 1
 552 -133 l 1
 552 -82 l 1
 613 -82 l 1
613 123 m 1
 613 72 l 1
 552 72 l 1
 552 123 l 1
 613 123 l 1
613 327 m 1
 613 276 l 1
 552 276 l 1
 552 327 l 1
 613 327 l 1
613 531 m 1
 613 480 l 1
 552 480 l 1
 552 531 l 1
 613 531 l 1
613 736 m 1
 613 685 l 1
 552 685 l 1
 552 736 l 1
 613 736 l 1
61 20 m 1
 61 -31 l 1
 0 -31 l 1
 0 20 l 1
 61 20 l 1
61 225 m 1
 61 174 l 1
 0 174 l 1
 0 225 l 1
 61 225 l 1
61 429 m 1
 61 378 l 1
 0 378 l 1
 0 429 l 1
 61 429 l 1
61 633 m 1
 61 582 l 1
 0 582 l 1
 0 633 l 1
 61 633 l 1
0 838 m 1
 61 838 l 1
 61 787 l 1
 0 787 l 1
 0 838 l 1
552 838 m 1
 552 787 l 1
 490 787 l 1
 490 838 l 1
 552 838 l 1
429 838 m 1
 429 787 l 1
 368 787 l 1
 368 838 l 1
 429 838 l 1
306 838 m 1
 306 787 l 1
 245 787 l 1
 245 838 l 1
 306 838 l 1
184 838 m 1
 184 787 l 1
 123 787 l 1
 123 838 l 1
 184 838 l 1
490 736 m 1
 490 685 l 1
 429 685 l 1
 429 736 l 1
 490 736 l 1
368 736 m 1
 368 685 l 1
 306 685 l 1
 306 736 l 1
 368 736 l 1
245 736 m 1
 245 685 l 1
 184 685 l 1
 184 736 l 1
 245 736 l 1
123 736 m 1
 123 685 l 1
 61 685 l 1
 61 736 l 1
 123 736 l 1
552 633 m 1
 552 582 l 1
 490 582 l 1
 490 633 l 1
 552 633 l 1
429 633 m 1
 429 582 l 1
 368 582 l 1
 368 633 l 1
 429 633 l 1
306 633 m 1
 306 582 l 1
 245 582 l 1
 245 633 l 1
 306 633 l 1
184 633 m 1
 184 582 l 1
 123 582 l 1
 123 633 l 1
 184 633 l 1
490 531 m 1
 490 480 l 1
 429 480 l 1
 429 531 l 1
 490 531 l 1
368 531 m 1
 368 480 l 1
 306 480 l 1
 306 531 l 1
 368 531 l 1
245 531 m 1
 245 480 l 1
 184 480 l 1
 184 531 l 1
 245 531 l 1
123 531 m 1
 123 480 l 1
 61 480 l 1
 61 531 l 1
 123 531 l 1
552 429 m 1
 552 378 l 1
 490 378 l 1
 490 429 l 1
 552 429 l 1
429 429 m 1
 429 378 l 1
 368 378 l 1
 368 429 l 1
 429 429 l 1
306 429 m 1
 306 378 l 1
 245 378 l 1
 245 429 l 1
 306 429 l 1
184 429 m 1
 184 378 l 1
 123 378 l 1
 123 429 l 1
 184 429 l 1
490 327 m 1
 490 276 l 1
 429 276 l 1
 429 327 l 1
 490 327 l 1
368 327 m 1
 368 276 l 1
 306 276 l 1
 306 327 l 1
 368 327 l 1
245 327 m 1
 245 276 l 1
 184 276 l 1
 184 327 l 1
 245 327 l 1
123 327 m 1
 123 276 l 1
 61 276 l 1
 61 327 l 1
 123 327 l 1
552 225 m 1
 552 174 l 1
 490 174 l 1
 490 225 l 1
 552 225 l 1
429 225 m 1
 429 174 l 1
 368 174 l 1
 368 225 l 1
 429 225 l 1
306 225 m 1
 306 174 l 1
 245 174 l 1
 245 225 l 1
 306 225 l 1
184 225 m 1
 184 174 l 1
 123 174 l 1
 123 225 l 1
 184 225 l 1
490 123 m 1
 490 72 l 1
 429 72 l 1
 429 123 l 1
 490 123 l 1
368 123 m 1
 368 72 l 1
 306 72 l 1
 306 123 l 1
 368 123 l 1
245 123 m 1
 245 72 l 1
 184 72 l 1
 184 123 l 1
 245 123 l 1
123 123 m 1
 123 72 l 1
 61 72 l 1
 61 123 l 1
 123 123 l 1
552 20 m 1
 552 -31 l 1
 490 -31 l 1
 490 20 l 1
 552 20 l 1
429 20 m 1
 429 -31 l 1
 368 -31 l 1
 368 20 l 1
 429 20 l 1
306 20 m 1
 306 -31 l 1
 245 -31 l 1
 245 20 l 1
 306 20 l 1
184 20 m 1
 184 -31 l 1
 123 -31 l 1
 123 20 l 1
 184 20 l 1
490 -82 m 1
 490 -133 l 1
 429 -133 l 1
 429 -82 l 1
 490 -82 l 1
368 -82 m 1
 368 -133 l 1
 306 -133 l 1
 306 -82 l 1
 368 -82 l 1
245 -82 m 1
 245 -133 l 1
 184 -133 l 1
 184 -82 l 1
 245 -82 l 1
123 -82 m 1
 123 -133 l 1
 61 -133 l 1
 61 -82 l 1
 123 -82 l 1
EndSplineSet
EndChar

StartChar: upeighthblock
Encoding: 9620 9620 787
Width: 613
VWidth: 1046
Flags: W
LayerCount: 2
Fore
SplineSet
0 838 m 25
 613 838 l 25
 613 710 l 25
 0 710 l 25
 0 838 l 25
EndSplineSet
EndChar

StartChar: rteighthblock
Encoding: 9621 9621 788
Width: 613
VWidth: 1046
Flags: W
LayerCount: 2
Fore
SplineSet
536 838 m 25
 613 838 l 25
 613 -184 l 25
 536 -184 l 25
 536 838 l 25
EndSplineSet
EndChar

StartChar: uni2596
Encoding: 9622 9622 789
Width: 613
VWidth: 1046
Flags: W
LayerCount: 2
Fore
SplineSet
0 327 m 25
 306 327 l 25
 306 -184 l 25
 0 -184 l 25
 0 327 l 25
EndSplineSet
EndChar

StartChar: uni2597
Encoding: 9623 9623 790
Width: 613
VWidth: 1046
Flags: W
LayerCount: 2
Fore
SplineSet
306 327 m 25
 613 327 l 25
 613 -184 l 25
 306 -184 l 25
 306 327 l 25
EndSplineSet
EndChar

StartChar: uni2598
Encoding: 9624 9624 791
Width: 613
VWidth: 1046
Flags: W
LayerCount: 2
Fore
SplineSet
0 838 m 25
 306 838 l 25
 306 327 l 25
 0 327 l 25
 0 838 l 25
EndSplineSet
EndChar

